RobotoCondensed-BoldItalic.ufo
<glyph name="exclam" format="1">
  <advance width="517.98"/>
  <unicode hex="0021"/>
  <outline>
    <contour>
      <point x="562.39811514088103" y="1455.903174861427" type="line"/>
      <point x="268.47486141363004" y="1455.9552259359161" type="line"/>
      <point x="127.02052648190779" y="449.03447700193919" type="line"/>
      <point x="355.46918945605734" y="449.0844750739858" type="line"/>
    </contour>
    <contour>
      <point x="35.571112531229019" y="132.33764677481722" type="curve" smooth="yes"/>
      <point x="36.355325425193605" y="46.575293064258162"/>
      <point x="98.10522695831223" y="-19.651860802683863"/>
      <point x="185.30243556219574" y="-18.06690490584176" type="curve" smooth="yes"/>
      <point x="275.05282653510909" y="-16.435540626021591"/>
      <point x="336.50656910011662" y="55.641886339580068"/>
      <point x="335.77559161461062" y="143.41018812177921" type="curve" smooth="yes"/>
      <point x="335.06696967479729" y="228.4942645758855"/>
      <point x="272.5657878607027" y="295.21360746768386"/>
      <point x="186.07672255339548" y="293.52402035284297" type="curve" smooth="yes"/>
      <point x="96.516076861341119" y="291.77442909040457"/>
      <point x="34.769218161142568" y="220.0336654645659"/>
    </contour>
  </outline>
</glyph>
<glyph name="quotedbl" format="1">
  <advance width="637.29"/>
  <unicode hex="0022"/>
  <outline>
    <contour>
      <point x="381.76379935391736" y="1385.8448989169578" type="line"/>
      <point x="405.63030833540699" y="1536.9343750364528" type="line"/>
      <point x="206.02104794819707" y="1536.9642933048231" type="line"/>
      <point x="119.46256552556939" y="986.03482287545876" type="line"/>
      <point x="281.52201127012131" y="986.09379235749464" type="line"/>
    </contour>
    <contour>
      <point x="697.98430310130516" y="1385.8575078761576" type="line"/>
      <point x="721.85070731570738" y="1536.9349350044013" type="line"/>
      <point x="524.18103942570406" y="1536.9642278000917" type="line"/>
      <point x="437.6228670739506" y="986.03524696881072" type="line"/>
      <point x="598.68077181893875" y="986.09214097772917" type="line"/>
    </contour>
  </outline>
</glyph>
<glyph name="numbersign" format="1">
  <advance width="1047.6"/>
  <unicode hex="0023"/>
  <outline>
    <contour>
      <point x="383.76190786220491" y="0.0" type="line"/>
      <point x="559.55787902439454" y="0.0" type="line"/>
      <point x="689.32362325108318" y="409.81793666968611" type="line"/>
      <point x="887.54148721296735" y="410.09313485966669" type="line"/>
      <point x="918.15996654713229" y="583.88696150465375" type="line"/>
      <point x="743.75470310251387" y="584.15119976221456" type="line"/>
      <point x="833.08197666801789" y="865.81432057710936" type="line"/>
      <point x="1028.6329481113642" y="866.0934421283888" type="line"/>
      <point x="1059.2452011336702" y="1039.8889378404799" type="line"/>
      <point x="887.51389793158796" y="1040.1436359121756" type="line"/>
      <point x="1019.1513135428152" y="1455.8388352703821" type="line"/>
      <point x="843.37481277085271" y="1455.8594770585437" type="line"/>
      <point x="711.42717930209847" y="1040.1756684644508" type="line"/>
      <point x="587.75867500216759" y="1040.1575505229187" type="line"/>
      <point x="719.45703022810301" y="1455.8311447683614" type="line"/>
      <point x="544.64150541610945" y="1455.8522614874132" type="line"/>
      <point x="412.9365606511858" y="1040.1862465730378" type="line"/>
      <point x="208.78340291161919" y="1039.9051007074347" type="line"/>
      <point x="178.17198726679101" y="866.11555017744263" type="line"/>
      <point x="358.4459824531869" y="865.83714896727747" type="line"/>
      <point x="269.27541162777999" y="584.15496721826275" type="line"/>
      <point x="68.662515177717196" y="583.91106749350035" type="line"/>
      <point x="38.051577564043257" y="410.10977581244038" type="line"/>
      <point x="214.74819607979458" y="409.85537535445673" type="line"/>
      <point x="85.009935693336232" y="0.0" type="line"/>
      <point x="260.77683471270365" y="0.0" type="line"/>
      <point x="390.5479496517043" y="409.8273123510881" type="line"/>
      <point x="513.7953437793559" y="409.84435789758396" type="line"/>
    </contour>
    <contour>
      <point x="444.43858074656225" y="584.1859203151148" type="line"/>
      <point x="533.9366160830059" y="865.7727229430609" type="line"/>
      <point x="657.62384176715136" y="865.81100636539577" type="line"/>
      <point x="567.61124755488231" y="584.19154441392175" type="line"/>
    </contour>
  </outline>
</glyph>
<glyph name="dollar" format="1">
  <advance width="1004.92"/>
  <unicode hex="0024"/>
  <outline>
    <contour>
      <point x="878.40384373727511" y="393.39218967780539" type="curve" smooth="yes"/>
      <point x="895.18722237930047" y="631.60888678503306"/>
      <point x="765.38962473968127" y="736.8723999865847"/>
      <point x="582.68476145669331" y="854.20157747008045" type="curve" smooth="yes"/>
      <point x="505.57500489294813" y="903.71982318619882"/>
      <point x="469.18467023691511" y="971.87470380775994"/>
      <point x="479.22582818530066" y="1063.4512147447997" type="curve" smooth="yes"/>
      <point x="487.52530247225002" y="1139.1433711392424"/>
      <point x="522.11769967962834" y="1245.3302419193135"/>
      <point x="615.71970083158624" y="1243.2735083779723" type="curve" smooth="yes"/>
      <point x="719.50431875863296" y="1240.9930303738824"/>
      <point x="708.37199460924137" y="1071.4704578660776"/>
      <point x="704.74476784617718" y="1005.8705604505567" type="curve"/>
      <point x="981.45604526421869" y="1005.5180992825827" type="line"/>
      <point x="990.37754448284579" y="1195.6311940092796"/>
      <point x="943.62178061002862" y="1409.3772295685026"/>
      <point x="736.68842083766265" y="1466.8462774295501" type="curve"/>
      <point x="777.69171468548143" y="1687.6907308667157" type="line"/>
      <point x="630.41751456451072" y="1688.1572831985761" type="line"/>
      <point x="590.64389365762884" y="1472.8987221438838" type="line"/>
      <point x="369.78641926413877" y="1442.3955943173705"/>
      <point x="225.0979757782568" y="1285.361913050182"/>
      <point x="209.32746441660902" y="1061.9656590528477" type="curve" smooth="yes"/>
      <point x="192.46715655100468" y="823.13195657839219"/>
      <point x="322.68826981972506" y="719.61312642170833"/>
      <point x="508.07105257035528" y="605.87464189774789" type="curve" smooth="yes"/>
      <point x="588.46593119466627" y="556.54971796175857"/>
      <point x="618.61250060135922" y="484.42821761171933"/>
      <point x="607.95724193506726" y="391.6959207948201" type="curve" smooth="yes"/>
      <point x="598.14307344732993" y="306.28359869934616"/>
      <point x="552.96788081768261" y="213.58236129567555"/>
      <point x="454.9111772900111" y="213.78688983233965" type="curve" smooth="yes"/>
      <point x="332.36381709810132" y="214.04250144633835"/>
      <point x="336.12397868156916" y="373.19615940578308"/>
      <point x="340.98716139219835" y="458.11247666533359" type="curve"/>
      <point x="63.817835691420626" y="458.47168898864209" type="line"/>
      <point x="53.738373863679975" y="246.91042277983254"/>
      <point x="118.90940580852967" y="33.600761254750218"/>
      <point x="348.91833454308403" y="-13.731427118493373" type="curve"/>
      <point x="310.91802251522478" y="-215.75251160163609" type="line"/>
      <point x="458.23104791721664" y="-216.21232099117785" type="line"/>
      <point x="495.50599672793783" y="-16.114128601501751" type="line"/>
      <point x="719.3772982492643" y="15.168635690831618"/>
      <point x="862.37868939527209" y="165.93743104972779"/>
    </contour>
  </outline>
</glyph>
<glyph name="percent" format="1">
  <advance width="1268.76"/>
  <unicode hex="0025"/>
  <outline>
    <contour>
      <point x="183.28134373195462" y="1099.1081825043627" type="line" smooth="yes"/>
      <point x="173.40621832275278" y="943.84149189267953"/>
      <point x="252.27244005871722" y="802.98200448416219"/>
      <point x="420.96548681957347" y="799.47273517016401" type="curve" smooth="yes"/>
      <point x="597.56651071851786" y="795.79895865187166"/>
      <point x="698.46647553797186" y="936.08079228752854"/>
      <point x="714.60922792209556" y="1099.0091768239549" type="curve" smooth="yes"/>
      <point x="721.2473806644083" y="1175.9179346959149" type="line" smooth="yes"/>
      <point x="731.61918772245008" y="1332.8182654524999"/>
      <point x="654.95175633523581" y="1474.3026676488155"/>
      <point x="483.83807402594334" y="1477.6693439171245" type="curve" smooth="yes"/>
      <point x="307.03488329671217" y="1481.147961748009"/>
      <point x="205.47536013780183" y="1338.3508774293932"/>
      <point x="189.67233339840544" y="1175.424459486313" type="curve" smooth="yes"/>
    </contour>
    <contour>
      <point x="1103.7285346916096" y="1237.8464857164158" type="line"/>
      <point x="974.42861659713139" y="1321.8315456438659" type="line"/>
      <point x="206.44038711651217" y="194.81726364296918" type="line"/>
      <point x="334.4395618447075" y="111.69060248343854" type="line"/>
    </contour>
    <contour>
      <point x="373.52447432709477" y="1176.1019288326795" type="line" smooth="yes"/>
      <point x="380.68978088375661" y="1231.0873397175658"/>
      <point x="408.6293174874063" y="1312.0780293756443"/>
      <point x="477.37375435463696" y="1310.4432120323945" type="curve" smooth="yes"/>
      <point x="543.63769400622982" y="1308.8673836059618"/>
      <point x="544.69925401285832" y="1224.4899247938445"/>
      <point x="540.81416322752852" y="1177.0085000825252" type="curve" smooth="yes"/>
      <point x="532.38594354581801" y="1098.5835943820935" type="line" smooth="yes"/>
      <point x="524.66415442915616" y="1044.3636208810069"/>
      <point x="496.38920325496463" y="964.66840623435951"/>
      <point x="428.63997578702515" y="966.27950734313731" type="curve" smooth="yes"/>
      <point x="364.65010267651189" y="967.80120964694117"/>
      <point x="362.81370146715886" y="1049.5494178101858"/>
      <point x="366.06402547006786" y="1095.5865015040222" type="curve" smooth="yes"/>
    </contour>
    <contour>
      <point x="599.19178959422277" y="280.09429826020033" type="line" smooth="yes"/>
      <point x="589.41080353876146" y="124.33943006132299"/>
      <point x="668.51140216520696" y="-17.432455216286272"/>
      <point x="837.87035260247069" y="-20.98197951198744" type="curve" smooth="yes"/>
      <point x="1014.7705216419519" y="-24.689557093792789"/>
      <point x="1114.4947062481399" y="117.30503738282846"/>
      <point x="1130.502984465561" y="279.90931621025345" type="curve" smooth="yes"/>
      <point x="1137.1150039215886" y="356.92644035279869" type="line" smooth="yes"/>
      <point x="1147.3631227250494" y="513.01418696274629"/>
      <point x="1070.6901419365277" y="654.49906409843913"/>
      <point x="900.38021568527154" y="657.89358715048809" type="curve" smooth="yes"/>
      <point x="724.22972176416886" y="661.40452116007043"/>
      <point x="621.27205668649856" y="519.25893115954864"/>
      <point x="605.53647459072727" y="356.5311365485581" type="curve" smooth="yes"/>
    </contour>
    <contour>
      <point x="788.53849617400158" y="357.31331777147574" type="line" smooth="yes"/>
      <point x="796.40173989857988" y="412.51872102421595"/>
      <point x="825.29324137432889" y="492.38463628973886"/>
      <point x="894.09763924938966" y="490.46744080180775" type="curve" smooth="yes"/>
      <point x="958.93048021502523" y="488.66091049258569"/>
      <point x="960.57289363074312" y="404.63102615975413"/>
      <point x="956.83274849692862" y="358.13566837773254" type="curve" smooth="yes"/>
      <point x="948.41607575682087" y="279.79604984841245" type="line" smooth="yes"/>
      <point x="940.97405261890208" y="221.53381720332288"/>
      <point x="918.66377850130118" y="143.10553509130605"/>
      <point x="844.78000054109907" y="146.58956576039253" type="curve" smooth="yes"/>
      <point x="783.22596204684737" y="149.49218070295299"/>
      <point x="777.02036248114712" y="232.94042184005579"/>
      <point x="780.16261222561513" y="278.0402047687158" type="curve" smooth="yes"/>
    </contour>
  </outline>
</glyph>
<glyph name="ampersand" format="1">
  <advance width="1150.42"/>
  <unicode hex="0026"/>
  <outline>
    <contour>
      <point x="720.79533750697817" y="0.0" type="line"/>
      <point x="1015.8669680508116" y="0.0" type="line"/>
      <point x="881.04703960895881" y="261.25544598595502" type="line"/>
      <point x="989.71866168422582" y="390.62821511617875"/>
      <point x="1037.5181474450121" y="549.23281990518046"/>
      <point x="1051.2484603714129" y="715.68357650722578" type="curve"/>
      <point x="820.53816041659286" y="715.44883782191562" type="line"/>
      <point x="809.62385248741157" y="635.99988111274297"/>
      <point x="786.71595401844843" y="563.70636237194606"/>
      <point x="750.30491655839865" y="492.29859168888669" type="curve"/>
      <point x="616.92899749049639" y="744.83306641852653" type="line"/>
      <point x="711.60805235330906" y="814.45021349739829" type="line" smooth="yes"/>
      <point x="821.03182913777141" y="896.11875506124898"/>
      <point x="900.36776556379664" y="1004.8188888869605"/>
      <point x="908.66038786939532" y="1144.8867598457441" type="curve" smooth="yes"/>
      <point x="918.99901280084941" y="1319.5129672653791"/>
      <point x="805.45750379681056" y="1473.0441003310939"/>
      <point x="623.91939332384254" y="1477.4791237492668" type="curve" smooth="yes"/>
      <point x="398.50895753229162" y="1482.9859595251353"/>
      <point x="261.38268948770417" y="1294.5255592720719"/>
      <point x="244.7823964792442" y="1085.4220427736989" type="curve" smooth="yes"/>
      <point x="236.01755015184153" y="975.01675127108967"/>
      <point x="272.16603584039922" y="872.68860288507005"/>
      <point x="310.92986645715797" y="771.26002163553653" type="curve"/>
      <point x="173.35256832802548" y="674.14233661065145"/>
      <point x="50.42299760904254" y="562.81315934366933"/>
      <point x="37.290000668020852" y="384.54762138646362" type="curve" smooth="yes"/>
      <point x="20.905359653025641" y="162.14470315761102"/>
      <point x="154.8844855199022" y="-15.489894122559601"/>
      <point x="384.60583193471177" y="-19.975766394459175" type="curve" smooth="yes"/>
      <point x="494.81195563075022" y="-22.127811044192789"/>
      <point x="592.80022754386232" y="14.550564056513693"/>
      <point x="683.74659394797277" y="74.530989838327045" type="curve"/>
    </contour>
    <contour>
      <point x="487.12421250459226" y="1090.7329178832351" type="curve" smooth="yes"/>
      <point x="493.70778394726625" y="1152.3708288010625"/>
      <point x="527.99427415363493" y="1243.5620441110439"/>
      <point x="603.33943581319431" y="1243.116586098464" type="curve" smooth="yes"/>
      <point x="663.31476346441332" y="1242.7619980974448"/>
      <point x="677.98286684829645" y="1173.8345365945595"/>
      <point x="674.08264331630767" y="1126.4013790863701" type="curve" smooth="yes"/>
      <point x="668.09871822991056" y="1053.6269704371441"/>
      <point x="631.24017527983062" y="1002.3165643981389"/>
      <point x="574.94362921051254" y="958.04222125676029" type="curve" smooth="yes"/>
      <point x="528.54912954427118" y="923.38787863554023" type="line"/>
      <point x="505.37857409529391" y="975.69558644761321"/>
      <point x="480.85720629353608" y="1032.0588115988112"/>
    </contour>
    <contour>
      <point x="321.07020016417493" y="401.05143151887495" type="curve" smooth="yes"/>
      <point x="328.37353021261424" y="462.84896603709291"/>
      <point x="353.45600402382041" y="541.00155570420213"/>
      <point x="399.35944911804978" y="585.34630945548247" type="curve"/>
      <point x="410.34759449431988" y="592.84410363291829" type="line"/>
      <point x="571.812237313899" y="267.24181280788343" type="line"/>
      <point x="524.59765336505507" y="240.15570747447521"/>
      <point x="471.99022960533875" y="212.31199239907613"/>
      <point x="415.60899488221315" y="214.96348795206595" type="curve" smooth="yes"/>
      <point x="324.79589178087326" y="219.23424470666473"/>
      <point x="312.85257960598966" y="331.51757686162932"/>
    </contour>
  </outline>
</glyph>
<glyph name="quotesingle" format="1">
  <advance width="321.07"/>
  <unicode hex="0027"/>
  <outline>
    <contour>
      <point x="389.75499208083022" y="1375.0701730645171" type="line"/>
      <point x="415.18920637705031" y="1535.9318529193354" type="line"/>
      <point x="206.83658930272992" y="1535.9647396372748" type="line"/>
      <point x="120.15402807907732" y="984.03465757892707" type="line"/>
      <point x="300.35048398904985" y="984.07988198526311" type="line"/>
    </contour>
  </outline>
</glyph>
<glyph name="parenleft" format="1">
  <advance width="642.14"/>
  <unicode hex="0028"/>
  <outline>
    <contour>
      <point x="112.61168780495045" y="564.70091573148784" type="line" smooth="yes"/>
      <point x="70.505159594406706" y="246.65385263385662"/>
      <point x="80.186365728262956" y="-251.60951449182357"/>
      <point x="384.65033484844025" y="-454.82857448809364" type="curve"/>
      <point x="447.82033202947002" y="-302.54876650807" type="line"/>
      <point x="256.05258518865429" y="-97.418909329554594"/>
      <point x="310.67366597500956" y="319.23657956671877"/>
      <point x="344.28485470536691" y="565.90371281042303" type="curve" smooth="yes"/>
      <point x="348.0340129198384" y="592.6540549148549" type="line" smooth="yes"/>
      <point x="393.02106421115565" y="907.13370424688742"/>
      <point x="484.42458862412559" y="1234.8323424500502"/>
      <point x="723.70224980864839" y="1457.8105227829285" type="curve"/>
      <point x="681.72085732710491" y="1618.5134752303659" type="line"/>
      <point x="324.3364717400641" y="1437.8442171947768"/>
      <point x="167.56910774283347" y="953.0951942423892"/>
      <point x="115.85571339216649" y="587.95875144858974" type="curve" smooth="yes"/>
    </contour>
  </outline>
</glyph>
<glyph name="parenright" format="1">
  <advance width="643.11"/>
  <unicode hex="0029"/>
  <outline>
    <contour>
      <point x="539.44955299954768" y="596.70328870745482" type="line" smooth="yes"/>
      <point x="581.59822068681797" y="916.78103628623717"/>
      <point x="559.29425618560981" y="1415.172761862297"/>
      <point x="252.74394673677136" y="1615.7442202508107" type="curve"/>
      <point x="189.64280760142071" y="1461.721041626937" type="line"/>
      <point x="378.63419589332682" y="1258.9292119197582"/>
      <point x="325.37626416224987" y="837.89893894229749"/>
      <point x="292.29857651376454" y="595.03841779651782" type="curve" smooth="yes"/>
      <point x="288.54353126459807" y="568.26852594256445" type="line" smooth="yes"/>
      <point x="243.28497759602561" y="252.28499602795165"/>
      <point x="149.64458463402815" y="-73.791451829866702"/>
      <point x="-87.701818972741094" y="-299.81332427546664" type="curve"/>
      <point x="-45.263581689605637" y="-457.57426648212402" type="line"/>
      <point x="315.62562293604117" y="-283.3380761034399"/>
      <point x="484.51530972980498" y="208.03242189408326"/>
      <point x="536.22047025098186" y="573.45293818377968" type="curve" smooth="yes"/>
    </contour>
  </outline>
</glyph>
<glyph name="asterisk" format="1">
  <advance width="902.1"/>
  <unicode hex="002A"/>
  <outline>
    <contour>
      <point x="136.05256612672241" y="699.99678275516123" type="line"/>
      <point x="283.39129489307328" y="583.99012086997016" type="line"/>
      <point x="506.15413881502332" y="862.4877980872285" type="line"/>
      <point x="632.17846350095169" y="569.56236288468631" type="line"/>
      <point x="795.40336752227643" y="674.79310888324585" type="line"/>
      <point x="634.72130242731509" y="945.6505280467137" type="line"/>
      <point x="963.87985496657461" y="1035.0261668894123" type="line"/>
      <point x="936.36163439636425" y="1227.5011645483553" type="line"/>
      <point x="627.38013999243947" y="1108.1126741486555" type="line"/>
      <point x="708.43263405434891" y="1455.8798219362616" type="line"/>
      <point x="515.555808312365" y="1455.976946294358" type="line"/>
      <point x="473.35222933764101" y="1101.3486754610308" type="line"/>
      <point x="187.56919566180432" y="1229.7211759314521" type="line"/>
      <point x="101.49193968835466" y="1057.3355015585907" type="line"/>
      <point x="391.40746018304458" y="967.5313630465015" type="line"/>
    </contour>
  </outline>
</glyph>
<glyph name="plus" format="1">
  <advance width="943.81"/>
  <unicode hex="002B"/>
  <outline>
    <contour>
      <point x="868.83496892230244" y="554.07984398354324" type="line"/>
      <point x="914.90388300198151" y="816.90536246650368" type="line"/>
      <point x="639.95148060994688" y="817.07443139599206" type="line"/>
      <point x="707.79404010718372" y="1205.9248120064763" type="line"/>
      <point x="447.07519675698506" y="1205.9372645506926" type="line"/>
      <point x="379.23119035088263" y="817.09220642738967" type="line"/>
      <point x="100.31395012102645" y="816.91865236950196" type="line"/>
      <point x="54.244346063033603" y="554.09470491274692" type="line"/>
      <point x="334.03616566351229" y="553.92561634214155" type="line"/>
      <point x="262.92442927146732" y="146.07279641191033" type="line"/>
      <point x="523.64421798117473" y="146.06024690017748" type="line"/>
      <point x="594.75625711654243" y="553.9094548352582" type="line"/>
    </contour>
  </outline>
</glyph>
<glyph name="comma" format="1">
  <advance width="487.90999999999997"/>
  <unicode hex="002C"/>
  <outline>
    <contour>
      <point x="305.90740602333813" y="254" type="move" name="_bottom"/>
    </contour>
    <contour>
      <point x="59.133172684901737" y="44" type="move" name="_right"/>
    </contour>
    <contour>
      <point x="314.08137321473657" y="246.85730405503546" type="line"/>
      <point x="75.27102951583224" y="246.9747630140595" type="line"/>
      <point x="38.294791572019207" y="34.170473188984396" type="line" smooth="yes"/>
      <point x="15.475272130318594" y="-90.489952810637732"/>
      <point x="-52.658388205803689" y="-182.78124576335884"/>
      <point x="-116.8871752133732" y="-288.34714657717819" type="curve"/>
      <point x="29.30080224475428" y="-367.66743151215513" type="line"/>
      <point x="160.65321329019594" y="-264.40029946527261"/>
      <point x="255.92508077856229" y="-115.81425058360848"/>
      <point x="282.07000356398652" y="50.479764067474989" type="curve" smooth="yes"/>
    </contour>
  </outline>
</glyph>
<glyph name="hyphen" format="1">
  <advance width="721.68"/>
  <unicode hex="002D"/>
  <outline>
    <contour>
      <point x="619.6857743420336" y="741.90821726529043" type="line"/>
      <point x="143.62718884811011" y="741.92129037084896" type="line"/>
      <point x="102.31713605705555" y="507.09171662121634" type="line"/>
      <point x="578.37572155096848" y="507.07864351564933" type="line"/>
    </contour>
  </outline>
</glyph>
<glyph name="period" format="1">
  <advance width="579.09"/>
  <unicode hex="002E"/>
  <outline>
    <contour>
      <point x="43.372490895281359" y="138.20931499896804" type="curve" smooth="yes"/>
      <point x="44.620956005212491" y="48.67817045769317"/>
      <point x="114.36891979387248" y="-13.226455099583749"/>
      <point x="202.44664777947162" y="-12.135802452024963" type="curve" smooth="yes"/>
      <point x="294.17761276059201" y="-10.999912345548342"/>
      <point x="364.07374823068238" y="57.222091415285789"/>
      <point x="362.86924127362323" y="149.76829295159919" type="curve" smooth="yes"/>
      <point x="361.70632419709068" y="239.1190081999095"/>
      <point x="293.22829575139207" y="302.18419721560099"/>
      <point x="204.79387216322937" y="301.15135930911208" type="curve" smooth="yes"/>
      <point x="112.29592769577609" y="300.07106297831677"/>
      <point x="42.070919408764063" y="231.54887568289479"/>
    </contour>
  </outline>
</glyph>
<glyph name="slash" format="1">
  <advance width="657.66"/>
  <unicode hex="002F"/>
  <outline>
    <contour>
      <point x="777.42262449494342" y="1455.7827442553298" type="line"/>
      <point x="567.96177741692077" y="1455.8171017017655" type="line"/>
      <point x="-131.43438594636359" y="-124.77992162230402" type="line"/>
      <point x="78.999641052153336" y="-124.81735513889315" type="line"/>
    </contour>
  </outline>
</glyph>
<glyph name="zero" format="1">
  <advance width="1004.92"/>
  <unicode hex="0030"/>
  <outline>
    <contour>
      <point x="955.10515920430612" y="856.33924000439822" type="line" smooth="yes"/>
      <point x="987.13032182233223" y="1108.7492829897926"/>
      <point x="961.56553822659566" y="1467.3364928985054"/>
      <point x="634.65163199125027" y="1476.445550688366" type="curve" smooth="yes"/>
      <point x="293.3204643179198" y="1485.9563279068138"/>
      <point x="174.31842951025379" y="1135.5295938971958"/>
      <point x="133.62152729332377" y="855.83345388961413" type="curve" smooth="yes"/>
      <point x="95.014614807822468" y="601.65566840424742" type="line" smooth="yes"/>
      <point x="62.889549528547249" y="349.27222565880868"/>
      <point x="89.012737141475782" y="-11.202701768103042"/>
      <point x="416.29434941576324" y="-20.383439485241592" type="curve" smooth="yes"/>
      <point x="757.71917215797771" y="-29.960915365829138"/>
      <point x="874.55987293222449" y="324.51518146642513"/>
      <point x="916.12305491037193" y="602.67178241995737" type="curve" smooth="yes"/>
    </contour>
    <contour>
      <point x="635.94015508509915" y="563.4492724322613" type="line" smooth="yes"/>
      <point x="622.43156526840494" y="460.82403027052754"/>
      <point x="596.90778570336704" y="202.20485222928534"/>
      <point x="440.83099330531616" y="213.20021449639435" type="curve" smooth="yes"/>
      <point x="308.71134420332874" y="222.5078340480236"/>
      <point x="357.5690394085205" y="488.58996596481126"/>
      <point x="366.45700505424975" y="563.07058991285896" type="curve" smooth="yes"/>
      <point x="414.32227558631837" y="897.5934574793979" type="line" smooth="yes"/>
      <point x="427.5360253682918" y="1000.210107223692"/>
      <point x="453.00020822893447" y="1253.8217237355723"/>
      <point x="608.03902209983721" y="1243.3007910261069" type="curve" smooth="yes"/>
      <point x="740.13822582149487" y="1234.3365400838443"/>
      <point x="692.76130600924591" y="973.42578175085646"/>
      <point x="684.00759772443519" y="898.45934350210064" type="curve" smooth="yes"/>
    </contour>
  </outline>
</glyph>
<glyph name="one" format="1">
  <advance width="1004.92"/>
  <unicode hex="0031"/>
  <outline>
    <contour>
      <point x="839.30579590737034" y="1458.154195095789" type="line"/>
      <point x="804.71203204285166" y="1457.7169668880952" type="line"/>
      <point x="264.9855376244538" y="1247.5509556776874" type="line"/>
      <point x="221.55861582070446" y="1000.5802952258057" type="line"/>
      <point x="509.34125753032538" y="1105.6890669529816" type="line"/>
      <point x="317.20932566214105" y="0.0" type="line"/>
      <point x="593.44746058844692" y="0.0" type="line"/>
    </contour>
  </outline>
</glyph>
<glyph name="two" format="1">
  <advance width="1004.92"/>
  <unicode hex="0032"/>
  <outline>
    <contour>
      <point x="869.72602412386937" y="234.91709426838267" type="line"/>
      <point x="395.70396794696507" y="235.30669053061325" type="line"/>
      <point x="619.45558136685759" y="501.95578195301215" type="line" smooth="yes"/>
      <point x="767.44858146999309" y="666.26323367786165"/>
      <point x="943.54485027011197" y="835.80085795467312"/>
      <point x="964.33936042646758" y="1069.4024701650574" type="curve" smooth="yes"/>
      <point x="985.33312913608506" y="1305.2425154492994"/>
      <point x="855.82740649359516" y="1473.6756253947221"/>
      <point x="613.35136997814072" y="1477.7260326888788" type="curve" smooth="yes"/>
      <point x="341.09260582960502" y="1482.2739414226767"/>
      <point x="156.44246976500006" y="1254.2694887424082"/>
      <point x="137.82831604314373" y="997.31393400026366" type="curve"/>
      <point x="411.79823951677037" y="998.61382374126072" type="line"/>
      <point x="423.18127453756455" y="1096.2391785740438"/>
      <point x="460.15018575718028" y="1249.3468543790793"/>
      <point x="587.27581681147944" y="1245.1638479332096" type="curve" smooth="yes"/>
      <point x="686.60007573956443" y="1241.8956319811491"/>
      <point x="686.44517689622171" y="1115.0443318564689"/>
      <point x="677.81306375971451" y="1043.606839895996" type="curve" smooth="yes"/>
      <point x="662.31685816708114" y="915.36361081228733"/>
      <point x="562.94078512847739" y="795.53418811341237"/>
      <point x="481.78348812689751" y="701.83328310438435" type="curve" smooth="yes"/>
      <point x="30.852894581374926" y="211.24092890609515" type="line"/>
      <point x="-2.3560384454534642" y="0.0" type="line"/>
      <point x="832.49180505975562" y="0.0" type="line"/>
    </contour>
  </outline>
</glyph>
<glyph name="three" format="1">
  <advance width="1004.92"/>
  <unicode hex="0033"/>
  <outline>
    <contour>
      <point x="487.09366227740031" y="627.71144815037837" type="line" smooth="yes"/>
      <point x="602.34130128491302" y="621.83671303274707"/>
      <point x="617.58588420961132" y="518.46125122223032"/>
      <point x="606.92378519437636" y="420.57666399345004" type="curve" smooth="yes"/>
      <point x="596.1880221377312" y="322.0157958300498"/>
      <point x="535.13496617328803" y="211.74497453223574"/>
      <point x="422.1184422086892" y="215.48194477886409" type="curve" smooth="yes"/>
      <point x="324.40913712350221" y="218.71277114931991"/>
      <point x="303.82649950632828" y="321.75529819300021"/>
      <point x="305.82324323326452" y="400.40422207152454" type="curve"/>
      <point x="30.617798541201694" y="400.68239945314423" type="line"/>
      <point x="23.344466891359005" y="169.96838429687958"/>
      <point x="152.26286374006841" y="-14.69130648804591"/>
      <point x="395.1266822573325" y="-20.177230411839343" type="curve" smooth="yes"/>
      <point x="655.94498151380617" y="-26.068718721583153"/>
      <point x="860.18606136225083" y="155.46707414629401"/>
      <point x="877.89007598541662" y="416.6849949458317" type="curve" smooth="yes"/>
      <point x="886.62571524082739" y="545.57697632543034"/>
      <point x="849.80074036062751" y="675.16504166847244"/>
      <point x="732.46453340679022" y="742.68093068035807" type="curve"/>
      <point x="858.77146524525642" y="812.25543044115443"/>
      <point x="952.95852977315371" y="920.28688814817758"/>
      <point x="963.8586092131128" y="1069.3710178195911" type="curve" smooth="yes"/>
      <point x="981.38892284033625" y="1309.1391373436195"/>
      <point x="832.81250588244666" y="1473.4310992354258"/>
      <point x="592.64102320675659" y="1477.8411226402079" type="curve" smooth="yes"/>
      <point x="357.24498174713028" y="1482.1634594999582"/>
      <point x="174.72871765810467" y="1312.2902780599707"/>
      <point x="157.51669630390126" y="1079.769600772488" type="curve"/>
      <point x="432.94583397208078" y="1080.9638321828133" type="line"/>
      <point x="446.21161761226767" y="1157.6719018862107"/>
      <point x="490.59275669032075" y="1245.9335302300119"/>
      <point x="581.37691515206041" y="1244.5766607282221" type="curve" smooth="yes"/>
      <point x="676.48970653145534" y="1243.1550950273386"/>
      <point x="690.69545820820224" y="1139.7423715832911"/>
      <point x="682.77863641907663" y="1064.8681887150196" type="curve" smooth="yes"/>
      <point x="671.32238529638744" y="956.51947702325322"/>
      <point x="616.19987551942324" y="860.36857346019247"/>
      <point x="497.81584193076128" y="856.63651720282371" type="curve" smooth="yes"/>
      <point x="376.37070104776245" y="857.74011965215323" type="line"/>
      <point x="340.14904942475818" y="629.23929985017469" type="line"/>
    </contour>
  </outline>
</glyph>
<glyph name="four" format="1">
  <advance width="1004.92"/>
  <unicode hex="0034"/>
  <outline>
    <contour>
      <point x="45.334048094478064" y="512.45922720365832" type="line"/>
      <point x="24.851428373760811" y="315.07281401793239" type="line"/>
      <point x="492.52837528226803" y="314.93541860487898" type="line"/>
      <point x="437.41204182314846" y="0.0" type="line"/>
      <point x="713.67604661658004" y="0.0" type="line"/>
      <point x="768.5974213158197" y="314.91034500639029" type="line"/>
      <point x="887.74171534578011" y="315.07126630506741" type="line"/>
      <point x="928.63192313297282" y="549.91164074902849" type="line"/>
      <point x="809.2102133982454" y="550.06183195921869" type="line"/>
      <point x="966.40038496555417" y="1455.9757789021751" type="line"/>
      <point x="681.51741573943718" y="1455.6864893127301" type="line"/>
    </contour>
    <contour>
      <point x="327.0690938163151" y="550.29901796579554" type="line"/>
      <point x="614.63296886861872" y="1026.0265307480158" type="line"/>
      <point x="625.90667210754805" y="1043.1085015602162" type="line"/>
      <point x="532.6402009285589" y="550.01905271467615" type="line"/>
    </contour>
  </outline>
</glyph>
<glyph name="five" format="1">
  <advance width="1004.92"/>
  <unicode hex="0035"/>
  <outline>
    <contour>
      <point x="359.13054766765282" y="660.6837139591662" type="line"/>
      <point x="397.02912663628166" y="707.33004757471247"/>
      <point x="441.02105251322638" y="739.4804204331856"/>
      <point x="503.83485612468871" y="739.02139583441044" type="curve" smooth="yes"/>
      <point x="630.62927031383356" y="738.09481995850717"/>
      <point x="633.6984737523934" y="584.84988067860763"/>
      <point x="625.25783302892273" y="492.11800268681702" type="curve" smooth="yes"/>
      <point x="616.02355423881238" y="390.6669349111707"/>
      <point x="582.65997018145242" y="211.07719108694872"/>
      <point x="446.8943770108167" y="215.68563970947829" type="curve" smooth="yes"/>
      <point x="348.67861815479154" y="219.01949085718311"/>
      <point x="333.46048400287532" y="330.1849091604123"/>
      <point x="331.07834444493466" y="406.7470947166708" type="curve"/>
      <point x="58.351234487736107" y="406.79193341758787" type="line"/>
      <point x="54.368061987109108" y="183.21206986569192"/>
      <point x="187.95398360946993" y="-15.936277308929158"/>
      <point x="426.70352332711752" y="-21.447461257061263" type="curve" smooth="yes"/>
      <point x="707.25832697514011" y="-27.923658581943677"/>
      <point x="877.73175288156153" y="216.30931491168991"/>
      <point x="899.83580064792238" y="474.5967281276192" type="curve" smooth="yes"/>
      <point x="918.23579332513475" y="689.60198698440786"/>
      <point x="856.94615598205587" y="957.77769671703606"/>
      <point x="592.81020638163443" y="955.60732613989262" type="curve" smooth="yes"/>
      <point x="534.0084804937951" y="955.124160043247"/>
      <point x="477.85622216826698" y="934.88427021231792"/>
      <point x="429.89636658976144" y="901.57957309910171" type="curve"/>
      <point x="514.85882769388036" y="1213.9288692818402" type="line"/>
      <point x="970.64037297328866" y="1214.0571650543459" type="line"/>
      <point x="1008.9751420185472" y="1455.9229473426119" type="line"/>
      <point x="322.83667656114113" y="1455.8923564456829" type="line"/>
      <point x="136.93108658894784" y="719.70321312828708" type="line"/>
    </contour>
  </outline>
</glyph>
<glyph name="six" format="1">
  <advance width="1004.92"/>
  <unicode hex="0036"/>
  <outline>
    <contour>
      <point x="916.70708550539439" y="486.39398737432015" type="curve" smooth="yes"/>
      <point x="934.40605790128257" y="682.04373386181965"/>
      <point x="888.19850821529428" y="971.95684258493668"/>
      <point x="637.55017353557548" y="974.58013814233971" type="curve" smooth="yes"/>
      <point x="547.13557594572751" y="975.52642095919907"/>
      <point x="473.2395194768406" y="933.83163884502085"/>
      <point x="410.68111813670527" y="871.76691980437965" type="curve"/>
      <point x="485.6081735422656" y="1072.0516487327361"/>
      <point x="609.19704136438349" y="1237.164234072806"/>
      <point x="842.70143705051248" y="1232.9259092184734" type="curve" smooth="yes"/>
      <point x="852.84631712518967" y="1232.4571512801208" type="line"/>
      <point x="877.45958406285899" y="1472.9835535514953" type="line"/>
      <point x="834.64424729058499" y="1473.0782438421911" type="line" smooth="yes"/>
      <point x="385.93599382937106" y="1470.3959339412311"/>
      <point x="161.30939575444813" y="1073.5080965953553"/>
      <point x="106.99096787256478" y="672.75227021506782" type="curve" smooth="yes"/>
      <point x="92.452466025800973" y="559.75206361339838" type="line" smooth="yes"/>
      <point x="64.765000817602413" y="311.8587288148758"/>
      <point x="139.26535862170499" y="-13.679172412930402"/>
      <point x="443.03759372631896" y="-20.830400537525705" type="curve" smooth="yes"/>
      <point x="723.0533488681491" y="-27.422367518347489"/>
      <point x="893.73972681170642" y="232.50591944606757"/>
    </contour>
    <contour>
      <point x="364.20169083424088" y="520.39244970029426" type="curve" smooth="yes"/>
      <point x="376.72050630607703" y="624.50252703273827" type="line"/>
      <point x="409.72456604857496" y="684.33003674297981"/>
      <point x="459.07999040879429" y="744.76625545714103"/>
      <point x="534.50287681266173" y="742.69958998125003" type="curve" smooth="yes"/>
      <point x="648.28772853072451" y="739.58176678543771"/>
      <point x="648.02281072703602" y="562.12890276064809"/>
      <point x="640.93752698956519" y="485.31052590451611" type="curve" smooth="yes"/>
      <point x="632.07814904573786" y="389.25748712490531"/>
      <point x="586.9335234458523" y="210.77451419557863"/>
      <point x="459.55380167991916" y="215.46474876223428" type="curve" smooth="yes"/>
      <point x="332.56285556051239" y="220.14066826405281"/>
      <point x="356.42128754411425" y="443.47106494194111"/>
    </contour>
  </outline>
</glyph>
<glyph name="seven" format="1">
  <advance width="1004.92"/>
  <unicode hex="0037"/>
  <outline>
    <contour>
      <point x="1055.382322495369" y="1455.8930745338948" type="line"/>
      <point x="199.23206572632768" y="1455.9360862187229" type="line"/>
      <point x="161.99602385876778" y="1221.0706412064192" type="line"/>
      <point x="724.26392563750699" y="1220.7747186132724" type="line"/>
      <point x="85.966373910368773" y="0.0" type="line"/>
      <point x="386.85957335583726" y="0.0" type="line"/>
      <point x="1028.0557667650226" y="1281.2636713160041" type="line"/>
    </contour>
  </outline>
</glyph>
<glyph name="eight" format="1">
  <advance width="1004.92"/>
  <unicode hex="0038"/>
  <outline>
    <contour>
      <point x="872.57625800365508" y="408.32587368506955" type="curve" smooth="yes"/>
      <point x="882.26405775799435" y="536.13641026482514"/>
      <point x="846.15440068251246" y="661.30388189613222"/>
      <point x="745.91292940498852" y="745.17732959461011" type="curve"/>
      <point x="872.50566827784303" y="818.91425937678196"/>
      <point x="954.64306478729372" y="927.88385387080132"/>
      <point x="966.49343986028612" y="1077.2398810775042" type="curve" smooth="yes"/>
      <point x="984.02590405557214" y="1298.2100346146319"/>
      <point x="863.54074109439296" y="1472.1483075845058"/>
      <point x="633.14168696908632" y="1477.584298185441" type="curve" smooth="yes"/>
      <point x="384.77438253286471" y="1483.4442281995662"/>
      <point x="219.40080911797816" y="1300.3215832649826"/>
      <point x="202.0459830849415" y="1060.4047391971171" type="curve" smooth="yes"/>
      <point x="193.77773788262795" y="946.10274094359477"/>
      <point x="226.25514862917737" y="834.94262781950044"/>
      <point x="311.49114894004822" y="756.06365132622" type="curve"/>
      <point x="167.05354782048465" y="679.64682304698454"/>
      <point x="74.405904223884164" y="558.18437001538211"/>
      <point x="61.437433303937453" y="391.82705883072691" type="curve" smooth="yes"/>
      <point x="43.278660551432459" y="158.88944975041704"/>
      <point x="178.57241423211656" y="-14.879204000612031"/>
      <point x="417.18870155844093" y="-20.480961061661187" type="curve" smooth="yes"/>
      <point x="675.55930259314187" y="-26.546470482375319"/>
      <point x="853.43443795780456" y="155.78903836521698"/>
    </contour>
    <contour>
      <point x="688.00232882811656" y="1062.1567004764743" type="curve" smooth="yes"/>
      <point x="681.47279724003806" y="986.86920957452492"/>
      <point x="653.83011507018637" y="860.54892729200219"/>
      <point x="555.43790070501518" y="862.16800324318649" type="curve" smooth="yes"/>
      <point x="467.42719008430424" y="863.61624816715755"/>
      <point x="469.41911273926149" y="986.75597149020882"/>
      <point x="474.82499725290666" y="1047.7715695200695" type="curve" smooth="yes"/>
      <point x="481.49152457555442" y="1123.0158982413066"/>
      <point x="510.66935296011638" y="1245.5770623044953"/>
      <point x="608.12958554365798" y="1243.7235837330318" type="curve" smooth="yes"/>
      <point x="694.93440432829175" y="1242.0727476201673"/>
      <point x="693.27142510451199" y="1122.9109877663773"/>
    </contour>
    <contour>
      <point x="601.49297650969231" y="428.90252894519983" type="curve" smooth="yes"/>
      <point x="593.40012913329986" y="339.34313267619359"/>
      <point x="553.14694004211856" y="211.06833481633316"/>
      <point x="441.96591312742351" y="213.23016039762459" type="curve" smooth="yes"/>
      <point x="341.72253329672657" y="215.17931223482955"/>
      <point x="334.17341162499736" y="338.24010061746986"/>
      <point x="341.02900235053085" y="413.01504467558658" type="curve" smooth="yes"/>
      <point x="349.1869394776769" y="501.99487394690186"/>
      <point x="390.72688181376174" y="632.96166038970057"/>
      <point x="501.6359259817724" y="630.74610678430997" type="curve" smooth="yes"/>
      <point x="601.3993942365347" y="628.75320067429709"/>
      <point x="608.13260297981685" y="502.37987387211422"/>
    </contour>
  </outline>
</glyph>
<glyph name="nine" format="1">
  <advance width="1004.92"/>
  <unicode hex="0039"/>
  <outline>
    <contour>
      <point x="932.88071291709559" y="781.3224688985689" type="curve" smooth="yes"/>
      <point x="945.88550814656389" y="882.23578647655734" type="line" smooth="yes"/>
      <point x="972.52060826122477" y="1120.3640430756157"/>
      <point x="917.31710752398919" y="1470.1448583318277"/>
      <point x="613.53070834287416" y="1477.5358995519143" type="curve" smooth="yes"/>
      <point x="331.66241987282592" y="1484.3936790454438"/>
      <point x="165.70890043336831" y="1204.5905264569342"/>
      <point x="143.14532199500792" y="954.02588112251567" type="curve" smooth="yes"/>
      <point x="125.10751463877473" y="753.71914275776737"/>
      <point x="179.88230926233305" y="471.46480810470888"/>
      <point x="432.81180597034165" y="471.19674357088002" type="curve" smooth="yes"/>
      <point x="510.89261331634725" y="471.11399048950909"/>
      <point x="574.3257028689161" y="512.33197663214378"/>
      <point x="629.48827581353078" y="563.70761685342313" type="curve"/>
      <point x="559.30177160513188" y="362.54256996780651"/>
      <point x="440.86504214045317" y="224.04536709680931"/>
      <point x="213.09273595558722" y="228.1202181232037" type="curve" smooth="yes"/>
      <point x="202.92201352740193" y="228.56727862396301" type="line"/>
      <point x="177.70174882614731" y="-15.963264542037916" type="line"/>
      <point x="201.10086133642739" y="-16.054758688321542" type="line" smooth="yes"/>
      <point x="659.20589340973766" y="-14.104104927323471"/>
      <point x="877.23525820841223" y="370.65151313639069"/>
    </contour>
    <contour>
      <point x="419.27967248530479" y="957.01899421679013" type="curve" smooth="yes"/>
      <point x="427.43571433225139" y="1045.7946656133458"/>
      <point x="464.68356737406884" y="1246.1568821735332"/>
      <point x="588.74871916877782" y="1242.0093947077544" type="curve" smooth="yes"/>
      <point x="707.92736988791046" y="1238.0252625570604"/>
      <point x="684.2805858094066" y="1005.1877242698985"/>
      <point x="677.40176504813155" y="936.64534183043338" type="curve" smooth="yes"/>
      <point x="661.56270488283849" y="806.6679704100635" type="line"/>
      <point x="631.38086634147783" y="755.01760755478358"/>
      <point x="587.91263933145683" y="691.76173141524009"/>
      <point x="520.44512441640325" y="692.06831085493889" type="curve" smooth="yes"/>
      <point x="403.61868748515201" y="692.59918239543481"/>
      <point x="412.37290232385647" y="881.84120948119335"/>
    </contour>
  </outline>
</glyph>
<glyph name="less" format="1">
  <advance width="887.55"/>
  <unicode hex="003C"/>
  <outline>
    <contour>
      <point x="686.98626071119622" y="142.33884034646138" type="line"/>
      <point x="734.19225067625314" y="411.72971670159359" type="line"/>
      <point x="328.26816460362204" y="612.01033500299286" type="line"/>
      <point x="803.7858235267073" y="815.9405459141168" type="line"/>
      <point x="855.40035737428661" y="1110.024721195573" type="line"/>
      <point x="84.012962467290876" y="745.59932641643638" type="line"/>
      <point x="42.296270719015396" y="507.99142239871679" type="line"/>
    </contour>
  </outline>
</glyph>
<glyph name="equal" format="1">
  <advance width="1000.0699999999999"/>
  <unicode hex="003D"/>
  <outline>
    <contour>
      <point x="935.78149921003205" y="981.90606688995194" type="line"/>
      <point x="194.90407303257882" y="981.91932284531811" type="line"/>
      <point x="153.24379857524048" y="745.093876984281" type="line"/>
      <point x="894.12122475270667" y="745.08062102892416" type="line"/>
    </contour>
    <contour>
      <point x="860.76488384652555" y="548.90583781511384" type="line"/>
      <point x="119.88745722218924" y="548.91909116950615" type="line"/>
      <point x="78.051397207985119" y="311.09413423574284" type="line"/>
      <point x="818.92882383231688" y="311.08088088135338" type="line"/>
    </contour>
  </outline>
</glyph>
<glyph name="greater" format="1">
  <advance width="902.1"/>
  <unicode hex="003E"/>
  <outline>
    <contour>
      <point x="204.01347690642831" y="1096.7243288245966" type="line"/>
      <point x="157.14169820078575" y="829.22459916028652" type="line"/>
      <point x="571.89294972944697" y="628.08845447248893" type="line"/>
      <point x="87.114978336237854" y="422.02909138199266" type="line"/>
      <point x="35.549957121095176" y="129.01434506101106" type="line"/>
      <point x="816.68623177549887" y="493.474245563495" type="line"/>
      <point x="858.40582136860291" y="731.08566075896078" type="line"/>
    </contour>
  </outline>
</glyph>
<glyph name="question" format="1">
  <advance width="890.4599999999999"/>
  <unicode hex="003F"/>
  <outline>
    <contour>
      <point x="517.48299532959163" y="448.87726341831797" type="line"/>
      <point x="532.57021975174905" y="543.7425907975437"/>
      <point x="564.11698850982009" y="619.07055582796625"/>
      <point x="634.2537519488402" y="686.45916569582801" type="curve" smooth="yes"/>
      <point x="755.08560709093842" y="802.55649249734824"/>
      <point x="883.6895872839325" y="913.83514106975838"/>
      <point x="898.51944415030744" y="1092.0966466812818" type="curve" smooth="yes"/>
      <point x="917.09173672229872" y="1315.3439016192283"/>
      <point x="791.68656555560062" y="1471.7800551313994"/>
      <point x="564.35291341840752" y="1476.968831942447" type="curve" smooth="yes"/>
      <point x="312.51165335257087" y="1482.7169826364145"/>
      <point x="158.72945908282247" y="1309.4352317125713"/>
      <point x="136.01846483719311" y="1068.5605400129189" type="curve"/>
      <point x="411.18888372969934" y="1070.2915306564394" type="line"/>
      <point x="423.32407700287661" y="1136.0763841800201"/>
      <point x="454.11877094590244" y="1243.9821172824866"/>
      <point x="540.53716712269159" y="1242.0545055117218" type="curve" smooth="yes"/>
      <point x="622.76477035991115" y="1240.2203717752243"/>
      <point x="619.94487160942856" y="1141.115495460728"/>
      <point x="611.89382769609256" y="1081.779285348606" type="curve" smooth="yes"/>
      <point x="597.66357511767842" y="976.90229473342572"/>
      <point x="519.41792388595138" y="900.19962339073004"/>
      <point x="447.01348140427967" y="829.82820952783845" type="curve" smooth="yes"/>
      <point x="334.54246290530006" y="720.51524033570433"/>
      <point x="291.23281475822034" y="602.82397430761716"/>
      <point x="278.61564584129161" y="447.87775678013077" type="curve"/>
    </contour>
    <contour>
      <point x="190.30928387880681" y="136.07234460537501" type="curve" smooth="yes"/>
      <point x="191.11016727510466" y="50.522991417499128"/>
      <point x="253.84741116781714" y="-15.365262435816319"/>
      <point x="340.55321559392002" y="-13.693947613375242" type="curve" smooth="yes"/>
      <point x="429.83514237719641" y="-11.972976236699258"/>
      <point x="491.27451601986837" y="59.803491094292681"/>
      <point x="490.54027186388464" y="147.15509462100746" type="curve" smooth="yes"/>
      <point x="489.82304163652628" y="232.4825840494303"/>
      <point x="428.33157274561302" y="299.56022672436507"/>
      <point x="341.30890779710666" y="297.95846063696428" type="curve" smooth="yes"/>
      <point x="251.26719925451937" y="296.30112509937203"/>
      <point x="189.48423701979164" y="224.20280837164819"/>
    </contour>
  </outline>
</glyph>
<glyph name="at" format="1">
  <advance width="1521.93"/>
  <unicode hex="0040"/>
  <outline>
    <contour>
      <point x="889.00865113968314" y="-366.71080326037787" type="curve"/>
      <point x="865.61640088957927" y="-209.30122611105082" type="line"/>
      <point x="777.19260448666193" y="-250.9714038078005"/>
      <point x="679.65077561196256" y="-278.02580402282473"/>
      <point x="581.28575909918516" y="-276.98617450707263" type="curve" smooth="yes"/>
      <point x="185.6190555299961" y="-272.80433427551588"/>
      <point x="189.51621147762322" y="166.81812591464609"/>
      <point x="241.60228858700719" y="457.08387534939573" type="curve" smooth="yes"/>
      <point x="302.41582163398948" y="795.98606812898925"/>
      <point x="510.42325693763718" y="1262.4140865934671"/>
      <point x="920.22769496960507" y="1252.3657058680255" type="curve" smooth="yes"/>
      <point x="1310.1582858519682" y="1242.8046307061779"/>
      <point x="1311.7659169540461" y="828.58873170233755"/>
      <point x="1265.2388877852136" y="535.5495313289631" type="curve" smooth="yes"/>
      <point x="1248.1479315899401" y="427.90629197865735"/>
      <point x="1195.0254977313152" y="131.2984200707939"/>
      <point x="1035.4940711937641" y="139.21000236071671" type="curve" smooth="yes"/>
      <point x="957.62845713245804" y="143.07156259729109"/>
      <point x="982.44669794068648" y="252.77246640891764"/>
      <point x="990.89617147015133" y="301.02733799640038" type="curve" smooth="yes"/>
      <point x="1118.3948544935929" y="882.65992081117997" type="line"/>
      <point x="1040.2685269670294" y="945.33956499697058"/>
      <point x="967.54921844028127" y="988.84952385931786"/>
      <point x="864.05075924814128" y="990.98717316958823" type="curve" smooth="yes"/>
      <point x="586.46083862904584" y="996.72049429321805"/>
      <point x="442.65662211592735" y="648.20786215106932"/>
      <point x="403.51592202188743" y="423.53426617657647" type="curve" smooth="yes"/>
      <point x="377.8467614416607" y="276.18936433910437"/>
      <point x="375.78030705390518" y="-15.963413554136324"/>
      <point x="589.9700248859325" y="-19.184422859930535" type="curve" smooth="yes"/>
      <point x="684.50546909844945" y="-20.60605760793792"/>
      <point x="750.78923473571706" y="43.704683914321308"/>
      <point x="805.6558423570774" y="112.92934320307673" type="curve"/>
      <point x="831.25010629026258" y="27.836282657010528"/>
      <point x="899.49198042359831" y="-19.466141025919143"/>
      <point x="988.01581789086276" y="-21.732167293946318" type="curve" smooth="yes"/>
      <point x="1277.7342996164766" y="-29.148358330241656"/>
      <point x="1395.7548272054646" y="309.66521888849786"/>
      <point x="1432.9869283753965" y="543.31949006355342" type="curve" smooth="yes"/>
      <point x="1494.9083558113996" y="931.9144267727055"/>
      <point x="1400.8868711823914" y="1407.4898415588721"/>
      <point x="923.58334881440032" y="1416.0156998032692" type="curve" smooth="yes"/>
      <point x="418.59592383446699" y="1425.0360631545009"/>
      <point x="127.56316464202865" y="892.80122557605807"/>
      <point x="54.397310648666647" y="457.63467689205032" type="curve" smooth="yes"/>
      <point x="-15.035048175858051" y="44.673735311306245"/>
      <point x="68.408192443521443" y="-447.18619854463935"/>
      <point x="577.47015809696791" y="-452.92701666976103" type="curve" smooth="yes"/>
      <point x="684.2466546464866" y="-454.13116172102531"/>
      <point x="801.55796435667639" y="-430.72215745029177"/>
    </contour>
    <contour>
      <point x="619.02190772701317" y="423.42037897679074" type="curve" smooth="yes"/>
      <point x="641.45359586422262" y="560.36765087940523"/>
      <point x="691.7815675122597" y="823.03085654109373"/>
      <point x="878.8808990808775" y="816.25390548397866" type="curve" smooth="yes"/>
      <point x="893.43849629108024" y="815.72661271935135"/>
      <point x="907.20842792053929" y="812.85474222702703"/>
      <point x="921.1957810950355" y="809.17965116549408" type="curve"/>
      <point x="800.37510245274905" y="314.64059205386678" type="line"/>
      <point x="785.27426069008038" y="266.42468088214815"/>
      <point x="735.45354123315849" y="156.31664946409052"/>
      <point x="670.24231912575897" y="158.36916338652037" type="curve" smooth="yes"/>
      <point x="570.05115437764664" y="161.52266601849496"/>
      <point x="610.39230329606823" y="370.73594536716587"/>
    </contour>
  </outline>
</glyph>
<glyph name="A" format="1">
  <advance width="1187.28"/>
  <unicode hex="0041"/>
  <outline>
    <contour>
      <point x="769.33206351636375" y="1600" type="move" name="top"/>
    </contour>
    <contour>
      <point x="495.06023633479629" y="7" type="move" name="bottom"/>
    </contour>
    <contour>
      <point x="1063.2407618901816" y="0" type="move" name="right"/>
    </contour>
    <contour>
      <point x="449.22588224297465" y="1454" type="move" name="tonos"/>
    </contour>
    <contour>
      <point x="980.79076189018178" y="0" type="move" name="ogonek"/>
    </contour>
    <contour>
      <point x="1340.6620635163636" y="1600" type="move" name="top_dd"/>
    </contour>
    <contour>
      <point x="993.88846203902153" y="-407" type="move" name="bottom_dd"/>
    </contour>
    <contour>
      <point x="1340.6620635163636" y="1600" type="move" name="top0315"/>
    </contour>
    <contour>
      <point x="-87.812375575208605" y="0.0" type="line"/>
      <point x="224.85036425338245" y="0.0" type="line"/>
      <point x="352.2740027351324" y="297.7339832120299" type="line"/>
      <point x="739.28057329518276" y="298.01814816715631" type="line"/>
      <point x="763.6074105748603" y="0.0" type="line"/>
      <point x="1060.4744180675818" y="0.0" type="line"/>
      <point x="868.64481168591067" y="1456.0850891750667" type="line"/>
      <point x="606.17834222812121" y="1455.7479806597896" type="line"/>
    </contour>
    <contour>
      <point x="456.51011007573072" y="543.21365090329596" type="line"/>
      <point x="678.13404072175661" y="1059.8194321333092" type="line"/>
      <point x="719.32329694552129" y="542.92569148024029" type="line"/>
    </contour>
  </outline>
</glyph>
<glyph name="B" format="1">
  <advance width="1115.5"/>
  <unicode hex="0042"/>
  <outline>
    <contour>
      <point x="688.9554482785602" y="1612" type="move" name="top"/>
    </contour>
    <contour>
      <point x="413.12858252534534" y="10" type="move" name="bottom"/>
    </contour>
    <contour>
      <point x="1268.8820635163638" y="1600" type="move" name="top_dd"/>
    </contour>
    <contour>
      <point x="922.10846203902156" y="-407" type="move" name="bottom_dd"/>
    </contour>
    <contour>
      <point x="1270.95544827856" y="1612" type="move" name="top0315"/>
    </contour>
    <contour>
      <point x="991.0950545995172" y="436.34556815076974" type="curve" smooth="yes"/>
      <point x="1000.275260009483" y="555.87768369020023"/>
      <point x="971.34224117042368" y="693.05474200131277"/>
      <point x="849.56929887581373" y="743.54956386222875" type="curve"/>
      <point x="985.31297948272595" y="807.62311798518726"/>
      <point x="1068.9884199142452" y="912.54500319323222"/>
      <point x="1080.8852139851556" y="1065.2421140544132" type="curve" smooth="yes"/>
      <point x="1101.1855194448156" y="1325.7995360635141"/>
      <point x="927.35407732462772" y="1449.4212092131067"/>
      <point x="683.27065677207725" y="1454.9721397643227" type="curve" smooth="yes"/>
      <point x="261.39442156688085" y="1455.9671133834413" type="line"/>
      <point x="8.7758771974593373" y="0.0" type="line"/>
      <point x="492.48974607763796" y="0.0" type="line" smooth="yes"/>
      <point x="771.81617758455832" y="-3.6540711221628981"/>
      <point x="969.17351297701225" y="150.91314817690494"/>
    </contour>
    <contour>
      <point x="506.79985663062553" y="1211.1634542127676" type="line"/>
      <point x="670.61928719561752" y="1210.051048200437" type="line" smooth="yes"/>
      <point x="779.44771030556046" y="1205.6158101912329"/>
      <point x="802.50701736969233" y="1133.5102025379133"/>
      <point x="788.80526266000561" y="1033.6117589505109" type="curve" smooth="yes"/>
      <point x="772.71968544864444" y="916.33304818188776"/>
      <point x="698.62815776635466" y="847.25072526316819"/>
      <point x="579.76621835319168" y="845.22470586726024" type="curve" smooth="yes"/>
      <point x="443.30880582471298" y="847.07624895249842" type="line"/>
    </contour>
    <contour>
      <point x="707.32993619478384" y="439.21364107034458" type="curve" smooth="yes"/>
      <point x="691.40942083675066" y="326.77561100853143"/>
      <point x="624.54091993571797" y="245.1781398300264"/>
      <point x="506.16239628850644" y="242.30270988728591" type="curve" smooth="yes"/>
      <point x="338.86035922845525" y="244.01904965856332" type="line"/>
      <point x="406.78736370915027" y="634.26451824070693" type="line"/>
      <point x="611.98507391089606" y="632.41821572368679" type="line"/>
      <point x="716.028170839474" y="625.95829573314904"/>
      <point x="719.16090959427561" y="522.76943765335852"/>
    </contour>
  </outline>
</glyph>
<glyph name="C" format="1">
  <advance width="1132.96"/>
  <unicode hex="0043"/>
  <outline>
    <contour>
      <point x="756.16432002449471" y="1608" type="move" name="top"/>
    </contour>
    <contour>
      <point x="474.90241569963268" y="-3" type="move" name="bottom"/>
    </contour>
    <contour>
      <point x="1286.3420635163639" y="1600" type="move" name="top_dd"/>
    </contour>
    <contour>
      <point x="939.5684620390216" y="-407" type="move" name="bottom_dd"/>
    </contour>
    <contour>
      <point x="1287.7243200244948" y="1608" type="move" name="top0315"/>
    </contour>
    <contour>
      <point x="760.88322685748585" y="485.09795083776686" type="line"/>
      <point x="736.52643750089464" y="334.87527540147926"/>
      <point x="688.32493311765518" y="214.73628194684281"/>
      <point x="516.25932455629049" y="222.24439273207639" type="curve" smooth="yes"/>
      <point x="320.25714961572646" y="230.79697948026239"/>
      <point x="362.57062357910422" y="466.16177166038437"/>
      <point x="379.56479926562849" y="602.94846048591216" type="curve" smooth="yes"/>
      <point x="414.57121517201278" y="853.48447649771094" type="line" smooth="yes"/>
      <point x="437.34425272092687" y="1021.3181601152137"/>
      <point x="484.30108132095404" y="1242.3940599012192"/>
      <point x="696.14170800870977" y="1234.4595765311194" type="curve" smooth="yes"/>
      <point x="859.88172384673567" y="1228.3266998822901"/>
      <point x="859.33088087391877" y="1097.7097812605234"/>
      <point x="852.37286494539364" y="961.9255241935391" type="curve"/>
      <point x="1140.3040083923474" y="961.025678442453" type="line"/>
      <point x="1139.8073178486745" y="1244.9177246675663"/>
      <point x="1030.7729482748423" y="1470.509842083447"/>
      <point x="719.08017204028658" y="1477.1936815113922" type="curve" smooth="yes"/>
      <point x="353.34363643392948" y="1485.0364178957809"/>
      <point x="176.82172431272846" y="1174.0922131140537"/>
      <point x="128.88325835604383" y="850.80259567738096" type="curve" smooth="yes"/>
      <point x="91.208073792840381" y="603.666818701068" type="line" smooth="yes"/>
      <point x="51.748940360543109" y="301.33814126007582"/>
      <point x="141.36852613479601" y="-12.596498205453596"/>
      <point x="493.82041357826699" y="-20.327492575859072" type="curve" smooth="yes"/>
      <point x="810.42450073345526" y="-27.272169289604015"/>
      <point x="1006.5945877734599" y="183.52391635557933"/>
      <point x="1038.5472499108475" y="488.10949263075082" type="curve"/>
    </contour>
  </outline>
</glyph>
<glyph name="D" format="1">
  <advance width="1122.29"/>
  <unicode hex="0044"/>
  <outline>
    <contour>
      <point x="609.80040970691289" y="1603" type="move" name="top"/>
    </contour>
    <contour>
      <point x="300.67888619361094" y="729" type="move" name="cross"/>
    </contour>
    <contour>
      <point x="335.52858252534537" y="10" type="move" name="bottom"/>
    </contour>
    <contour>
      <point x="1275.6720635163638" y="1600" type="move" name="top_dd"/>
    </contour>
    <contour>
      <point x="928.89846203902152" y="-407" type="move" name="bottom_dd"/>
    </contour>
    <contour>
      <point x="1276.1904097069128" y="1603" type="move" name="top0315"/>
    </contour>
    <contour>
      <point x="8.7767489240927858" y="0.0" type="line"/>
      <point x="395.45560203203064" y="0.0" type="line" smooth="yes"/>
      <point x="766.49362800643746" y="-1.7183906382311969"/>
      <point x="984.61037902103658" y="267.49983571050035"/>
      <point x="1036.7234596304927" y="615.22606679575711" type="curve" smooth="yes"/>
      <point x="1070.8500141520203" y="840.32142245356533" type="line" smooth="yes"/>
      <point x="1110.7568475539565" y="1160.2082454382232"/>
      <point x="969.08858744579334" y="1445.823315452003"/>
      <point x="620.27091754696346" y="1454.8481964491425" type="curve" smooth="yes"/>
      <point x="261.40079554819715" y="1456.011312510931" type="line"/>
    </contour>
    <contour>
      <point x="607.60245651330047" y="1210.0827803341406" type="line" smooth="yes"/>
      <point x="821.0462580001614" y="1202.9773814443981"/>
      <point x="805.49243562085758" y="1010.2973776933026"/>
      <point x="783.802504465364" y="842.91685690737347" type="curve" smooth="yes"/>
      <point x="751.03138481693861" y="614.6339832387406" type="line" smooth="yes"/>
      <point x="721.16694327466348" y="402.8063877059605"/>
      <point x="645.44960770065973" y="240.61564807608173"/>
      <point x="408.76769448773723" y="242.43671285479746" type="curve" smooth="yes"/>
      <point x="339.06334003094457" y="243.79096631424113" type="line"/>
      <point x="506.59847155285888" y="1211.329752310746" type="line"/>
    </contour>
  </outline>
</glyph>
<glyph name="E" format="1">
  <advance width="974.85"/>
  <unicode hex="0045"/>
  <outline>
    <contour>
      <point x="712.62040970691282" y="1603" type="move" name="top"/>
    </contour>
    <contour>
      <point x="440.28858252534542" y="10" type="move" name="bottom"/>
    </contour>
    <contour>
      <point x="95.694228433523747" y="1457" type="move" name="tonos"/>
    </contour>
    <contour>
      <point x="680.09076189018174" y="0" type="move" name="ogonek"/>
    </contour>
    <contour>
      <point x="1128.2320635163637" y="1600" type="move" name="top_dd"/>
    </contour>
    <contour>
      <point x="781.45846203902158" y="-407" type="move" name="bottom_dd"/>
    </contour>
    <contour>
      <point x="1128.7504097069127" y="1603" type="move" name="top0315"/>
    </contour>
    <contour>
      <point x="8.7731897562316306" y="0.0" type="line"/>
      <point x="821.30325895497481" y="0.0" type="line"/>
      <point x="864.19231055213675" y="243.90723012889896" type="line"/>
      <point x="338.88752010962372" y="244.06475358630362" type="line"/>
      <point x="406.19573504916571" y="629.92014520961857" type="line"/>
      <point x="848.97860411391355" y="630.07121238254058" type="line"/>
      <point x="890.63176877607725" y="866.91690261444796" type="line"/>
      <point x="446.79791132000651" y="867.06577862078495" type="line"/>
      <point x="506.88501835115801" y="1210.9184988927461" type="line"/>
      <point x="1029.170332472801" y="1211.0779384217835" type="line"/>
      <point x="1072.232973965884" y="1455.9093379324108" type="line"/>
      <point x="261.38418412367184" y="1455.9351967975244" type="line"/>
    </contour>
  </outline>
</glyph>
<glyph name="F" format="1">
  <advance width="945.75"/>
  <unicode hex="0046"/>
  <outline>
    <contour>
      <point x="237.74372713563997" y="303" type="move" name="cross"/>
    </contour>
    <contour>
      <point x="714.17544827856" y="1612" type="move" name="top"/>
    </contour>
    <contour>
      <point x="350.07858252534538" y="10" type="move" name="bottom"/>
    </contour>
    <contour>
      <point x="1099.1320635163638" y="1600" type="move" name="top_dd"/>
    </contour>
    <contour>
      <point x="752.35846203902167" y="-407" type="move" name="bottom_dd"/>
    </contour>
    <contour>
      <point x="1101.2054482785602" y="1612" type="move" name="top0315"/>
    </contour>
    <contour>
      <point x="8.7447254637520189" y="0.0" type="line"/>
      <point x="296.6228819794901" y="0.0" type="line"/>
      <point x="399.93008682067716" y="593.92475496358986" type="line"/>
      <point x="841.76451367422078" y="594.07527030469953" type="line"/>
      <point x="884.64913504200479" y="837.91272496802219" type="line"/>
      <point x="441.78222318549876" y="838.06523027920821" type="line"/>
      <point x="506.87390966007069" y="1210.9203543741692" type="line"/>
      <point x="1002.0107608678979" y="1211.0782595208868" type="line"/>
      <point x="1045.072130499108" y="1455.9089315650047" type="line"/>
      <point x="261.38750051281596" y="1455.937605793252" type="line"/>
    </contour>
  </outline>
</glyph>
<glyph name="G" format="1">
  <advance width="1163.03"/>
  <unicode hex="0047"/>
  <outline>
    <contour>
      <point x="759.07432002449468" y="1608" type="move" name="top"/>
    </contour>
    <contour>
      <point x="506.91241569963267" y="-3" type="move" name="bottom"/>
    </contour>
    <contour>
      <point x="1328.0520635163639" y="1600" type="move" name="top_dd"/>
    </contour>
    <contour>
      <point x="981.27846203902163" y="-407" type="move" name="bottom_dd"/>
    </contour>
    <contour>
      <point x="1329.4343200244948" y="1608" type="move" name="top0315"/>
    </contour>
    <contour>
      <point x="1103.3699716124231" y="765.83875958142482" type="line"/>
      <point x="616.3171458877066" y="765.91940118771277" type="line"/>
      <point x="577.28301722953927" y="544.07308895586959" type="line"/>
      <point x="778.72344511087567" y="543.95391585230402" type="line"/>
      <point x="727.32014260978383" y="276.57953695600793" type="line"/>
      <point x="669.88447816313771" y="246.74946641367967"/>
      <point x="619.02600659749953" y="224.52568951369346"/>
      <point x="552.26705649685562" y="225.31469040304046" type="curve" smooth="yes"/>
      <point x="347.37302809353446" y="227.73626189852371"/>
      <point x="364.96709291060813" y="454.02805177240532"/>
      <point x="383.9271152576876" y="603.04858168474732" type="curve" smooth="yes"/>
      <point x="419.57667978168877" y="853.48522365020915" type="line" smooth="yes"/>
      <point x="443.00328719173751" y="1022.8986498255466"/>
      <point x="499.56758452098939" y="1243.0090562562839"/>
      <point x="711.4687854254862" y="1234.1703602534694" type="curve" smooth="yes"/>
      <point x="854.90351682161031" y="1228.1874966281373"/>
      <point x="867.91842397060157" y="1114.6863835632425"/>
      <point x="868.33289234065262" y="992.4736939069071" type="curve"/>
      <point x="1146.5615164794374" y="991.95498851512707" type="line"/>
      <point x="1143.6420602176338" y="1276.4776404378877"/>
      <point x="1030.8921467533339" y="1470.9274709348524"/>
      <point x="725.9252347872474" y="1477.1778968336505" type="curve" smooth="yes"/>
      <point x="354.17145274074522" y="1484.7971478937066"/>
      <point x="180.96602337362901" y="1181.3883804375619"/>
      <point x="132.62377228862823" y="850.82662305343013" type="curve" smooth="yes"/>
      <point x="95.30185945444633" y="603.66252247010607" type="line" smooth="yes"/>
      <point x="55.257240486096244" y="290.19562467223579"/>
      <point x="163.62791324646957" y="-14.846210096287876"/>
      <point x="520.8578277710792" y="-19.751616285433794" type="curve" smooth="yes"/>
      <point x="694.4614962739488" y="-22.135505414835766"/>
      <point x="891.27531362873401" y="31.354672381540894"/>
      <point x="1011.07561326473" y="165.10104311538262" type="curve"/>
    </contour>
  </outline>
</glyph>
<glyph name="H" format="1">
  <advance width="1219.29"/>
  <unicode hex="0048"/>
  <outline>
    <contour>
      <point x="782.46040970691286" y="1603" type="move" name="top"/>
    </contour>
    <contour>
      <point x="999.22076189018162" y="0" type="move" name="right"/>
    </contour>
    <contour>
      <point x="96.943100179458284" y="1453" type="move" name="tonos"/>
    </contour>
    <contour>
      <point x="510.12858252534534" y="10" type="move" name="bottom"/>
    </contour>
    <contour>
      <point x="1372.6720635163638" y="1600" type="move" name="top_dd"/>
    </contour>
    <contour>
      <point x="1025.8984620390215" y="-407" type="move" name="bottom_dd"/>
    </contour>
    <contour>
      <point x="1373.1904097069128" y="1603" type="move" name="top0315"/>
    </contour>
    <contour>
      <point x="714.89786212866011" y="0.0" type="line"/>
      <point x="1000.8498295909483" y="0.0" type="line"/>
      <point x="1253.5209442413761" y="1455.9347737024984" type="line"/>
      <point x="967.58083188606111" y="1455.9443282410527" type="line"/>
      <point x="865.13855612252632" y="867.07378517247764" type="line"/>
      <point x="446.85151986930816" y="867.05878201663199" type="line"/>
      <point x="549.30520998527004" y="1455.9306679674946" type="line"/>
      <point x="261.41472074933" y="1455.9484396152477" type="line"/>
      <point x="8.7436132142181009" y="0.0" type="line"/>
      <point x="296.62166381345378" y="0.0" type="line"/>
      <point x="404.95841041044594" y="622.92369228340067" type="line"/>
      <point x="823.24480050364571" y="622.93868023016762" type="line"/>
    </contour>
  </outline>
</glyph>
<glyph name="J" format="1">
  <advance width="974.85"/>
  <unicode hex="004A"/>
  <outline>
    <contour>
      <point x="881.85206351636373" y="1600" type="move" name="top"/>
    </contour>
    <contour>
      <point x="331.1029412550181" y="-10" type="move" name="bottom"/>
    </contour>
    <contour>
      <point x="1128.2320635163637" y="1600" type="move" name="top_dd"/>
    </contour>
    <contour>
      <point x="781.45846203902158" y="-407" type="move" name="bottom_dd"/>
    </contour>
    <contour>
      <point x="1128.2320635163637" y="1600" type="move" name="top0315"/>
    </contour>
    <contour>
      <point x="555.43810158788983" y="448.43218994874007" type="line" smooth="yes"/>
      <point x="542.95086469542059" y="361.28144930068606"/>
      <point x="508.5013230591664" y="219.78784310182189"/>
      <point x="394.79091097312937" y="223.26238966109676" type="curve" smooth="yes"/>
      <point x="289.13472088194823" y="226.49083061925316"/>
      <point x="296.94981865115381" y="355.92317516566084"/>
      <point x="301.89036441216922" y="430.9779208878229" type="curve"/>
      <point x="11.559623861452451" y="431.61064326779643" type="line"/>
      <point x="-1.3160865603265037" y="186.62610205807081"/>
      <point x="101.52141007193489" y="-14.956651431322474"/>
      <point x="368.33947264026381" y="-20.557423436113542" type="curve" smooth="yes"/>
      <point x="642.43002064222469" y="-26.310852020559917"/>
      <point x="807.22822375640146" y="197.98197489035681"/>
      <point x="841.6499612889105" y="449.12493913753087" type="curve" smooth="yes"/>
      <point x="1012.9746876060365" y="1455.9327795063207" type="line"/>
      <point x="726.0628218455804" y="1455.9456741248546" type="line"/>
    </contour>
  </outline>
</glyph>
<glyph name="K" format="1">
  <advance width="1099.01"/>
  <unicode hex="004B"/>
  <outline>
    <contour>
      <point x="461.88324982819631" y="62" type="move" name="bottom"/>
    </contour>
    <contour>
      <point x="902.22076189018173" y="0" type="move" name="right"/>
    </contour>
    <contour>
      <point x="332.23157176124369" y="1226" type="move" name="cross"/>
    </contour>
    <contour>
      <point x="677.18206351636377" y="1600" type="move" name="top"/>
    </contour>
    <contour>
      <point x="1252.3920635163636" y="1600" type="move" name="top_dd"/>
    </contour>
    <contour>
      <point x="905.61846203902155" y="-407" type="move" name="bottom_dd"/>
    </contour>
    <contour>
      <point x="1252.3920635163636" y="1600" type="move" name="top0315"/>
    </contour>
    <contour>
      <point x="672.11545632092498" y="0.0" type="line"/>
      <point x="997.95359067431082" y="0.0" type="line"/>
      <point x="732.41676326218669" y="802.65598541810357" type="line"/>
      <point x="1258.6398742719309" y="1455.5852354434116" type="line"/>
      <point x="893.42160132618744" y="1455.6777526542025" type="line"/>
      <point x="556.82996094928933" y="991.21737649150964" type="line"/>
      <point x="441.54718756216403" y="839.34239902199079" type="line"/>
      <point x="549.28622182153993" y="1455.927004249872" type="line"/>
      <point x="261.42005466995073" y="1455.946569323128" type="line"/>
      <point x="8.7469337751592917" y="0.0" type="line"/>
      <point x="296.60858465014934" y="0.0" type="line"/>
      <point x="366.99265868947765" y="406.52959451204435" type="line"/>
      <point x="513.51438574637609" y="559.30134060249395" type="line"/>
    </contour>
  </outline>
</glyph>
<glyph name="L" format="1">
  <advance width="950.6"/>
  <unicode hex="004C"/>
  <outline>
    <contour>
      <point x="434.68206351636377" y="1600" type="move" name="top"/>
    </contour>
    <contour>
      <point x="403.4285825253454" y="10" type="move" name="bottom"/>
    </contour>
    <contour>
      <point x="717.29144637000741" y="1456" type="move" name="caron"/>
    </contour>
    <contour>
      <point x="547.91378492634544" y="835" type="move" name="dot"/>
    </contour>
    <contour>
      <point x="1103.9820635163637" y="1600" type="move" name="top_dd"/>
    </contour>
    <contour>
      <point x="757.20846203902158" y="-407" type="move" name="bottom_dd"/>
    </contour>
    <contour>
      <point x="1103.9820635163637" y="1600" type="move" name="top0315"/>
    </contour>
    <contour>
      <point x="838.96566019214526" y="243.90752697661674" type="line"/>
      <point x="338.93026939865388" y="244.05446346498158" type="line"/>
      <point x="549.29649418115196" y="1455.9316204670085" type="line"/>
      <point x="261.41731421475356" y="1455.9451659712608" type="line"/>
      <point x="8.7786188209881573" y="0.0" type="line"/>
      <point x="796.07839509461883" y="0.0" type="line"/>
    </contour>
  </outline>
</glyph>
<glyph name="M" format="1">
  <advance width="1506.4099999999999"/>
  <unicode hex="004D"/>
  <outline>
    <contour>
      <point x="919.68206351636377" y="1600" type="move" name="top"/>
    </contour>
    <contour>
      <point x="1281.4907618901816" y="0" type="move" name="right"/>
    </contour>
    <contour>
      <point x="649.8085825253454" y="10" type="move" name="bottom"/>
    </contour>
    <contour>
      <point x="1659.7920635163637" y="1600" type="move" name="top_dd"/>
    </contour>
    <contour>
      <point x="1313.0184620390216" y="-407" type="move" name="bottom_dd"/>
    </contour>
    <contour>
      <point x="1659.7920635163637" y="1600" type="move" name="top0315"/>
    </contour>
    <contour>
      <point x="715.46607260849942" y="408.65302639218896" type="line"/>
      <point x="631.04863433159994" y="1456.0422339196232" type="line"/>
      <point x="261.39998078155884" y="1455.9438347074019" type="line"/>
      <point x="8.749845641052076" y="0.0" type="line"/>
      <point x="296.60399848620312" y="0.0" type="line"/>
      <point x="362.70451517454063" y="380.06006983500401" type="line"/>
      <point x="445.43825780558655" y="1009.8923672451572" type="line"/>
      <point x="554.35628650867193" y="0.0" type="line"/>
      <point x="750.79578750534085" y="0.0" type="line"/>
      <point x="1194.5614530321241" y="974.0397120598268" type="line"/>
      <point x="1070.842488233664" y="407.55250374408359" type="line"/>
      <point x="1000.0730891061526" y="0.0" type="line"/>
      <point x="1287.9667848746853" y="0.0" type="line"/>
      <point x="1540.6179309750889" y="1455.9353426818398" type="line"/>
      <point x="1162.7020905404715" y="1455.7953472532913" type="line"/>
    </contour>
  </outline>
</glyph>
<glyph name="N" format="1">
  <advance width="1216.3799999999999"/>
  <unicode hex="004E"/>
  <outline>
    <contour>
      <point x="783.88206351636381" y="1600" type="move" name="top"/>
    </contour>
    <contour>
      <point x="506.00910808073081" y="3" type="move" name="bottom"/>
    </contour>
    <contour>
      <point x="996.31076189018177" y="0" type="move" name="right"/>
    </contour>
    <contour>
      <point x="1369.7620635163639" y="1600" type="move" name="top_dd"/>
    </contour>
    <contour>
      <point x="1022.9884620390217" y="-407" type="move" name="bottom_dd"/>
    </contour>
    <contour>
      <point x="1369.7620635163639" y="1600" type="move" name="top0315"/>
    </contour>
    <contour>
      <point x="1251.5755359126747" y="1455.9301402182896" type="line"/>
      <point x="964.65245920786083" y="1455.9417308199065" type="line"/>
      <point x="796.52357708059662" y="489.66673916625808" type="line"/>
      <point x="542.90164308835529" y="1456.0385163879575" type="line"/>
      <point x="261.39730334914719" y="1455.9348248046508" type="line"/>
      <point x="8.7487749850758547" y="0.0" type="line"/>
      <point x="296.63914906975964" y="0.0" type="line"/>
      <point x="464.5926627627473" y="965.07312141714817" type="line"/>
      <point x="718.49614729969574" y="0.0" type="line"/>
      <point x="998.91980653212499" y="0.0" type="line"/>
    </contour>
  </outline>
</glyph>
<glyph name="O" format="1">
  <advance width="1198.92"/>
  <unicode hex="004F"/>
  <outline>
    <contour>
      <point x="772.24206351636383" y="1600" type="move" name="top"/>
    </contour>
    <contour>
      <point x="499.67076189018178" y="0" type="move" name="bottom"/>
    </contour>
    <contour>
      <point x="256.19588224297468" y="1454" type="move" name="tonos"/>
    </contour>
    <contour>
      <point x="1352.3020635163639" y="1600" type="move" name="top_dd"/>
    </contour>
    <contour>
      <point x="1005.5284620390216" y="-407" type="move" name="bottom_dd"/>
    </contour>
    <contour>
      <point x="1352.3020635163639" y="1600" type="move" name="top0315"/>
    </contour>
    <contour>
      <point x="1147.4351667581122" y="840.33170068028824" type="line" smooth="yes"/>
      <point x="1186.3061766399699" y="1145.4421309399738"/>
      <point x="1085.999809078869" y="1468.2699580847632"/>
      <point x="731.85895606134648" y="1476.3453166467746" type="curve" smooth="yes"/>
      <point x="361.2963758409324" y="1484.7951345072288"/>
      <point x="177.36533528710802" y="1167.7763633561465"/>
      <point x="128.90946501013235" y="839.79062715840951" type="curve" smooth="yes"/>
      <point x="92.309497486861957" y="597.67054791606085" type="line" smooth="yes"/>
      <point x="53.46154843246137" y="291.67636807590367"/>
      <point x="163.83834092459824" y="-12.539308410710754"/>
      <point x="512.04222550780173" y="-20.181852650978929" type="curve" smooth="yes"/>
      <point x="877.34558294630676" y="-28.19970424296816"/>
      <point x="1061.9853505448953" y="272.01443624344728"/>
      <point x="1110.7203844348567" y="598.72138497390847" type="curve" smooth="yes"/>
    </contour>
    <contour>
      <point x="825.13109295809909" y="597.51283457273257" type="line" smooth="yes"/>
      <point x="802.0274869332103" y="432.86411992448564"/>
      <point x="740.83668381357461" y="214.60534497687087"/>
      <point x="534.7798662535406" y="223.78907531048293" type="curve" smooth="yes"/>
      <point x="344.68483070311817" y="232.26140621865514"/>
      <point x="363.27219160818822" y="460.17972512376764"/>
      <point x="380.13028891179539" y="596.83512712735671" type="curve" smooth="yes"/>
      <point x="415.16934012026377" y="842.449875407685" type="line" smooth="yes"/>
      <point x="438.75615515221301" y="1009.4136643128161"/>
      <point x="498.65003114402117" y="1240.9849075565492"/>
      <point x="710.29445176172976" y="1231.3669614158637" type="curve" smooth="yes"/>
      <point x="902.9742631764716" y="1222.6108409229364"/>
      <point x="877.20143167155811" y="979.04085726194899"/>
      <point x="860.28310764646471" y="844.18588563165792" type="curve" smooth="yes"/>
    </contour>
  </outline>
</glyph>
<glyph name="P" format="1">
  <advance width="1130.05"/>
  <unicode hex="0050"/>
  <outline>
    <contour>
      <point x="137.85588224297464" y="1454" type="move" name="tonos"/>
    </contour>
    <contour>
      <point x="688.9554482785602" y="1612" type="move" name="top"/>
    </contour>
    <contour>
      <point x="349.10858252534541" y="10" type="move" name="bottom"/>
    </contour>
    <contour>
      <point x="1283.4320635163635" y="1600" type="move" name="top_dd"/>
    </contour>
    <contour>
      <point x="936.65846203902152" y="-407" type="move" name="bottom_dd"/>
    </contour>
    <contour>
      <point x="1285.5054482785599" y="1612" type="move" name="top0315"/>
    </contour>
    <contour>
      <point x="595.77963812902055" y="510.75016072934022" type="line" smooth="yes"/>
      <point x="882.8618589708168" y="509.83405763044084"/>
      <point x="1094.4135703532302" y="692.90542819771349"/>
      <point x="1119.5221748749441" y="982.11230094459199" type="curve" smooth="yes"/>
      <point x="1141.9521885603053" y="1240.4665279986339"/>
      <point x="997.96088936178921" y="1447.6069368549174"/>
      <point x="728.80258728876197" y="1454.9217213022973" type="curve" smooth="yes"/>
      <point x="261.39311642167684" y="1455.9665799060394" type="line"/>
      <point x="8.7486641291360314" y="0.0" type="line"/>
      <point x="296.61529064736675" y="0.0" type="line"/>
      <point x="385.75229504668852" y="511.9887919587631" type="line"/>
    </contour>
    <contour>
      <point x="506.76698990864838" y="1211.1632985000565" type="line"/>
      <point x="715.81649547265476" y="1209.4552037690019" type="line"/>
      <point x="832.14933487952965" y="1201.5651526150095"/>
      <point x="842.28559881398678" y="1072.2875618391499"/>
      <point x="830.26280216234306" y="979.81078503506944" type="curve" smooth="yes"/>
      <point x="814.23685568939436" y="856.542637199399"/>
      <point x="743.05362366840245" y="757.03993422911822"/>
      <point x="610.87623466182379" y="755.07907440691099" type="curve" smooth="yes"/>
      <point x="427.80807770441982" y="757.10040767000373" type="line"/>
    </contour>
  </outline>
</glyph>
<glyph name="Q" format="1">
  <advance width="1198.92"/>
  <unicode hex="0051"/>
  <outline>
    <contour>
      <point x="762.54206351636378" y="1600" type="move" name="top"/>
    </contour>
    <contour>
      <point x="482.42294125501803" y="-10" type="move" name="bottom"/>
    </contour>
    <contour>
      <point x="1352.3020635163639" y="1600" type="move" name="top_dd"/>
    </contour>
    <contour>
      <point x="1005.5284620390216" y="-407" type="move" name="bottom_dd"/>
    </contour>
    <contour>
      <point x="1352.3020635163639" y="1600" type="move" name="top0315"/>
    </contour>
    <contour>
      <point x="992.24175352356838" y="-101.88922499018211" type="line"/>
      <point x="829.20924724866677" y="86.42509581759677" type="line"/>
      <point x="1007.4372574207778" y="211.8897436486393"/>
      <point x="1079.619594608861" y="406.16959960005488"/>
      <point x="1112.0142134429939" y="615.28156893589903" type="curve" smooth="yes"/>
      <point x="1146.8143310171999" y="840.30367963632091" type="line" smooth="yes"/>
      <point x="1186.3792900362891" y="1146.2943268528718"/>
      <point x="1084.682271745547" y="1468.6531429520026"/>
      <point x="729.94599373744245" y="1476.4818643323345" type="curve" smooth="yes"/>
      <point x="359.13883896454308" y="1484.6652559968438"/>
      <point x="175.74773760511934" y="1167.9688609141174"/>
      <point x="127.18325521489503" y="839.77528357006645" type="curve" smooth="yes"/>
      <point x="93.133658530595554" y="614.68630470398773" type="line" smooth="yes"/>
      <point x="54.565807321747776" y="311.80350230240401"/>
      <point x="154.62298725259876" y="-12.273795198237266"/>
      <point x="507.12403370283585" y="-19.153890406038268" type="curve" smooth="yes"/>
      <point x="531.65545318647094" y="-19.632693244581727"/>
      <point x="556.03800663141487" y="-18.15869155704161"/>
      <point x="580.46525793371995" y="-16.126221764949527" type="curve"/>
      <point x="794.97776938572702" y="-261.17472107889239" type="line"/>
    </contour>
    <contour>
      <point x="826.8503867368064" y="614.54713224763225" type="line" smooth="yes"/>
      <point x="803.57699471111198" y="448.86576545192872"/>
      <point x="742.92374653145305" y="214.17034811047347"/>
      <point x="532.08201527845301" y="223.76699291838204" type="curve" smooth="yes"/>
      <point x="338.6013023058224" y="232.57343587701632"/>
      <point x="363.79459954844322" y="478.7988018539296"/>
      <point x="380.69820458890302" y="613.9350690985458" type="curve" smooth="yes"/>
      <point x="413.29343715256653" y="842.44335751762083" type="line" smooth="yes"/>
      <point x="436.74028966840007" y="1009.1791766458568"/>
      <point x="497.24727120484454" y="1240.9813485794191"/>
      <point x="708.50441504678577" y="1231.3892123314984" type="curve" smooth="yes"/>
      <point x="901.44932055658023" y="1222.6285437532238"/>
      <point x="877.00560206092143" y="979.54358994052336"/>
      <point x="859.84675894284067" y="844.0995015996856" type="curve" smooth="yes"/>
    </contour>
  </outline>
</glyph>
<glyph name="R" format="1">
  <advance width="1099.98"/>
  <unicode hex="0052"/>
  <outline>
    <contour>
      <point x="678.1520635163638" y="1600" type="move" name="top"/>
    </contour>
    <contour>
      <point x="417.97858252534536" y="10" type="move" name="bottom"/>
    </contour>
    <contour>
      <point x="1253.3620635163638" y="1600" type="move" name="top_dd"/>
    </contour>
    <contour>
      <point x="906.58846203902158" y="-407" type="move" name="bottom_dd"/>
    </contour>
    <contour>
      <point x="1253.3620635163638" y="1600" type="move" name="top0315"/>
    </contour>
    <contour>
      <point x="655.53866165902673" y="0.0" type="line"/>
      <point x="963.58317045894682" y="0.0" type="line"/>
      <point x="964.06589839240814" y="15.550363405201951" type="line"/>
      <point x="816.98287417820063" y="609.31493768765574" type="line"/>
      <point x="989.46852082226064" y="690.46841655259118"/>
      <point x="1073.2081236218573" y="835.91465905674545"/>
      <point x="1088.9261810114176" y="1024.1168541814109" type="curve" smooth="yes"/>
      <point x="1110.7505179880268" y="1285.4333785037054"/>
      <point x="963.68097715163231" y="1448.3520297476769"/>
      <point x="702.48447048113633" y="1454.865579195467" type="curve" smooth="yes"/>
      <point x="262.37834841926366" y="1456.0362919126012" type="line"/>
      <point x="9.7185757316899952" y="0.0" type="line"/>
      <point x="297.59104736408079" y="0.0" type="line"/>
      <point x="390.21347671896228" y="531.91466521016775" type="line"/>
      <point x="535.91257366742957" y="532.06259663382718" type="line"/>
    </contour>
    <contour>
      <point x="507.69996057915171" y="1211.228845458573" type="line"/>
      <point x="689.79509155402309" y="1209.7250250252266" type="line" smooth="yes"/>
      <point x="804.0027587352032" y="1203.5458456501569"/>
      <point x="812.5227348813122" y="1092.7910139964997"/>
      <point x="800.23625940141346" y="999.71458817315965" type="curve" smooth="yes"/>
      <point x="784.14510570008963" y="877.81575100512532"/>
      <point x="713.01491870825316" y="776.68475549882351"/>
      <point x="581.82764123499499" y="774.80107180075959" type="curve" smooth="yes"/>
      <point x="432.25966165412137" y="777.15102968312601" type="line"/>
    </contour>
  </outline>
</glyph>
<glyph name="S" format="1">
  <advance width="1072.82"/>
  <unicode hex="0053"/>
  <outline>
    <contour>
      <point x="723.74206351636383" y="1600" type="move" name="top"/>
    </contour>
    <contour>
      <point x="448.2607618901817" y="0" type="move" name="bottom"/>
    </contour>
    <contour>
      <point x="1226.202063516364" y="1600" type="move" name="top_dd"/>
    </contour>
    <contour>
      <point x="879.42846203902172" y="-407" type="move" name="bottom_dd"/>
    </contour>
    <contour>
      <point x="1226.202063516364" y="1600" type="move" name="top0315"/>
    </contour>
    <contour>
      <point x="676.03878556904533" y="390.59174080812994" type="curve" smooth="yes"/>
      <point x="662.12971147114706" y="291.17800373355226"/>
      <point x="600.28907737704594" y="220.6707190070554"/>
      <point x="495.78182242860498" y="220.26296356233362" type="curve" smooth="yes"/>
      <point x="347.04364894555931" y="219.68263255942281"/>
      <point x="323.53918783475439" y="333.85384242192532"/>
      <point x="331.98703082206544" y="460.11616394591397" type="curve"/>
      <point x="43.790686619853162" y="460.68934656653829" type="line"/>
      <point x="31.596666357282064" y="188.85473416785186"/>
      <point x="192.23479940735893" y="-14.845814796439097"/>
      <point x="472.72215614480263" y="-20.641250707057125" type="curve" smooth="yes"/>
      <point x="731.00863925967565" y="-25.977971680446174"/>
      <point x="939.37012849884457" y="127.38138932102828"/>
      <point x="960.55463920345846" y="392.8284425883773" type="curve" smooth="yes"/>
      <point x="980.03311482804725" y="636.8984628395815"/>
      <point x="838.71272439244319" y="760.26092598305559"/>
      <point x="634.81535324721824" y="857.84232539156847" type="curve" smooth="yes"/>
      <point x="553.96702672674758" y="896.53479502662231"/>
      <point x="459.30609453974142" y="957.24046187986801"/>
      <point x="472.49856440888846" y="1059.5394078413713" type="curve" smooth="yes"/>
      <point x="485.18976152107467" y="1157.9513125448736"/>
      <point x="556.77450342337306" y="1236.5751810516263"/>
      <point x="659.8590605326126" y="1235.0355227013097" type="curve" smooth="yes"/>
      <point x="779.72293359980222" y="1233.2452505379088"/>
      <point x="796.24790256248639" y="1124.2562211452346"/>
      <point x="790.87470009644528" y="1026.707439793028" type="curve"/>
      <point x="1078.0118028434338" y="1026.2522731704876" type="line"/>
      <point x="1087.9062912464524" y="1275.6222340222755"/>
      <point x="948.33449176449858" y="1470.0925161881414"/>
      <point x="686.92225371432062" y="1476.1715066539598" type="curve" smooth="yes"/>
      <point x="435.53652921509536" y="1482.0173363437707"/>
      <point x="207.80947232231966" y="1322.0747971393023"/>
      <point x="189.15912109181875" y="1060.3117393814516" type="curve" smooth="yes"/>
      <point x="172.69642888491148" y="829.25310687919159"/>
      <point x="332.36550153663069" y="702.2790758095291"/>
      <point x="521.93562029948589" y="611.15197313621445" type="curve" smooth="yes"/>
      <point x="623.12533785170683" y="562.50967739339114"/>
      <point x="692.81612004086992" y="510.5060863824516"/>
    </contour>
  </outline>
</glyph>
<glyph name="T" format="1">
  <advance width="1079.61"/>
  <unicode hex="0054"/>
  <outline>
    <contour>
      <point x="707.25206351636382" y="1600" type="move" name="top"/>
    </contour>
    <contour>
      <point x="432.1830183983127" y="8" type="move" name="bottom"/>
    </contour>
    <contour>
      <point x="544.29076189018178" y="0" type="move" name="right"/>
    </contour>
    <contour>
      <point x="557.61378492634549" y="835" type="move" name="cross"/>
    </contour>
    <contour>
      <point x="1232.9920635163639" y="1600" type="move" name="top_dd"/>
    </contour>
    <contour>
      <point x="886.21846203902169" y="-407" type="move" name="bottom_dd"/>
    </contour>
    <contour>
      <point x="1232.9920635163639" y="1600" type="move" name="top0315"/>
    </contour>
    <contour>
      <point x="155.40762866613125" y="1211.0926119046392" type="line"/>
      <point x="499.26517135744746" y="1210.9404400748097" type="line"/>
      <point x="289.07402938222646" y="0.0" type="line"/>
      <point x="575.99010221663468" y="0.0" type="line"/>
      <point x="786.17125035372339" y="1210.923926209269" type="line"/>
      <point x="1135.8798045852961" y="1211.0803431411728" type="line"/>
      <point x="1178.9307649653165" y="1455.9083336018659" type="line"/>
      <point x="198.46176384718518" y="1455.9210662678536" type="line"/>
    </contour>
  </outline>
</glyph>
<glyph name="U" format="1">
  <advance width="1134.8999999999999"/>
  <unicode hex="0055"/>
  <outline>
    <contour>
      <point x="734.41206351636379" y="1600" type="move" name="top"/>
    </contour>
    <contour>
      <point x="459.90076189018168" y="0" type="move" name="bottom"/>
    </contour>
    <contour>
      <point x="603.46076189018174" y="0" type="move" name="right"/>
    </contour>
    <contour>
      <point x="766.5299422092944" y="68" type="move" name="ogonek"/>
    </contour>
    <contour>
      <point x="1288.2820635163639" y="1600" type="move" name="top_dd"/>
    </contour>
    <contour>
      <point x="941.50846203902165" y="-407" type="move" name="bottom_dd"/>
    </contour>
    <contour>
      <point x="1288.2820635163639" y="1600" type="move" name="top0315"/>
    </contour>
    <contour>
      <point x="894.84213346493743" y="1455.9435329980731" type="line"/>
      <point x="726.51795989896823" y="456.42691170545737" type="line" smooth="yes"/>
      <point x="707.73373013726746" y="320.91691106468431"/>
      <point x="655.60861148227377" y="217.70634946273279"/>
      <point x="505.1728660990957" y="223.5206702578862" type="curve" smooth="yes"/>
      <point x="364.02249057934614" y="228.97611278943205"/>
      <point x="357.27761572371924" y="335.24220134479094"/>
      <point x="370.52899769809676" y="455.69360418175" type="curve"/>
      <point x="538.45145226434295" y="1455.9129359415103" type="line"/>
      <point x="250.77461136438507" y="1455.9446857993053" type="line"/>
      <point x="81.119976735432303" y="456.73143510591547" type="line"/>
      <point x="48.909270031081405" y="175.023135563751"/>
      <point x="192.30498981626789" y="-15.533337535463922"/>
      <point x="480.59823450229794" y="-20.706430336755393" type="curve" smooth="yes"/>
      <point x="787.33181563520668" y="-26.210413901133006"/>
      <point x="972.20378162083705" y="162.35609101210122"/>
      <point x="1012.7014456017198" y="458.2340820186522" type="curve" smooth="yes"/>
      <point x="1182.8720068875205" y="1455.9463313225917" type="line"/>
    </contour>
  </outline>
</glyph>
<glyph name="V" format="1">
  <advance width="1148.48"/>
  <unicode hex="0056"/>
  <outline>
    <contour>
      <point x="731.90993317227833" y="1612" type="move" name="top"/>
    </contour>
    <contour>
      <point x="482.31780575924483" y="10" type="move" name="bottom"/>
    </contour>
    <contour>
      <point x="1284.8803292216189" y="1600" type="move" name="top_dd"/>
    </contour>
    <contour>
      <point x="972.18906847382971" y="-407" type="move" name="bottom_dd"/>
    </contour>
    <contour>
      <point x="1286.7499331722784" y="1612" type="move" name="top0315"/>
    </contour>
    <contour>
      <point x="1267.749526199492" y="1455.7755901380162" type="line"/>
      <point x="941.11560343090503" y="1455.8447796463706" type="line"/>
      <point x="539.26303920742123" y="404.2133452730867" type="line"/>
      <point x="468.32718987803173" y="1456.019404598751" type="line"/>
      <point x="157.18742112929971" y="1456.0167844582568" type="line"/>
      <point x="335.16255026666568" y="0.0" type="line"/>
      <point x="632.53343170991832" y="0.0" type="line"/>
    </contour>
  </outline>
</glyph>
<glyph name="W" format="1">
  <advance width="1487.98"/>
  <unicode hex="0057"/>
  <outline>
    <contour>
      <point x="907.55032922161888" y="1600" type="move" name="top"/>
    </contour>
    <contour>
      <point x="655.94780575924483" y="10" type="move" name="bottom"/>
    </contour>
    <contour>
      <point x="1624.3803292216189" y="1600" type="move" name="top_dd"/>
    </contour>
    <contour>
      <point x="1311.6890684738298" y="-407" type="move" name="bottom_dd"/>
    </contour>
    <contour>
      <point x="1624.3803292216189" y="1600" type="move" name="top0315"/>
    </contour>
    <contour>
      <point x="1584.3931705709401" y="1455.8418414076757" type="line"/>
      <point x="1296.1921512059905" y="1455.8724542973127" type="line"/>
      <point x="1020.6298437020713" y="547.44741098772738" type="line"/>
      <point x="997.59780877442392" y="1456.0413112426593" type="line"/>
      <point x="757.37760637493614" y="1455.83648516573" type="line"/>
      <point x="450.66430362953395" y="550.82264298423956" type="line"/>
      <point x="459.70163082720694" y="1456.0015172240546" type="line"/>
      <point x="179.15079070616838" y="1456.0090631257065" type="line"/>
      <point x="203.76052679761443" y="0.0" type="line"/>
      <point x="491.76643863618733" y="0.0" type="line"/>
      <point x="789.18286892389847" y="853.95878398927846" type="line"/>
      <point x="818.01918441706403" y="0.0" type="line"/>
      <point x="1105.6963414328466" y="0.0" type="line"/>
    </contour>
  </outline>
</glyph>
<glyph name="X" format="1">
  <advance width="1112.59"/>
  <unicode hex="0058"/>
  <outline>
    <contour>
      <point x="459.15840806379617" y="17" type="move" name="bottom"/>
    </contour>
    <contour>
      <point x="847.4198024670286" y="0" type="move" name="right"/>
    </contour>
    <contour>
      <point x="575.99364674946992" y="742" type="move" name="cross"/>
    </contour>
    <contour>
      <point x="696.01993317227834" y="1612" type="move" name="top"/>
    </contour>
    <contour>
      <point x="1248.990329221619" y="1600" type="move" name="top_dd"/>
    </contour>
    <contour>
      <point x="936.29906847382983" y="-407" type="move" name="bottom_dd"/>
    </contour>
    <contour>
      <point x="1250.8599331722785" y="1612" type="move" name="top0315"/>
    </contour>
    <contour>
      <point x="496.3479936470884" y="1456.006521536845" type="line"/>
      <point x="178.61800101422853" y="1456.0161109921262" type="line"/>
      <point x="394.25333798816388" y="746.4648011552872" type="line"/>
      <point x="-68.301181424588179" y="0.0" type="line"/>
      <point x="274.78957867870952" y="0.0" type="line"/>
      <point x="547.88837632390505" y="506.79422910043058" type="line"/>
      <point x="661.41908633411822" y="0.0" type="line"/>
      <point x="982.09466567506377" y="0.0" type="line"/>
      <point x="761.58421330543547" y="721.45578935882259" type="line"/>
      <point x="1214.4100673451871" y="1455.6607617803691" type="line"/>
      <point x="875.1405461029567" y="1455.7477982117598" type="line"/>
      <point x="607.50128828378718" y="958.12344991716611" type="line"/>
    </contour>
  </outline>
</glyph>
<glyph name="Y" format="1">
  <advance width="1078.6399999999999"/>
  <unicode hex="0059"/>
  <outline>
    <contour>
      <point x="714.04206351636378" y="1600" type="move" name="top"/>
    </contour>
    <contour>
      <point x="439.75813411325453" y="35" type="move" name="bottom"/>
    </contour>
    <contour>
      <point x="542.57556412703275" y="602" type="move" name="cross"/>
    </contour>
    <contour>
      <point x="110.69588224297466" y="1454" type="move" name="tonos"/>
    </contour>
    <contour>
      <point x="1232.0220635163637" y="1600" type="move" name="top_dd"/>
    </contour>
    <contour>
      <point x="885.24846203902166" y="-407" type="move" name="bottom_dd"/>
    </contour>
    <contour>
      <point x="1232.0220635163637" y="1600" type="move" name="top0315"/>
    </contour>
    <contour>
      <point x="470.59615129216161" y="1456.0270236089141" type="line"/>
      <point x="169.16748103064702" y="1456.0184799557278" type="line"/>
      <point x="384.51645393782536" y="542.53196462487608" type="line"/>
      <point x="290.05269086164742" y="0.0" type="line"/>
      <point x="580.82456874836498" y="0.0" type="line"/>
      <point x="669.93139830332848" y="513.98653232435049" type="line"/>
      <point x="1218.6116836894607" y="1455.6903950210967" type="line"/>
      <point x="895.01213301556595" y="1455.7734768544528" type="line"/>
      <point x="569.65819762388196" y="804.5724670464781" type="line"/>
    </contour>
  </outline>
</glyph>
<glyph name="Z" format="1">
  <advance width="1053.42"/>
  <unicode hex="005A"/>
  <outline>
    <contour>
      <point x="708.22206351636373" y="1600" type="move" name="top"/>
    </contour>
    <contour>
      <point x="426.70858252534538" y="10" type="move" name="bottom"/>
    </contour>
    <contour>
      <point x="1206.8020635163639" y="1600" type="move" name="top_dd"/>
    </contour>
    <contour>
      <point x="860.02846203902163" y="-407" type="move" name="bottom_dd"/>
    </contour>
    <contour>
      <point x="1206.8020635163639" y="1600" type="move" name="top0315"/>
    </contour>
    <contour>
      <point x="174.80084153621999" y="1211.0842425415644" type="line"/>
      <point x="750.2182480391258" y="1210.7065104844839" type="line"/>
      <point x="4.0225780554410022" y="190.10421386811026" type="line"/>
      <point x="-29.036537870887088" y="0.0" type="line"/>
      <point x="888.23098067363662" y="0.0" type="line"/>
      <point x="931.11983101184683" y="243.91236253049186" type="line"/>
      <point x="356.15633656765561" y="244.29415566870586" type="line"/>
      <point x="1099.039215135939" y="1270.8649307924375" type="line"/>
      <point x="1131.2650213042878" y="1455.8552125997003" type="line"/>
      <point x="217.86240427265568" y="1455.9203941385674" type="line"/>
    </contour>
  </outline>
</glyph>
<glyph name="bracketleft" format="1">
  <advance width="523.8"/>
  <unicode hex="005B"/>
  <outline>
    <contour>
      <point x="656.45617168786464" y="1695.9377818290836" type="line"/>
      <point x="278.31652350612848" y="1695.9505486293517" type="line"/>
      <point x="-39.934847434904512" y="-339.94197107339374" type="line"/>
      <point x="338.07086213610006" y="-339.94635358433186" type="line"/>
      <point x="373.46055301400702" y="-116.06754833131852" type="line"/>
      <point x="271.45278367280252" y="-115.961805320106" type="line"/>
      <point x="519.2605589250536" y="1470.9517233520899" type="line"/>
      <point x="620.97831797647223" y="1471.0590668138664" type="line"/>
    </contour>
  </outline>
</glyph>
<glyph name="backslash" format="1">
  <advance width="757.5699999999999"/>
  <unicode hex="005C"/>
  <outline>
    <contour>
      <point x="382.83378811673197" y="-125.00993376140568" type="line"/>
      <point x="655.64403252176749" y="-125.03880715836439" type="line"/>
      <point x="434.81057845053783" y="1455.9983442708099" type="line"/>
      <point x="162.0764755450906" y="1456.0413045582093" type="line"/>
    </contour>
  </outline>
</glyph>
<glyph name="bracketright" format="1">
  <advance width="523.8"/>
  <unicode hex="005D"/>
  <outline>
    <contour>
      <point x="169.16763872726921" y="1471.0628168040014" type="line"/>
      <point x="272.12095735753542" y="1470.9578128723206" type="line"/>
      <point x="24.312850887011209" y="-115.95543526267448" type="line"/>
      <point x="-78.350616082033099" y="-116.06519848465116" type="line"/>
      <point x="-113.73789673113937" y="-339.93679339841663" type="line"/>
      <point x="264.43384103977309" y="-339.95272534663559" type="line"/>
      <point x="582.68517133764055" y="1695.9398177090407" type="line"/>
      <point x="204.64749042009782" y="1695.9476780698667" type="line"/>
    </contour>
  </outline>
</glyph>
<glyph name="asciicircum" format="1">
  <advance width="776.97"/>
  <unicode hex="005E"/>
  <outline>
    <contour>
      <point x="65.114253382594981" y="729.2725760099072" type="line"/>
      <point x="290.31132656794415" y="729.20539714066092" type="line"/>
      <point x="496.46906449439984" y="1182.6073091350811" type="line"/>
      <point x="544.88661798857856" y="728.98476175917608" type="line"/>
      <point x="750.92681284043488" y="728.96494938576404" type="line"/>
      <point x="634.40838092865602" y="1456.0752411732294" type="line"/>
      <point x="435.13365234479204" y="1455.757096356893" type="line"/>
    </contour>
  </outline>
</glyph>
<glyph name="underscore" format="1">
  <advance width="794.43"/>
  <unicode hex="005F"/>
  <outline>
    <contour>
      <point x="303.3246866554399" y="138" type="move" name="_bottom"/>
    </contour>
    <contour>
      <point x="670.57190723177553" y="0.0" type="line"/>
      <point x="-83.87655572373373" y="0.0" type="line"/>
      <point x="-123.95209287350916" y="-227.90851963722218" type="line"/>
      <point x="630.49637008200784" y="-227.92176354628154" type="line"/>
    </contour>
  </outline>
</glyph>
<glyph name="grave" format="1">
  <advance width="658.63"/>
  <unicode hex="0060"/>
  <outline>
    <contour>
      <point x="517.81222716291711" y="1290" type="move" name="_top"/>
    </contour>
    <contour>
      <point x="576.23735062102412" y="1665" type="move" name="mkmktop_acc"/>
    </contour>
    <contour>
      <point x="498.58325362790413" y="1535.9416950267428" type="line"/>
      <point x="205.01795678486968" y="1535.9159631841451" type="line"/>
      <point x="425.71498252554727" y="1227.1281462177478" type="line"/>
      <point x="642.65398714644516" y="1227.0096092393933" type="line"/>
    </contour>
  </outline>
</glyph>
<glyph name="a" format="1">
  <advance width="936.05"/>
  <unicode hex="0061"/>
  <outline>
    <contour>
      <point x="582.87962382629098" y="1290" type="move" name="top"/>
    </contour>
    <contour>
      <point x="300.84805696995994" y="17" type="move" name="bottom"/>
    </contour>
    <contour>
      <point x="723.74076189018172" y="0" type="move" name="ogonek"/>
    </contour>
    <contour>
      <point x="702.18962382629104" y="1290" type="move" name="rhalfring"/>
    </contour>
    <contour>
      <point x="1089.4320635163638" y="1600" type="move" name="top_dd"/>
    </contour>
    <contour>
      <point x="742.65846203902163" y="-407" type="move" name="bottom_dd"/>
    </contour>
    <contour>
      <point x="728.10023142988359" y="654" type="move" name="rhotichook"/>
    </contour>
    <contour>
      <point x="1035.869623826291" y="1290" type="move" name="top0315"/>
    </contour>
    <contour>
      <point x="507.06149892488168" y="0.0" type="curve"/>
      <point x="778.61680654583824" y="0.0" type="line"/>
      <point x="779.94421403985893" y="18.575789700425204" type="line"/>
      <point x="752.11688871722697" y="95.481675360092765"/>
      <point x="768.7388302332123" y="185.01642492036206"/>
      <point x="780.9860175996007" y="263.50854953057035" type="curve" smooth="yes"/>
      <point x="858.23702967158249" y="744.12567683685063" type="line"/>
      <point x="878.61648744979482" y="958.96542610703602"/>
      <point x="756.07013099687413" y="1098.2757227772577"/>
      <point x="540.53228582069971" y="1102.7563354842844" type="curve" smooth="yes"/>
      <point x="330.25117337317573" y="1107.127670939132"/>
      <point x="137.08111454778202" y="975.62929059992325"/>
      <point x="122.58411499427108" y="756.42559602851816" type="curve"/>
      <point x="397.64644062076457" y="757.69325730717401" type="line"/>
      <point x="410.20613884464206" y="823.6106681734384"/>
      <point x="439.57078953744769" y="883.60167230396735"/>
      <point x="516.44156634049966" y="882.04063315314454" type="curve" smooth="yes"/>
      <point x="591.21648318617224" y="880.52215529263492"/>
      <point x="589.39449661074661" y="806.85321193343998"/>
      <point x="582.8121490157755" y="749.7138755692531" type="curve" smooth="yes"/>
      <point x="569.83272674425166" y="661.94644013500601" type="line"/>
      <point x="482.79471817876652" y="662.2445434712065" type="line" smooth="yes"/>
      <point x="245.98564400867977" y="661.65658729327436"/>
      <point x="33.721626573474936" y="553.5732015171393"/>
      <point x="20.381036053482347" y="294.68882135876527" type="curve" smooth="yes"/>
      <point x="11.876292987901479" y="129.64776611915386"/>
      <point x="114.00223075276699" y="-19.408327722287328"/>
      <point x="289.18480186778856" y="-20.796352288425513" type="curve" smooth="yes"/>
      <point x="376.92961050732606" y="-21.49158098136898"/>
      <point x="442.98876897263574" y="21.061380311073279"/>
      <point x="499.40480327385217" y="84.484769710251129" type="curve"/>
      <point x="499.09045641067416" y="55.275907087964143"/>
      <point x="500.73123439911927" y="28.523753450820536"/>
    </contour>
    <contour>
      <point x="366.02226025962102" y="201.48057972331566" type="curve" smooth="yes"/>
      <point x="303.22194095266565" y="203.08305067924772"/>
      <point x="295.64471025402815" y="263.2939607684367"/>
      <point x="302.16671681288108" y="314.37720762781612" type="curve" smooth="yes"/>
      <point x="315.22725536203103" y="416.67313585209087"/>
      <point x="386.30758442458676" y="489.5331190057625"/>
      <point x="490.43779443478093" y="493.85349503810079" type="curve" smooth="yes"/>
      <point x="549.80774727852599" y="494.07287149495329" type="line"/>
      <point x="501.13756412933094" y="265.06226319650131" type="line"/>
      <point x="464.89256239434752" y="227.88286715982471"/>
      <point x="420.11282087283917" y="200.10035501539502"/>
    </contour>
  </outline>
</glyph>
<glyph name="b" format="1">
  <advance width="983.5799999999999"/>
  <unicode hex="0062"/>
  <outline>
    <contour>
      <point x="750.45040970691286" y="1603" type="move" name="top"/>
    </contour>
    <contour>
      <point x="463.99294125501808" y="-10" type="move" name="bottom"/>
    </contour>
    <contour>
      <point x="1136.9620635163637" y="1600" type="move" name="top_dd"/>
    </contour>
    <contour>
      <point x="790.1884620390216" y="-407" type="move" name="bottom_dd"/>
    </contour>
    <contour>
      <point x="1137.4804097069127" y="1603" type="move" name="top0315"/>
    </contour>
    <contour>
      <point x="905.19817248178526" y="506.14117592291564" type="curve" smooth="yes"/>
      <point x="913.4777759377746" y="577.22902301321392" type="line" smooth="yes"/>
      <point x="936.48055892221225" y="789.80067795673699"/>
      <point x="929.58275655034618" y="1100.2848431951445"/>
      <point x="645.82931364266676" y="1102.1720829046117" type="curve" smooth="yes"/>
      <point x="556.11319216344691" y="1102.7687834249646"/>
      <point x="489.46303419806463" y="1058.8730193297797"/>
      <point x="432.9172051501539" y="992.86401197437954" type="curve"/>
      <point x="538.02232360639016" y="1535.9209261296094" type="line"/>
      <point x="262.67175737609989" y="1535.9414191158685" type="line"/>
      <point x="-3.785783690383056" y="0.0" type="line"/>
      <point x="253.04857949143673" y="0.0" type="line"/>
      <point x="287.43719767681102" y="108.89585020386056" type="line"/>
      <point x="332.17497094287444" y="29.228041431836346"/>
      <point x="402.32310393491656" y="-16.699541753220256"/>
      <point x="494.68565796821679" y="-19.79158250386627" type="curve" smooth="yes"/>
      <point x="788.97361493956487" y="-29.643522664071213"/>
      <point x="875.96434544827923" y="265.91746171537966"/>
    </contour>
    <contour>
      <point x="548.58496038662497" y="867.2407854429805" type="curve" smooth="yes"/>
      <point x="687.71575882001594" y="864.42758388012112"/>
      <point x="646.81030601590294" y="666.33938424876089"/>
      <point x="637.61825603396392" y="577.91663557325762" type="curve" smooth="yes"/>
      <point x="630.06309387381566" y="505.95190249769695" type="line" smooth="yes"/>
      <point x="616.18311436167994" y="381.9837926791991"/>
      <point x="597.67972868549873" y="206.98914829120181"/>
      <point x="434.90022714378517" y="214.53359677390816" type="curve" smooth="yes"/>
      <point x="379.89563792246247" y="217.08293060133946"/>
      <point x="343.27126016515678" y="239.92906275193303"/>
      <point x="322.11339129575708" y="290.34778414663043" type="curve"/>
      <point x="408.215143562187" y="786.11740377027684" type="line"/>
      <point x="443.74849910144667" y="833.53357550404303"/>
      <point x="486.18279981284894" y="868.50254673256291"/>
    </contour>
  </outline>
</glyph>
<glyph name="c" format="1">
  <advance width="913.74"/>
  <unicode hex="0063"/>
  <outline>
    <contour>
      <point x="560.49222716291706" y="1290" type="move" name="top"/>
    </contour>
    <contour>
      <point x="378.44240147936375" y="-3" type="move" name="bottom"/>
    </contour>
    <contour>
      <point x="560.49222716291706" y="1290" type="move" name="marktop"/>
    </contour>
    <contour>
      <point x="1050.1403292216191" y="1600" type="move" name="top_dd"/>
    </contour>
    <contour>
      <point x="737.4490684738297" y="-407" type="move" name="bottom_dd"/>
    </contour>
    <contour>
      <point x="1001.8422271629171" y="1290" type="move" name="top0315"/>
    </contour>
    <contour>
      <point x="415.71261117705114" y="213.02961710685085" type="curve" smooth="yes"/>
      <point x="276.3245775250237" y="216.86775580796342"/>
      <point x="321.14962807149931" y="412.10295113896098"/>
      <point x="329.98908267852784" y="501.09392664973285" type="curve" smooth="yes"/>
      <point x="337.48935991259873" y="580.19512164076571" type="line" smooth="yes"/>
      <point x="349.31807048108431" y="693.499461344319"/>
      <point x="365.85752848733227" y="875.74199848428873"/>
      <point x="519.50805969052567" y="868.87578363387752" type="curve" smooth="yes"/>
      <point x="621.36460939122776" y="864.32409774844609"/>
      <point x="620.30632684701732" y="755.39514818851683"/>
      <point x="615.77642872155877" y="677.81851929816071" type="curve"/>
      <point x="875.98549067040381" y="677.28404949247272" type="line"/>
      <point x="886.21620994128045" y="900.16236065887142"/>
      <point x="796.10231951598894" y="1095.2542625812907"/>
      <point x="550.01272524459205" y="1102.0630198212273" type="curve" smooth="yes"/>
      <point x="238.67551654985095" y="1110.6770348917878"/>
      <point x="97.753583794298464" y="855.96153105481551"/>
      <point x="62.232606775210499" y="579.7354690476111" type="curve" smooth="yes"/>
      <point x="52.609409655036515" y="501.77882472726122" type="line" smooth="yes"/>
      <point x="23.586521990713308" y="242.29627696226089"/>
      <point x="97.877415614842278" y="-14.361193242828634"/>
      <point x="398.8178750253478" y="-20.880206470521607" type="curve" smooth="yes"/>
      <point x="634.3155215161371" y="-25.981588569729055"/>
      <point x="795.47195798125165" y="148.94371644598502"/>
      <point x="814.49239029356272" y="375.23018052333526" type="curve"/>
      <point x="556.14068142298743" y="374.30707382449106" type="line"/>
      <point x="543.07617289292637" y="293.2322864834648"/>
      <point x="512.1671440001204" y="210.373679824242"/>
    </contour>
  </outline>
</glyph>
<glyph name="d" format="1">
  <advance width="984.55"/>
  <unicode hex="0064"/>
  <outline>
    <contour>
      <point x="1131.7240114513165" y="1536" type="move" name="caron"/>
    </contour>
    <contour>
      <point x="831.05413684255279" y="1306" type="move" name="cross"/>
    </contour>
    <contour>
      <point x="393.94076189018176" y="0" type="move" name="bottom"/>
    </contour>
    <contour>
      <point x="591.37040970691282" y="1603" type="move" name="top"/>
    </contour>
    <contour>
      <point x="1137.9320635163638" y="1600" type="move" name="top_dd"/>
    </contour>
    <contour>
      <point x="791.15846203902163" y="-407" type="move" name="bottom_dd"/>
    </contour>
    <contour>
      <point x="1138.450409706913" y="1603" type="move" name="top0315"/>
    </contour>
    <contour>
      <point x="532.29259237719248" y="-2.1594019577829537" type="line"/>
      <point x="779.81061060438719" y="0.0" type="line"/>
      <point x="1046.2279889095612" y="1535.9388315247857" type="line"/>
      <point x="769.07086305710243" y="1535.927483972589" type="line"/>
      <point x="666.31508514981522" y="991.78416058246034" type="line"/>
      <point x="619.80202902835254" y="1059.6000629574414"/>
      <point x="554.61225591694529" y="1098.9927506558688"/>
      <point x="471.41672625925605" y="1101.9011345034519" type="curve" smooth="yes"/>
      <point x="179.96339347924658" y="1112.0898810487215"/>
      <point x="86.534004305630745" y="811.31310423344348"/>
      <point x="57.275675293459798" y="573.92423548119859" type="curve" smooth="yes"/>
      <point x="48.92286593893563" y="502.75871364813332" type="line" smooth="yes"/>
      <point x="26.693685233688328" y="296.93206958772373"/>
      <point x="42.803293844741916" y="-17.24498453079509"/>
      <point x="317.38971228518045" y="-20.782704811539695" type="curve" smooth="yes"/>
      <point x="418.03527179819685" y="-22.079403457737737"/>
      <point x="489.19820942394307" y="35.376408060738399"/>
      <point x="547.8463234892962" y="111.37231368608867" type="curve"/>
    </contour>
    <contour>
      <point x="326.04736572998127" y="501.96427173541639" type="curve" smooth="yes"/>
      <point x="333.76068379483291" y="574.08143443987149" type="line" smooth="yes"/>
      <point x="347.5991740817978" y="692.09996602029798"/>
      <point x="375.94763941507563" y="876.40550999897721"/>
      <point x="532.9840482833373" y="868.05937553428828" type="curve" smooth="yes"/>
      <point x="587.67140765473096" y="865.15286450208987"/>
      <point x="619.80724259416002" y="835.60079362920112"/>
      <point x="639.82122038819318" y="786.85282709892658" type="curve"/>
      <point x="552.76550617014607" y="291.66207443013178" type="line"/>
      <point x="516.37738594874895" y="247.51078630792881"/>
      <point x="475.37089429687131" y="214.95063275338302"/>
      <point x="415.2118182927336" y="215.7206203902922" type="curve" smooth="yes"/>
      <point x="280.78222418679468" y="217.4412107379427"/>
      <point x="317.3203370386351" y="418.24357168271155"/>
    </contour>
  </outline>
</glyph>
<glyph name="e" format="1">
  <advance width="951.5699999999999"/>
  <unicode hex="0065"/>
  <outline>
    <contour>
      <point x="566.46802749213873" y="1291" type="move" name="top"/>
    </contour>
    <contour>
      <point x="390.5498024670286" y="0" type="move" name="bottom"/>
    </contour>
    <contour>
      <point x="633.18541300212041" y="32" type="move" name="ogonek"/>
    </contour>
    <contour>
      <point x="1089.9103292216191" y="1600" type="move" name="top_dd"/>
    </contour>
    <contour>
      <point x="777.21906847382968" y="-407" type="move" name="bottom_dd"/>
    </contour>
    <contour>
      <point x="773.74321777796729" y="654" type="move" name="rhotichook"/>
    </contour>
    <contour>
      <point x="1041.7680274921388" y="1291" type="move" name="top0315"/>
    </contour>
    <contour>
      <point x="804.45465866683014" y="139.93921923365028" type="curve"/>
      <point x="709.85858923534306" y="312.33030718683847" type="line"/>
      <point x="641.39705890745245" y="253.12319681036689"/>
      <point x="561.01383230736178" y="213.85443284138876"/>
      <point x="468.64393145035388" y="216.25521117431845" type="curve" smooth="yes"/>
      <point x="332.51591068395976" y="219.79330312557516"/>
      <point x="319.29980723417941" y="333.38933802592834"/>
      <point x="332.22904885216326" y="446.69083780204409" type="curve"/>
      <point x="869.90958051688347" y="447.052450219555" type="line"/>
      <point x="889.17960567455293" y="576.27695967042575" type="line" smooth="yes"/>
      <point x="919.80245439175656" y="827.62150545950806"/>
      <point x="859.3814022527697" y="1094.958978474067"/>
      <point x="561.77536275560169" y="1102.465101597481" type="curve" smooth="yes"/>
      <point x="248.6479031096934" y="1110.3627009519671"/>
      <point x="102.2184649575546" y="845.03756496737606"/>
      <point x="67.502196994851161" y="567.61878318233823" type="curve" smooth="yes"/>
      <point x="56.942906975755548" y="478.76655911234303" type="line" smooth="yes"/>
      <point x="29.208871888213494" y="213.09157493726201"/>
      <point x="145.49353177697674" y="-15.570469312145924"/>
      <point x="435.73907060711531" y="-19.906439705588188" type="curve" smooth="yes"/>
      <point x="571.04746922563606" y="-21.927808277724424"/>
      <point x="721.32166302296412" y="27.467900092984266"/>
    </contour>
    <contour>
      <point x="536.24817594055662" y="869.11291683447791" type="curve" smooth="yes"/>
      <point x="643.46369003033521" y="864.96575949720841"/>
      <point x="642.50099629089868" y="754.61670019355381"/>
      <point x="630.33442885954844" y="672.03884479597332" type="curve" smooth="yes"/>
      <point x="625.23135617362937" y="644.22752064712097" type="line"/>
      <point x="350.30846899960477" y="644.99030324833871" type="line"/>
      <point x="375.22237084033537" y="744.36164727941218"/>
      <point x="409.47486318165818" y="874.01658099764916"/>
    </contour>
  </outline>
</glyph>
<glyph name="f" format="1">
  <advance width="651.84"/>
  <unicode hex="0066"/>
  <outline>
    <contour>
      <point x="570.96410304228743" y="1687" type="move" name="top"/>
    </contour>
    <contour>
      <point x="186.14858252534538" y="10" type="move" name="bottom"/>
    </contour>
    <contour>
      <point x="805.22206351636373" y="1600" type="move" name="top_dd"/>
    </contour>
    <contour>
      <point x="458.44846203902159" y="-407" type="move" name="bottom_dd"/>
    </contour>
    <contour>
      <point x="820.2541030422874" y="1687" type="move" name="top0315"/>
    </contour>
    <contour>
      <point x="649.97119434859803" y="869.08153468128569" type="line"/>
      <point x="687.07279074475889" y="1081.9274485882911" type="line"/>
      <point x="522.69867210112159" y="1081.9067738380108" type="line"/>
      <point x="537.3789293838812" y="1175.801211784039" type="line" smooth="yes"/>
      <point x="552.70655390122829" y="1259.1072630899691"/>
      <point x="602.4180452747255" y="1323.7969436891817"/>
      <point x="693.14761760634406" y="1322.9292042544794" type="curve" smooth="yes"/>
      <point x="715.96928199843308" y="1322.7109374022323"/>
      <point x="737.70949331211193" y="1317.9957510337765"/>
      <point x="759.68724989998384" y="1312.5842841441977" type="curve"/>
      <point x="782.81216535284329" y="1539.8688725573377" type="line"/>
      <point x="739.46740888077386" y="1550.7250957710287"/>
      <point x="696.10225159070922" y="1559.7409452178774"/>
      <point x="651.21321531828778" y="1560.2631300165706" type="curve" smooth="yes"/>
      <point x="415.80621675000555" y="1563.0015705438368"/>
      <point x="287.31572621037679" y="1395.5966073654718"/>
      <point x="258.87138298338584" y="1176.2462476804092" type="curve" smooth="yes"/>
      <point x="246.5092276080743" y="1082.514022381559" type="line"/>
      <point x="119.57123781640801" y="1081.8189234210083" type="line"/>
      <point x="82.855449047697604" y="869.06188603245425" type="line"/>
      <point x="210.01921396148703" y="868.93439967406334" type="line"/>
      <point x="59.185452526518944" y="0.0" type="line"/>
      <point x="335.42466162435272" y="0.0" type="line"/>
      <point x="486.26247308234679" y="868.91254500329853" type="line"/>
    </contour>
  </outline>
</glyph>
<glyph name="g" format="1">
  <advance width="1000.0699999999999"/>
  <unicode hex="0067"/>
  <outline>
    <contour>
      <point x="588.69962382629092" y="1290" type="move" name="top"/>
    </contour>
    <contour>
      <point x="289.54717949836714" y="-447" type="move" name="bottom"/>
    </contour>
    <contour>
      <point x="1153.4520635163638" y="1600" type="move" name="top_dd"/>
    </contour>
    <contour>
      <point x="806.67846203902161" y="-407" type="move" name="bottom_dd"/>
    </contour>
    <contour>
      <point x="1099.889623826291" y="1290" type="move" name="top0315"/>
    </contour>
    <contour>
      <point x="800.9843786101851" y="0.0" type="curve" smooth="yes"/>
      <point x="984.95329841890657" y="1081.8929012878498" type="line"/>
      <point x="731.54159089417999" y="1082.6655141712899" type="line"/>
      <point x="698.84446995707651" y="985.52395692940195" type="line"/>
      <point x="652.69385186767647" y="1063.3741344232271"/>
      <point x="578.96690033454433" y="1099.9785851437862"/>
      <point x="489.26960629690666" y="1102.6642154200665" type="curve" smooth="yes"/>
      <point x="195.15730356539046" y="1111.470243665588"/>
      <point x="89.560182771870444" y="817.337601917494"/>
      <point x="61.184334896682984" y="572.70307316566095" type="curve" smooth="yes"/>
      <point x="53.167483451930948" y="499.44190499801954" type="line" smooth="yes"/>
      <point x="31.78136471692504" y="289.69410953164106"/>
      <point x="57.868133592608558" y="-18.628793984292649"/>
      <point x="333.57844767715261" y="-20.928099597612214" type="curve" smooth="yes"/>
      <point x="423.11674461368779" y="-21.674810541077751"/>
      <point x="489.82647115911607" y="22.307830656961556"/>
      <point x="547.51704392201214" y="86.922543935922675" type="curve"/>
      <point x="527.26413340437" y="-3.2944383477642663" type="line" smooth="yes"/>
      <point x="502.2847183092357" y="-124.55972885455662"/>
      <point x="440.0670347414175" y="-204.90956312057804"/>
      <point x="308.29915767606548" y="-200.97826975939861" type="curve" smooth="yes"/>
      <point x="228.56545307105796" y="-198.59941543953698"/>
      <point x="153.34606001269339" y="-162.24289946392716"/>
      <point x="99.826071611165546" y="-104.10296934048634" type="curve"/>
      <point x="-13.596325941937607" y="-297.67957318929058" type="line"/>
      <point x="67.320490619785005" y="-380.48170603953844"/>
      <point x="189.24662432502652" y="-423.08685297231028"/>
      <point x="304.08897111622485" y="-426.11995274657079" type="curve" smooth="yes"/>
      <point x="581.95623205298716" y="-433.4587014744597"/>
      <point x="764.32371778171864" y="-272.79495844682651"/>
    </contour>
    <contour>
      <point x="328.50610551549158" y="502.0144137501315" type="curve" smooth="yes"/>
      <point x="336.40409422236786" y="574.14894288140692" type="line" smooth="yes"/>
      <point x="351.34132679533275" y="697.2073996523809"/>
      <point x="391.02969782841183" y="875.76336492835992"/>
      <point x="549.85372555091942" y="867.70699891971799" type="curve" smooth="yes"/>
      <point x="600.37219400106858" y="865.14444413586932"/>
      <point x="634.5256231902539" y="843.79678285565569"/>
      <point x="659.02334386547795" y="800.52031323142899" type="curve"/>
      <point x="566.7843257511837" y="279.15960335647333" type="line"/>
      <point x="528.05001739415297" y="240.35575988325152"/>
      <point x="486.37261564905646" y="215.79937625144618"/>
      <point x="429.73317404143802" y="217.05961103397848" type="curve" smooth="yes"/>
      <point x="292.92257915315076" y="220.10366417792693"/>
      <point x="319.20182102005117" y="412.50191784322783"/>
    </contour>
  </outline>
</glyph>
<glyph name="h" format="1">
  <advance width="977.76"/>
  <unicode hex="0068"/>
  <outline>
    <contour>
      <point x="640.32515415305829" y="1673" type="move" name="top"/>
    </contour>
    <contour>
      <point x="372.69579065200372" y="1303" type="move" name="cross"/>
    </contour>
    <contour>
      <point x="394.69858252534539" y="10" type="move" name="bottom"/>
    </contour>
    <contour>
      <point x="777.09076189018174" y="0" type="move" name="right"/>
    </contour>
    <contour>
      <point x="1131.1420635163638" y="1600" type="move" name="top_dd"/>
    </contour>
    <contour>
      <point x="784.36846203902167" y="-407" type="move" name="bottom_dd"/>
    </contour>
    <contour>
      <point x="1143.7551541530584" y="1673" type="move" name="top0315"/>
    </contour>
    <contour>
      <point x="532.66908094830728" y="866.12642052593947" type="curve" smooth="yes"/>
      <point x="632.2446225335708" y="864.90260888943487"/>
      <point x="623.69108379414354" y="758.35093286601671"/>
      <point x="615.52326255335277" y="685.33237322510479" type="curve"/>
      <point x="501.53917158050217" y="0.0" type="line"/>
      <point x="777.73726165958283" y="0.0" type="line"/>
      <point x="891.6767509398577" y="682.21246364639171" type="line"/>
      <point x="911.30767151304519" y="863.93366854795488"/>
      <point x="881.23671023274335" y="1099.2341676086862"/>
      <point x="652.61232463896692" y="1102.6974411236081" type="curve" smooth="yes"/>
      <point x="557.92016966339452" y="1104.1318674274603"/>
      <point x="484.9519534381418" y="1054.533252223142"/>
      <point x="424.55369805041141" y="986.03282320215123" type="curve"/>
      <point x="531.24883378198399" y="1535.9259308064884" type="line"/>
      <point x="254.90890057835321" y="1535.9392226375583" type="line"/>
      <point x="-11.622992659594388" y="0.0" type="line"/>
      <point x="264.61251655303317" y="0.0" type="line"/>
      <point x="403.30986441725605" y="794.50144909947983" type="line"/>
      <point x="437.89250723650923" y="835.09045860913659"/>
      <point x="476.40646550461338" y="866.81790402062097"/>
    </contour>
  </outline>
</glyph>
<glyph name="i" format="1">
  <advance width="501.49"/>
  <unicode hex="0069"/>
  <outline>
    <contour>
      <point x="148.31858252534533" y="10" type="move" name="bottom"/>
    </contour>
    <contour>
      <point x="242.62076189018171" y="0" type="move" name="ogonek"/>
    </contour>
    <contour>
      <point x="422.07206351636376" y="1600" type="move" name="top"/>
    </contour>
    <contour>
      <point x="654.87206351636382" y="1600" type="move" name="top_dd"/>
    </contour>
    <contour>
      <point x="308.09846203902168" y="-407" type="move" name="bottom_dd"/>
    </contour>
    <contour>
      <point x="320.70023142988367" y="654" type="move" name="rhotichook"/>
    </contour>
    <contour>
      <point x="654.87206351636382" y="1600" type="move" name="top0315"/>
    </contour>
    <contour>
      <point x="232.09222172995663" y="1356.7904348530697" type="curve" smooth="yes"/>
      <point x="232.85343469928526" y="1270.9448111837592"/>
      <point x="296.61437021261827" y="1209.050378548505"/>
      <point x="382.39156999333017" y="1210.5804222287411" type="curve" smooth="yes"/>
      <point x="470.81871728857692" y="1212.1577341277805"/>
      <point x="533.17559165166983" y="1279.8323020083481"/>
      <point x="532.34229384437299" y="1367.4640068718206" type="curve" smooth="yes"/>
      <point x="531.52676671321422" y="1453.2269024897646"/>
      <point x="468.70659622090318" y="1515.655736953594"/>
      <point x="382.64942091591115" y="1514.1006805634631" type="curve" smooth="yes"/>
      <point x="293.61622729351075" y="1512.4918474105552"/>
      <point x="231.30908010341994" y="1445.1090579720824"/>
    </contour>
    <contour>
      <point x="472.85955000500644" y="1081.9306728274921" type="line"/>
      <point x="195.6540479944901" y="1081.9434245651998" type="line"/>
      <point x="7.7800104815093789" y="0.0" type="line"/>
      <point x="284.98551249200693" y="0.0" type="line"/>
    </contour>
  </outline>
</glyph>
<glyph name="j" format="1">
  <advance width="487.90999999999997"/>
  <unicode hex="006A"/>
  <outline>
    <contour>
      <point x="373.57206351636376" y="1600" type="move" name="top"/>
    </contour>
    <contour>
      <point x="-8.3762052638292488" y="-459" type="move" name="bottom"/>
    </contour>
    <contour>
      <point x="641.29206351636378" y="1600" type="move" name="top_dd"/>
    </contour>
    <contour>
      <point x="294.5184620390217" y="-407" type="move" name="bottom_dd"/>
    </contour>
    <contour>
      <point x="641.29206351636378" y="1600" type="move" name="top0315"/>
    </contour>
    <contour>
      <point x="227.212993665216" y="1356.6517221002753" type="curve" smooth="yes"/>
      <point x="228.00266401639007" y="1271.3209377551652"/>
      <point x="291.28851919512493" y="1209.5291425599783"/>
      <point x="376.63059514446326" y="1211.0238077801891" type="curve" smooth="yes"/>
      <point x="465.11568556506819" y="1212.5735191703527"/>
      <point x="528.07638203773138" y="1279.2691855810572"/>
      <point x="527.34073797372139" y="1367.2962235914099" type="curve" smooth="yes"/>
      <point x="526.62074753533273" y="1453.4501515408215"/>
      <point x="463.20463836372602" y="1515.5418084726987"/>
      <point x="376.98115112196882" y="1513.9561445119273" type="curve" smooth="yes"/>
      <point x="288.29819829879341" y="1512.3252505789062"/>
      <point x="226.40070136905413" y="1444.4270053509754"/>
    </contour>
    <contour>
      <point x="196.63256630938724" y="1081.9440772306307" type="line"/>
      <point x="1.5279249118597136" y="-58.768733791872769" type="line" smooth="yes"/>
      <point x="-10.620901053920205" y="-129.67440817000531"/>
      <point x="-39.81069262550632" y="-200.90118161742743"/>
      <point x="-122.28289295466334" y="-201.60909653364041" type="curve" smooth="yes"/>
      <point x="-147.42030606495814" y="-201.82486802542508"/>
      <point x="-172.96057548493678" y="-195.75327664080723"/>
      <point x="-197.38183820554531" y="-190.5390246904644" type="curve"/>
      <point x="-223.15296156232432" y="-420.85120736930293" type="line"/>
      <point x="-178.11032123443101" y="-431.65551177250791"/>
      <point x="-133.12513862527638" y="-439.80184185871002"/>
      <point x="-86.637813950381556" y="-440.2604102286972" type="curve" smooth="yes"/>
      <point x="144.1178358500336" y="-442.53667032613964"/>
      <point x="253.17111873887433" y="-267.06467567346527"/>
      <point x="280.20052947065301" y="-57.797816678448832" type="curve" smooth="yes"/>
      <point x="473.9086745027214" y="1081.9379760357463" type="line"/>
    </contour>
  </outline>
</glyph>
<glyph name="k" format="1">
  <advance width="950.6"/>
  <unicode hex="006B"/>
  <outline>
    <contour>
      <point x="390.1820444308363" y="40" type="move" name="bottom"/>
    </contour>
    <contour>
      <point x="336.56631620738921" y="1296" type="move" name="cross"/>
    </contour>
    <contour>
      <point x="742.69040970691287" y="1603" type="move" name="top"/>
    </contour>
    <contour>
      <point x="742.69040970691287" y="1603" type="move" name="marktop"/>
    </contour>
    <contour>
      <point x="1103.9820635163637" y="1600" type="move" name="top_dd"/>
    </contour>
    <contour>
      <point x="757.20846203902158" y="-407" type="move" name="bottom_dd"/>
    </contour>
    <contour>
      <point x="998.77040970691291" y="1603" type="move" name="top0315"/>
    </contour>
    <contour>
      <point x="542.11488513435916" y="0.0" type="line"/>
      <point x="844.49342335188305" y="0.0" type="line"/>
      <point x="626.07410114741538" y="624.51204609926242" type="line"/>
      <point x="1019.6446688767335" y="1081.5466125159953" type="line"/>
      <point x="674.79077425974504" y="1081.6993423269444" type="line"/>
      <point x="428.86189635027347" y="757.46754020956951" type="line"/>
      <point x="385.41002653128129" y="703.39576402540195" type="line"/>
      <point x="538.09688995367117" y="1536.9284868397431" type="line"/>
      <point x="261.8721928445072" y="1536.946258711765" type="line"/>
      <point x="-4.8329045620344715" y="0.0" type="line"/>
      <point x="271.37321878169814" y="0.0" type="line"/>
      <point x="327.17015040576558" y="321.82686090743476" type="line"/>
      <point x="424.975863259177" y="414.70527895696279" type="line"/>
    </contour>
  </outline>
</glyph>
<glyph name="m" format="1">
  <advance width="1473.43"/>
  <unicode hex="006D"/>
  <outline>
    <contour>
      <point x="874.84962382629101" y="1290" type="move" name="top"/>
    </contour>
    <contour>
      <point x="650.77858252534543" y="10" type="move" name="bottom"/>
    </contour>
    <contour>
      <point x="874.84962382629101" y="1290" type="move" name="marktop"/>
    </contour>
    <contour>
      <point x="1626.8120635163637" y="1600" type="move" name="top_dd"/>
    </contour>
    <contour>
      <point x="1280.0384620390216" y="-407" type="move" name="bottom_dd"/>
    </contour>
    <contour>
      <point x="1573.2496238262911" y="1290" type="move" name="top0315"/>
    </contour>
    <contour>
      <point x="535.58072935541963" y="867.11259390219629" type="curve" smooth="yes"/>
      <point x="631.40563709481296" y="866.81661695907314"/>
      <point x="617.0172716412103" y="755.13212677784929"/>
      <point x="609.31362841578596" y="688.4169945039697" type="curve" smooth="yes"/>
      <point x="494.7382231426169" y="0.0" type="line"/>
      <point x="769.96771894124458" y="0.0" type="line"/>
      <point x="894.78915955081095" y="722.4656116869935" type="line" smooth="yes"/>
      <point x="897.27026916353213" y="737.95083246873662"/>
      <point x="899.34465647909371" y="753.46779441712886"/>
      <point x="901.33289830952447" y="769.02193220024458" type="curve"/>
      <point x="930.77599081939309" y="817.57342322576221"/>
      <point x="968.42363184804344" y="866.96129822887565"/>
      <point x="1030.9803683616601" y="866.6269681445508" type="curve" smooth="yes"/>
      <point x="1126.0461915434425" y="866.11889552995945"/>
      <point x="1113.1419168276977" y="757.3363991384316"/>
      <point x="1105.7806449607031" y="690.26717341816686" type="curve"/>
      <point x="991.38331535758971" y="0.0" type="line"/>
      <point x="1267.585649426567" y="0.0" type="line"/>
      <point x="1382.178995872219" y="689.30781089559287" type="line"/>
      <point x="1400.5287783858787" y="867.06655093074528"/>
      <point x="1377.967902531544" y="1098.0484812158102"/>
      <point x="1153.0996476215266" y="1102.5115376572451" type="curve" smooth="yes"/>
      <point x="1036.7830200651342" y="1104.8201235181941"/>
      <point x="950.51321405311774" y="1043.5688614282997"/>
      <point x="879.76059193643403" y="956.84104024789599" type="curve"/>
      <point x="849.6562160674124" y="1050.4817490803653"/>
      <point x="774.79618061061433" y="1099.8752092566831"/>
      <point x="677.15977849879152" y="1101.7577924835862" type="curve" smooth="yes"/>
      <point x="573.66793637011756" y="1103.7532777933541"/>
      <point x="490.73484315340812" y="1057.1927689726033"/>
      <point x="423.28305080391203" y="981.83683577629211" type="curve"/>
      <point x="440.60376403841747" y="1083.3235771966549" type="line"/>
      <point x="184.79734803709749" y="1081.8127217079732" type="line"/>
      <point x="-2.8917452126818546" y="0.0" type="line"/>
      <point x="273.34615917454931" y="0.0" type="line"/>
      <point x="410.79745754328667" y="790.3339242974339" type="line"/>
      <point x="443.1998838368927" y="830.86062132949689"/>
      <point x="480.03895602716818" y="867.28414725584048"/>
    </contour>
  </outline>
</glyph>
<glyph name="n" format="1">
  <advance width="977.76"/>
  <unicode hex="006E"/>
  <outline>
    <contour>
      <point x="607.12962382629098" y="1290" type="move" name="top"/>
    </contour>
    <contour>
      <point x="384.02858252534537" y="10" type="move" name="bottom"/>
    </contour>
    <contour>
      <point x="106.26122938780016" y="1535" type="move" name="caron"/>
    </contour>
    <contour>
      <point x="780.00076189018171" y="0" type="move" name="right"/>
    </contour>
    <contour>
      <point x="607.12962382629098" y="1290" type="move" name="marktop"/>
    </contour>
    <contour>
      <point x="1131.1420635163638" y="1600" type="move" name="top_dd"/>
    </contour>
    <contour>
      <point x="784.36846203902167" y="-407" type="move" name="bottom_dd"/>
    </contour>
    <contour>
      <point x="1077.579623826291" y="1290" type="move" name="top0315"/>
    </contour>
    <contour>
      <point x="532.41061745133447" y="866.62357938148466" type="curve" smooth="yes"/>
      <point x="631.81133025930126" y="866.65671131121303"/>
      <point x="624.843285607844" y="765.0762330494839"/>
      <point x="616.5725689893203" y="691.3279674298725" type="curve"/>
      <point x="501.53721787592076" y="0.0" type="line"/>
      <point x="777.73367496331616" y="0.0" type="line"/>
      <point x="892.6900746037694" y="688.24450492136884" type="line"/>
      <point x="911.68082257439437" y="863.02995635408411"/>
      <point x="891.44559869357545" y="1098.1922600854562"/>
      <point x="668.07833603072118" y="1102.8184335055057" type="curve" smooth="yes"/>
      <point x="562.74160754153991" y="1105.0000691117366"/>
      <point x="480.41877657974408" y="1052.6748719577281"/>
      <point x="414.07193879002114" y="974.99554091586288" type="curve"/>
      <point x="433.70224035792171" y="1083.3247363087501" type="line"/>
      <point x="177.07973397716353" y="1081.7911338881304" type="line"/>
      <point x="-10.651598007958597" y="0.0" type="line"/>
      <point x="265.58467408986235" y="0.0" type="line"/>
      <point x="402.51271025258427" y="787.12559648004037" type="line"/>
      <point x="436.39363479910372" y="829.02961267838589"/>
      <point x="474.83231403102991" y="866.60438756435462"/>
    </contour>
  </outline>
</glyph>
<glyph name="o" format="1">
  <advance width="988.43"/>
  <unicode hex="006F"/>
  <outline>
    <contour>
      <point x="597.35222716291707" y="1290" type="move" name="top"/>
    </contour>
    <contour>
      <point x="398.03339983325566" y="-8" type="move" name="bottom"/>
    </contour>
    <contour>
      <point x="1123.8603292216189" y="1600" type="move" name="top_dd"/>
    </contour>
    <contour>
      <point x="811.16906847382973" y="-407" type="move" name="bottom_dd"/>
    </contour>
    <contour>
      <point x="812.54321777796736" y="654" type="move" name="rhotichook"/>
    </contour>
    <contour>
      <point x="1075.562227162917" y="1290" type="move" name="top0315"/>
    </contour>
    <contour>
      <point x="53.880114003254548" y="504.82381975707779" type="line" smooth="yes"/>
      <point x="28.063845779112359" y="248.94327719884663"/>
      <point x="112.92066746856244" y="-12.929148594876306"/>
      <point x="407.92586079500256" y="-20.454868267756012" type="curve" smooth="yes"/>
      <point x="713.89595964371165" y="-28.260307779699346"/>
      <point x="871.79958555663745" y="230.76198264537095"/>
      <point x="905.22799389497231" y="505.24230394013546" type="curve" smooth="yes"/>
      <point x="913.30111604639126" y="576.19314226002439" type="line" smooth="yes"/>
      <point x="939.59572304242477" y="832.33116657318328"/>
      <point x="855.11270277566632" y="1094.9217140604408"/>
      <point x="559.58825615844535" y="1102.4446419925221" type="curve" smooth="yes"/>
      <point x="254.07897078682333" y="1110.2217459266994"/>
      <point x="94.5768569989295" y="849.45202805387362"/>
      <point x="61.727547625889812" y="575.26209301465701" type="curve" smooth="yes"/>
    </contour>
    <contour>
      <point x="339.1801240947799" y="576.16360566626065" type="line" smooth="yes"/>
      <point x="351.46373874135264" y="683.82928023885734"/>
      <point x="389.26549772626333" y="876.7954530803205"/>
      <point x="535.16983273899643" y="868.96287108981539" type="curve" smooth="yes"/>
      <point x="665.94478975172103" y="861.94247945431289"/>
      <point x="645.28409865055846" y="663.82115028236217"/>
      <point x="637.61970866672073" y="577.788366847161" type="curve" smooth="yes"/>
      <point x="630.88789042130736" y="507.33873283267201" type="line" smooth="yes"/>
      <point x="618.57042672440014" y="395.29213231553274"/>
      <point x="583.13373103423794" y="205.4593791907923"/>
      <point x="432.89574314407002" y="213.51816251740271" type="curve" smooth="yes"/>
      <point x="301.21968530451943" y="220.58128173467364"/>
      <point x="323.73955879477188" y="416.58803401963388"/>
      <point x="331.86141935812981" y="503.39973217815668" type="curve" smooth="yes"/>
    </contour>
  </outline>
</glyph>
<glyph name="p" format="1">
  <advance width="983.5799999999999"/>
  <unicode hex="0070"/>
  <outline>
    <contour>
      <point x="690.76180319112734" y="1280" type="move" name="top"/>
    </contour>
    <contour>
      <point x="61.718462039021674" y="-407" type="move" name="bottom"/>
    </contour>
    <contour>
      <point x="690.76180319112734" y="1280" type="move" name="marktop"/>
    </contour>
    <contour>
      <point x="1136.9620635163637" y="1600" type="move" name="top_dd"/>
    </contour>
    <contour>
      <point x="790.1884620390216" y="-407" type="move" name="bottom_dd"/>
    </contour>
    <contour>
      <point x="1081.6718031911273" y="1280" type="move" name="top0315"/>
    </contour>
    <contour>
      <point x="494.57582148350241" y="-20.087931405456057" type="curve" smooth="yes"/>
      <point x="782.13408963909228" y="-29.452430795594712"/>
      <point x="877.01041960342059" y="273.36133514332232"/>
      <point x="905.36647979182862" y="507.20462898815583" type="curve" smooth="yes"/>
      <point x="913.5419759300238" y="578.21966374367855" type="line" smooth="yes"/>
      <point x="936.16576798640233" y="790.63162559604086"/>
      <point x="926.95749120126618" y="1099.2609357425467"/>
      <point x="645.21472708573685" y="1102.5468525010285" type="curve" smooth="yes"/>
      <point x="548.70090174862139" y="1103.6724764264416"/>
      <point x="478.40974623049357" y="1054.6928200871814"/>
      <point x="419.81204789465937" y="982.24240052716971" type="curve"/>
      <point x="434.98573343265218" y="1083.363163451437" type="line"/>
      <point x="183.83489013332701" y="1081.8102004746688" type="line"/>
      <point x="-75.939549629843313" y="-415.92978642703679" type="line"/>
      <point x="199.25677491303082" y="-415.93703511653877" type="line"/>
      <point x="295.31182986004302" y="89.532383104759731" type="line"/>
      <point x="342.87078506144326" y="20.632513647581945"/>
      <point x="410.25177523425697" y="-17.341870634051553"/>
    </contour>
    <contour>
      <point x="546.26423581726112" y="866.94975535121876" type="curve" smooth="yes"/>
      <point x="680.92040176228784" y="864.82771596850296"/>
      <point x="645.24966022990861" y="663.03259913279476"/>
      <point x="636.52082715262964" y="578.93914922847546" type="curve" smooth="yes"/>
      <point x="628.7979754626715" y="506.91375522500562" type="line" smooth="yes"/>
      <point x="615.19722504986908" y="390.37194280450325"/>
      <point x="587.15568807131524" y="206.19559579046793"/>
      <point x="431.91747383110237" y="213.49454536913933" type="curve" smooth="yes"/>
      <point x="378.61043221713101" y="216.00092184887936"/>
      <point x="343.72923489582189" y="237.4058615079218"/>
      <point x="321.20959817238628" y="285.01011905132708" type="curve"/>
      <point x="409.45631693697578" y="792.71373137988064" type="line"/>
      <point x="445.72495590756961" y="837.25846338392284"/>
      <point x="486.13829592732725" y="867.89727685143237"/>
    </contour>
  </outline>
</glyph>
<glyph name="q" format="1">
  <advance width="987.4599999999999"/>
  <unicode hex="0071"/>
  <outline>
    <contour>
      <point x="576.08962382629102" y="1290" type="move" name="top"/>
    </contour>
    <contour>
      <point x="574.84846203902168" y="-407" type="move" name="bottom"/>
    </contour>
    <contour>
      <point x="576.08962382629102" y="1290" type="move" name="marktop"/>
    </contour>
    <contour>
      <point x="1140.8420635163639" y="1600" type="move" name="top_dd"/>
    </contour>
    <contour>
      <point x="794.0684620390216" y="-407" type="move" name="bottom_dd"/>
    </contour>
    <contour>
      <point x="1087.2796238262908" y="1290" type="move" name="top0315"/>
    </contour>
    <contour>
      <point x="967.48987812160885" y="1081.875827969651" type="line"/>
      <point x="722.29427298728319" y="1082.4547952543041" type="line"/>
      <point x="680.03560985788567" y="973.04716905463192" type="line"/>
      <point x="635.66297767171295" y="1053.4389128645059"/>
      <point x="564.86602525052569" y="1099.0005608879876"/>
      <point x="472.24974147949797" y="1102.1125308414532" type="curve" smooth="yes"/>
      <point x="179.39705376607378" y="1111.9525797815393"/>
      <point x="86.706941278942793" y="815.73483892490049"/>
      <point x="58.532660937721189" y="575.74639156223316" type="curve" smooth="yes"/>
      <point x="50.333240932384726" y="502.39950757319656" type="line" smooth="yes"/>
      <point x="28.701135482966965" y="296.25973889991383"/>
      <point x="41.257077562416498" y="-18.754566722888629"/>
      <point x="318.00864369961221" y="-21.11182604423071" type="curve" smooth="yes"/>
      <point x="406.33678950377094" y="-21.864169916895545"/>
      <point x="472.18731799165238" y="21.271878912346736"/>
      <point x="528.38623455378627" y="85.75210555099757" type="curve"/>
      <point x="430.29789207954434" y="-415.92510847294579" type="line"/>
      <point x="707.60941376404458" y="-415.94218912204212" type="line"/>
    </contour>
    <contour>
      <point x="326.28864204664126" y="505.08590313462196" type="curve" smooth="yes"/>
      <point x="334.03699157389792" y="577.10097469766617" type="line" smooth="yes"/>
      <point x="347.93461707705279" y="695.5609932296411"/>
      <point x="376.92878517059728" y="876.50499081389046"/>
      <point x="533.5362009474976" y="868.44244887950094" type="curve" smooth="yes"/>
      <point x="585.61190865675451" y="865.76146104066822"/>
      <point x="618.93347518547523" y="843.71977617705727"/>
      <point x="641.649807082866" y="797.83518781234307" type="curve"/>
      <point x="550.53448437454972" y="282.38648871559559" type="line"/>
      <point x="513.63868255512068" y="240.68053882684077"/>
      <point x="472.89285563653118" y="213.4924797769435"/>
      <point x="415.00120812477348" y="214.63831221342218" type="curve" smooth="yes"/>
      <point x="280.79423329662501" y="217.29463158883016"/>
      <point x="317.56222840806686" y="421.57553599613436"/>
    </contour>
  </outline>
</glyph>
<glyph name="r" format="1">
  <advance width="658.63"/>
  <unicode hex="0072"/>
  <outline>
    <contour>
      <point x="473.26962382629108" y="1290" type="move" name="top"/>
    </contour>
    <contour>
      <point x="139.58858252534537" y="10" type="move" name="bottom"/>
    </contour>
    <contour>
      <point x="812.01206351636381" y="1600" type="move" name="top_dd"/>
    </contour>
    <contour>
      <point x="465.23846203902167" y="-407" type="move" name="bottom_dd"/>
    </contour>
    <contour>
      <point x="758.44962382629103" y="1290" type="move" name="top0315"/>
    </contour>
    <contour>
      <point x="575.53766774458529" y="819.61668320587955" type="curve" smooth="yes"/>
      <point x="604.77118501302471" y="819.35264692590272"/>
      <point x="634.07961559794285" y="814.50218428626124"/>
      <point x="662.8012640771974" y="809.5328364281155" type="curve"/>
      <point x="700.83248198539764" y="1090.8379822644899" type="line"/>
      <point x="673.16874615342488" y="1098.4103745710167"/>
      <point x="645.41985728345537" y="1104.7218495073832"/>
      <point x="616.51435077542158" y="1104.6867947807798" type="curve" smooth="yes"/>
      <point x="523.13422127383001" y="1104.573549406271"/>
      <point x="465.05760077288551" y="1037.5230772748687"/>
      <point x="419.27000322891206" y="964.37368633364918" type="curve"/>
      <point x="441.61357417260524" y="1083.2059012232198" type="line"/>
      <point x="182.90612191764774" y="1081.8100601558897" type="line"/>
      <point x="-4.8328777370653313" y="0.0" type="line"/>
      <point x="271.39686786575425" y="0.0" type="line"/>
      <point x="396.47455031927967" y="715.97220214948652" type="line"/>
      <point x="439.0851009434565" y="781.90527002672786"/>
      <point x="494.6932934761702" y="820.34686724917754"/>
    </contour>
  </outline>
</glyph>
<glyph name="s" format="1">
  <advance width="902.1"/>
  <unicode hex="0073"/>
  <outline>
    <contour>
      <point x="559.52222716291703" y="1290" type="move" name="top"/>
    </contour>
    <contour>
      <point x="356.98179917481241" y="-10" type="move" name="bottom"/>
    </contour>
    <contour>
      <point x="1038.500329221619" y="1600" type="move" name="top_dd"/>
    </contour>
    <contour>
      <point x="725.8090684738296" y="-407" type="move" name="bottom_dd"/>
    </contour>
    <contour>
      <point x="990.20222716291698" y="1290" type="move" name="top0315"/>
    </contour>
    <contour>
      <point x="514.55358605403717" y="297.48568129652091" type="curve" smooth="yes"/>
      <point x="503.35121912338735" y="226.78021308522972"/>
      <point x="450.15355429332055" y="189.46449668065"/>
      <point x="380.79509806992945" y="189.13137338400907" type="curve" smooth="yes"/>
      <point x="286.48370471759574" y="188.67840306178709"/>
      <point x="266.34833884524141" y="251.83202988409101"/>
      <point x="268.79280034944827" y="335.36415391723631" type="curve"/>
      <point x="7.1679144916668349" y="336.25651279207631" type="line"/>
      <point x="4.9142230091170962" y="126.2042120243938"/>
      <point x="153.82586710246329" y="-15.079020238654582"/>
      <point x="362.15349789024384" y="-19.910778316710662" type="curve" smooth="yes"/>
      <point x="566.83191024529606" y="-24.657899802998998"/>
      <point x="767.90296760450042" y="88.783832491274694"/>
      <point x="780.3818756975304" y="309.92618813733174" type="curve" smooth="yes"/>
      <point x="790.71736305950901" y="493.0843623092054"/>
      <point x="671.37105802124745" y="576.19535687224152"/>
      <point x="520.16010063930935" y="646.12627091933109" type="curve" smooth="yes"/>
      <point x="467.92019665875677" y="670.28579148810047"/>
      <point x="363.74966790003668" y="707.27174857667069"/>
      <point x="377.17309146217798" y="782.40749264864246" type="curve" smooth="yes"/>
      <point x="387.99035644417256" y="842.95562699628522"/>
      <point x="435.14069388163387" y="892.68308156757871"/>
      <point x="498.79380842358046" y="893.43873574452107" type="curve" smooth="yes"/>
      <point x="579.41511946070375" y="894.39582686055167"/>
      <point x="587.84219335803357" y="827.55938063043584"/>
      <point x="585.05711601485939" y="762.46604251809174" type="curve"/>
      <point x="860.67486822781837" y="761.84993343641656" type="line"/>
      <point x="863.94651700988163" y="973.00728802305878"/>
      <point x="721.22069696159701" y="1098.8531598745017"/>
      <point x="513.52838665986997" y="1102.547262304648" type="curve" smooth="yes"/>
      <point x="312.67887731649927" y="1106.1196558106049"/>
      <point x="127.88336329134324" y="978.89486995473601"/>
      <point x="116.58221157894253" y="767.81064253312218" type="curve" smooth="yes"/>
      <point x="107.26516705218916" y="593.78580012484974"/>
      <point x="227.90743113802179" y="509.55229398192574"/>
      <point x="369.48172430888638" y="440.70108644554733" type="curve" smooth="yes"/>
      <point x="423.27141165324576" y="414.54178277737577"/>
      <point x="526.66987828067306" y="373.95953009763525"/>
    </contour>
  </outline>
</glyph>
<glyph name="t" format="1">
  <advance width="610.13"/>
  <unicode hex="0074"/>
  <outline>
    <contour>
      <point x="271.72076189018173" y="0" type="move" name="bottom"/>
    </contour>
    <contour>
      <point x="711.06846177196019" y="1667" type="move" name="caron"/>
    </contour>
    <contour>
      <point x="274.71007714329454" y="618" type="move" name="cross"/>
    </contour>
    <contour>
      <point x="454.96708764033474" y="1476" type="move" name="top"/>
    </contour>
    <contour>
      <point x="712.30188033442187" y="1298" type="move" name="marktop"/>
    </contour>
    <contour>
      <point x="763.51206351636381" y="1600" type="move" name="top_dd"/>
    </contour>
    <contour>
      <point x="416.73846203902167" y="-407" type="move" name="bottom_dd"/>
    </contour>
    <contour>
      <point x="742.08708764033463" y="1476" type="move" name="top0315"/>
    </contour>
    <contour>
      <point x="472.12267951438878" y="5.8444437254721668" type="curve"/>
      <point x="496.02100443037057" y="229.10734559095079" type="line"/>
      <point x="473.63195868030687" y="225.55036808841766"/>
      <point x="451.11815871292066" y="221.69385541198471"/>
      <point x="428.31724654123138" y="222.67435084344174" type="curve" smooth="yes"/>
      <point x="364.17941437302449" y="225.43243573719292"/>
      <point x="369.44211378886035" y="278.02404113368937"/>
      <point x="375.72380780641231" y="330.23863991028838" type="curve" smooth="yes"/>
      <point x="466.55180438022546" y="868.88552059113488" type="line"/>
      <point x="607.33976090197177" y="869.07480266787661" type="line"/>
      <point x="644.46102269871358" y="1081.9165610308614" type="line"/>
      <point x="503.5415484405994" y="1082.0792655430564" type="line"/>
      <point x="550.24092713979314" y="1348.9227471385395" type="line"/>
      <point x="274.97215240909344" y="1348.9339517066719" type="line"/>
      <point x="228.27606811067307" y="1082.0840849211702" type="line"/>
      <point x="106.32894446311461" y="1081.9330444057985" type="line"/>
      <point x="69.145920013786551" y="869.09252720898405" type="line"/>
      <point x="191.53867979962291" y="868.94240753324846" type="line"/>
      <point x="98.931799613063575" y="300.89767029339544" type="line"/>
      <point x="83.948041711286024" y="133.87642146433674"/>
      <point x="139.96917464422407" y="-14.775660994057979"/>
      <point x="326.83159073812584" y="-18.527194549148167" type="curve" smooth="yes"/>
      <point x="376.83474711106408" y="-19.531080311276131"/>
      <point x="425.45281152338623" y="-12.070392677847138"/>
    </contour>
  </outline>
</glyph>
<glyph name="u" format="1">
  <advance width="977.76"/>
  <unicode hex="0075"/>
  <outline>
    <contour>
      <point x="604.21962382629101" y="1290" type="move" name="top"/>
    </contour>
    <contour>
      <point x="747.02076189018169" y="0" type="move" name="ogonek"/>
    </contour>
    <contour>
      <point x="292.09076189018174" y="0" type="move" name="bottomu"/>
    </contour>
    <contour>
      <point x="1131.1420635163638" y="1600" type="move" name="top_dd"/>
    </contour>
    <contour>
      <point x="784.36846203902167" y="-407" type="move" name="bottom_dd"/>
    </contour>
    <contour>
      <point x="785.33023142988361" y="654" type="move" name="rhotichook"/>
    </contour>
    <contour>
      <point x="1077.579623826291" y="1290" type="move" name="top0315"/>
    </contour>
    <contour>
      <point x="383.27076189018175" y="0" type="move" name="bottom"/>
    </contour>
    <contour>
      <point x="522.07852349379425" y="0.0" type="line"/>
      <point x="778.91849857760928" y="0.0" type="line"/>
      <point x="966.5901322417451" y="1081.931532621586" type="line"/>
      <point x="689.38076966540757" y="1081.9436611898459" type="line"/>
      <point x="553.1013882596302" y="300.17103859288932" type="line"/>
      <point x="515.35885097226333" y="251.16774486280266"/>
      <point x="468.11448512461419" y="213.76477682001845"/>
      <point x="402.62686382283408" y="216.81199178753266" type="curve" smooth="yes"/>
      <point x="321.64006177493758" y="220.58040161011928"/>
      <point x="329.47222814287841" y="321.1529152468666"/>
      <point x="335.77960166290444" y="378.51278927118568" type="curve"/>
      <point x="453.42955829506718" y="1081.9209114158371" type="line"/>
      <point x="177.23133074530398" y="1081.9534924349814" type="line"/>
      <point x="60.143125558102852" y="381.78213708960675" type="line"/>
      <point x="40.890412997886372" y="201.12836398378468"/>
      <point x="80.788915510672894" y="-17.496021704573852"/>
      <point x="302.20653927438508" y="-20.97677425930161" type="curve" smooth="yes"/>
      <point x="402.26818111866669" y="-22.549773777404187"/>
      <point x="478.74929412584277" y="25.118194697444679"/>
      <point x="541.19551719311846" y="99.662285304619687" type="curve"/>
    </contour>
  </outline>
</glyph>
<glyph name="v" format="1">
  <advance width="892.4"/>
  <unicode hex="0076"/>
  <outline>
    <contour>
      <point x="554.08422387070084" y="1280" type="move" name="top"/>
    </contour>
    <contour>
      <point x="356.21780575924481" y="10" type="move" name="bottom"/>
    </contour>
    <contour>
      <point x="1028.800329221619" y="1600" type="move" name="top_dd"/>
    </contour>
    <contour>
      <point x="716.10906847382978" y="-407" type="move" name="bottom_dd"/>
    </contour>
    <contour>
      <point x="978.94422387070074" y="1280" type="move" name="top0315"/>
    </contour>
    <contour>
      <point x="944.39138987015201" y="1081.7834599615089" type="line"/>
      <point x="650.32948539818324" y="1081.8565091976036" type="line"/>
      <point x="412.32773263192576" y="404.91384182980966" type="line"/>
      <point x="386.07462598453998" y="1082.0059621099394" type="line"/>
      <point x="103.42727654137566" y="1082.0262028420223" type="line"/>
      <point x="222.565564541816" y="0.0" type="line"/>
      <point x="486.851888533889" y="0.0" type="line"/>
    </contour>
  </outline>
</glyph>
<glyph name="w" format="1">
  <advance width="1257.12"/>
  <unicode hex="0077"/>
  <outline>
    <contour>
      <point x="746.80962382629104" y="1290" type="move" name="top"/>
    </contour>
    <contour>
      <point x="527.58858252534537" y="10" type="move" name="bottom"/>
    </contour>
    <contour>
      <point x="746.80962382629104" y="1290" type="move" name="marktop"/>
    </contour>
    <contour>
      <point x="1410.5020635163637" y="1600" type="move" name="top_dd"/>
    </contour>
    <contour>
      <point x="1063.7284620390217" y="-407" type="move" name="bottom_dd"/>
    </contour>
    <contour>
      <point x="1356.9396238262912" y="1290" type="move" name="top0315"/>
    </contour>
    <contour>
      <point x="1310.0607486615279" y="1081.8303189354726" type="line"/>
      <point x="1039.1924011814081" y="1081.8557089021099" type="line"/>
      <point x="840.28082198103243" y="478.02770851988697" type="line"/>
      <point x="806.82264224497078" y="1082.0724312872771" type="line"/>
      <point x="609.39069218728412" y="1081.7869124282181" type="line"/>
      <point x="367.71092999357631" y="484.44403035967849" type="line"/>
      <point x="379.1545436069448" y="1081.9860394221839" type="line"/>
      <point x="119.05446953543164" y="1082.018247499828" type="line"/>
      <point x="149.66202530718743" y="0.0" type="line"/>
      <point x="379.81197320385968" y="0.0" type="line"/>
      <point x="636.08844755939231" y="621.21666971288289" type="line"/>
      <point x="675.02863969674752" y="0.0" type="line"/>
      <point x="904.93138382224902" y="0.0" type="line"/>
    </contour>
  </outline>
</glyph>
<glyph name="x" format="1">
  <advance width="899.1899999999999"/>
  <unicode hex="0078"/>
  <outline>
    <contour>
      <point x="356.21780575924481" y="10" type="move" name="bottom"/>
    </contour>
    <contour>
      <point x="630.13980246702863" y="0" type="move" name="right"/>
    </contour>
    <contour>
      <point x="443.57158419736231" y="552" type="move" name="cross"/>
    </contour>
    <contour>
      <point x="555.05422387070087" y="1280" type="move" name="top"/>
    </contour>
    <contour>
      <point x="1035.590329221619" y="1600" type="move" name="top_dd"/>
    </contour>
    <contour>
      <point x="722.89906847382974" y="-407" type="move" name="bottom_dd"/>
    </contour>
    <contour>
      <point x="985.7342238707007" y="1280" type="move" name="top0315"/>
    </contour>
    <contour>
      <point x="406.22789358161845" y="1082.0492347433383" type="line"/>
      <point x="122.05816448202226" y="1082.0052552294119" type="line"/>
      <point x="273.84043393660613" y="565.6027077499142" type="line"/>
      <point x="-69.094359628471651" y="0.0" type="line"/>
      <point x="237.0415780627028" y="0.0" type="line"/>
      <point x="417.58573825258242" y="336.95663181012173" type="line"/>
      <point x="492.59099921120173" y="0.0" type="line"/>
      <point x="775.61777677192481" y="0.0" type="line"/>
      <point x="616.97502475957458" y="540.04418482224173" type="line"/>
      <point x="946.22869902170589" y="1081.6295971592135" type="line"/>
      <point x="643.09872934225575" y="1081.7154803366482" type="line"/>
      <point x="472.47438466896085" y="764.25471617126834" type="line"/>
    </contour>
  </outline>
</glyph>
<glyph name="y" format="1">
  <advance width="886.5799999999999"/>
  <unicode hex="0079"/>
  <outline>
    <contour>
      <point x="563.479623826291" y="1290" type="move" name="top"/>
    </contour>
    <contour>
      <point x="559.40751696689802" y="-109" type="move" name="bottom"/>
    </contour>
    <contour>
      <point x="563.479623826291" y="1290" type="move" name="marktop"/>
    </contour>
    <contour>
      <point x="1039.9620635163637" y="1600" type="move" name="top_dd"/>
    </contour>
    <contour>
      <point x="693.1884620390216" y="-407" type="move" name="bottom_dd"/>
    </contour>
    <contour>
      <point x="686.39023142988356" y="654" type="move" name="rhotichook"/>
    </contour>
    <contour>
      <point x="986.39962382629096" y="1290" type="move" name="top0315"/>
    </contour>
    <contour>
      <point x="399.92223876064924" y="-162.80672930215258" type="curve" smooth="yes"/>
      <point x="957.81836445750287" y="1081.7416601889906" type="line"/>
      <point x="655.93452399492094" y="1081.8102329938256" type="line"/>
      <point x="412.24599811849839" y="476.84634958093994" type="line"/>
      <point x="391.99950119382441" y="1082.0105340349019" type="line"/>
      <point x="103.6519266572938" y="1082.0204808815513" type="line"/>
      <point x="216.08971804182721" y="5.1791184868011246" type="line"/>
      <point x="175.26770819550086" y="-85.121703762706602" type="line" smooth="yes"/>
      <point x="140.70721524031381" y="-161.91040715082286"/>
      <point x="91.25180531128683" y="-202.83514580723838"/>
      <point x="4.0059801661460739" y="-200.88264010758593" type="curve" smooth="yes"/>
      <point x="-6.5821025464810443" y="-200.64568559646287"/>
      <point x="-17.296677495310369" y="-199.16853251825279"/>
      <point x="-27.854838483716932" y="-198.27830282869118" type="curve"/>
      <point x="-51.442074839041787" y="-419.06585816808638" type="line"/>
      <point x="-10.796506381499142" y="-430.29484981091605"/>
      <point x="28.530074093010718" y="-440.11728607588998"/>
      <point x="71.013470760146092" y="-440.12842237055634" type="curve" smooth="yes"/>
      <point x="244.88619517409415" y="-440.17400012670151"/>
      <point x="339.39222201408137" y="-309.00997261634143"/>
    </contour>
  </outline>
</glyph>
<glyph name="z" format="1">
  <advance width="899.1899999999999"/>
  <unicode hex="007A"/>
  <outline>
    <contour>
      <point x="566.38962382629097" y="1290" type="move" name="top"/>
    </contour>
    <contour>
      <point x="343.28858252534536" y="10" type="move" name="bottom"/>
    </contour>
    <contour>
      <point x="1052.5720635163639" y="1600" type="move" name="top_dd"/>
    </contour>
    <contour>
      <point x="705.79846203902162" y="-407" type="move" name="bottom_dd"/>
    </contour>
    <contour>
      <point x="999.00962382629086" y="1290" type="move" name="top0315"/>
    </contour>
    <contour>
      <point x="130.18772080692463" y="847.11627781010122" type="line"/>
      <point x="519.40250364882513" y="846.6858590432962" type="line"/>
      <point x="5.8753700554980668" y="189.73104589654164" type="line"/>
      <point x="-27.076712273344526" y="0.0" type="line"/>
      <point x="715.57737804154795" y="0.0" type="line"/>
      <point x="756.8856632836746" y="234.89363333142211" type="line"/>
      <point x="348.77841789959928" y="235.30658665395961" type="line"/>
      <point x="865.67847104923544" y="898.18563997155741" type="line"/>
      <point x="897.68719446337013" y="1081.8490961995185" type="line"/>
      <point x="171.49125976664675" y="1081.9232418103411" type="line"/>
    </contour>
  </outline>
</glyph>
<glyph name="braceleft" format="1">
  <advance width="591.6999999999999"/>
  <unicode hex="007B"/>
  <outline>
    <contour>
      <point x="140.41394234732508" y="310.39587594527427" type="curve" smooth="yes"/>
      <point x="112.53410114582006" y="105.83726363918372" type="line" smooth="yes"/>
      <point x="89.939955501352117" y="-96.47161755619392"/>
      <point x="152.62020418099081" y="-279.63074649637497"/>
      <point x="351.8415158727056" y="-358.61374967455134" type="curve"/>
      <point x="414.06639161352274" y="-195.90247020373513" type="line"/>
      <point x="319.16578205354756" y="-134.89183289280052"/>
      <point x="345.2778395035316" y="9.6173314397178586"/>
      <point x="357.87715332889542" y="105.00261118642177" type="curve" smooth="yes"/>
      <point x="385.01054292749848" y="309.09775690408594" type="line" smooth="yes"/>
      <point x="396.19242311577517" y="422.6337951143862"/>
      <point x="372.55024740998635" y="539.05637076144876"/>
      <point x="280.77708068537254" y="614.03118550028501" type="curve"/>
      <point x="404.79123662443527" y="684.93981562480394"/>
      <point x="469.23070004662191" y="788.10836504347833"/>
      <point x="487.91466042909747" y="929.32918135887746" type="curve" smooth="yes"/>
      <point x="515.38002385760592" y="1131.9526567760433" type="line" smooth="yes"/>
      <point x="531.96060400110434" y="1247.4820112444177"/>
      <point x="559.57333597440356" y="1375.875240053437"/>
      <point x="671.37625402032938" y="1434.9316168567996" type="curve"/>
      <point x="634.43346340983692" y="1599.452941427207" type="line"/>
      <point x="409.07442930019249" y="1524.1886989213961"/>
      <point x="299.14921222020661" y="1362.4407217566288"/>
      <point x="268.65026941491288" y="1131.7568938002673" type="curve" smooth="yes"/>
      <point x="241.05181174827158" y="929.25930922439261" type="line" smooth="yes"/>
      <point x="225.59920500302715" y="825.56968289118436"/>
      <point x="183.97870052467368" y="729.07413411215134"/>
      <point x="67.877297585700646" y="721.01826522583508" type="curve"/>
      <point x="44.962499128849871" y="513.1605301815481" type="line"/>
      <point x="152.1785593507488" y="500.27425765221187"/>
      <point x="151.14176765536996" y="400.71367194618506"/>
    </contour>
  </outline>
</glyph>
<glyph name="bar" format="1">
  <advance width="503.43"/>
  <unicode hex="007C"/>
  <outline>
    <contour>
      <point x="473.50514862712942" y="1455.9512060442776" type="line"/>
      <point x="302.02712984652686" y="1455.9596645674753" type="line"/>
      <point x="32.031307937572848" y="-269.95394510468378" type="line"/>
      <point x="203.5093267181756" y="-269.96240362787393" type="line"/>
    </contour>
  </outline>
</glyph>
<glyph name="braceright" format="1">
  <advance width="591.6999999999999"/>
  <unicode hex="007D"/>
  <outline>
    <contour>
      <point x="458.58430451121762" y="927.59075113437621" type="curve" smooth="yes"/>
      <point x="486.51956140489119" y="1132.1428162528873" type="line" smooth="yes"/>
      <point x="509.18939072923013" y="1333.959097492803"/>
      <point x="447.0491620010074" y="1516.4881862939967"/>
      <point x="248.38989628576263" y="1595.5373521661063" type="curve"/>
      <point x="181.83609127941673" y="1435.5634251682359" type="line"/>
      <point x="277.77317107322619" y="1372.8009517648654"/>
      <point x="252.95782139394842" y="1230.804968880004"/>
      <point x="240.0289511330916" y="1132.8600413295469" type="curve" smooth="yes"/>
      <point x="212.87598397967696" y="928.90917010973851" type="line" smooth="yes"/>
      <point x="201.5305067788525" y="814.47471590778105"/>
      <point x="227.04311965122986" y="697.64466165526289"/>
      <point x="321.00650778097111" y="623.95514127772572" type="curve"/>
      <point x="194.1488768971636" y="554.88608710971641"/>
      <point x="128.79190075668134" y="451.59323158691961"/>
      <point x="110.18229100102646" y="308.8847185753533" type="curve" smooth="yes"/>
      <point x="82.659759594075965" y="106.05351799382062" type="line" smooth="yes"/>
      <point x="66.16979030335726" y="-8.8160094485988623"/>
      <point x="39.680686743342562" y="-138.19431389473044"/>
      <point x="-72.072283437153899" y="-196.67431618936192" type="curve"/>
      <point x="-31.24228307225895" y="-363.75196323290726" type="line"/>
      <point x="191.99832356232338" y="-286.01422984229106"/>
      <point x="299.76869408727072" y="-122.99418313965336"/>
      <point x="330.27092222191743" y="106.28542911420695" type="curve" smooth="yes"/>
      <point x="358.00289314059017" y="308.74796565461804" type="line" smooth="yes"/>
      <point x="373.41507658258695" y="411.8788719376372"/>
      <point x="414.31327100224729" y="509.10035134196136"/>
      <point x="530.1502271643227" y="517.07412504685374" type="curve"/>
      <point x="553.0730273500825" y="724.82776652702648" type="line"/>
      <point x="445.59342557691377" y="737.57541447967139"/>
      <point x="447.80140137386877" y="837.36520443469863"/>
    </contour>
  </outline>
</glyph>
<glyph name="asciitilde" format="1">
  <advance width="1106.77"/>
  <unicode hex="007E"/>
  <outline>
    <contour>
      <point x="835.87919532763431" y="794.50599491974754" type="line"/>
      <point x="825.72521897060358" y="731.23328007098576"/>
      <point x="798.15406376709825" y="611.99812591701277"/>
      <point x="712.9259302639548" y="612.90671676796774" type="curve" smooth="yes"/>
      <point x="662.97734608729786" y="613.43920322209601"/>
      <point x="635.15177359478787" y="660.98360614876913"/>
      <point x="609.64921615669925" y="696.37393190230159" type="curve" smooth="yes"/>
      <point x="557.52840891523715" y="768.70284837628265"/>
      <point x="484.44833958792367" y="826.06256472525047"/>
      <point x="392.2272978547303" y="828.60171086917285" type="curve" smooth="yes"/>
      <point x="172.64757840825021" y="834.64745690974723"/>
      <point x="88.432503262241511" y="594.1164259511097"/>
      <point x="73.746316636275864" y="414.62690289514944" type="curve"/>
      <point x="274.50752116100705" y="413.39757125463507" type="line"/>
      <point x="284.11987379549589" y="475.79312845434623"/>
      <point x="308.84227237168051" y="592.06276765869745"/>
      <point x="393.12415178200291" y="590.99225349946721" type="curve" smooth="yes"/>
      <point x="443.48633191778612" y="590.35257356705154"/>
      <point x="472.16748632610791" y="543.35365141531781"/>
      <point x="498.303185594002" y="507.63896181536188" type="curve" smooth="yes"/>
      <point x="551.16518384780807" y="435.40252230339854"/>
      <point x="620.46018670376384" y="376.606439351836"/>
      <point x="713.67281355416253" y="374.28159896294926" type="curve" smooth="yes"/>
      <point x="933.49968086928197" y="368.79883984580874"/>
      <point x="1019.0517138805385" y="615.76339401916334"/>
      <point x="1032.9848287052168" y="794.76903546942071" type="curve"/>
    </contour>
  </outline>
</glyph>
<glyph name="exclamdown" format="1">
  <advance width="539.3199999999999"/>
  <unicode hex="00A1"/>
  <outline>
    <contour>
      <point x="481.75666235923904" y="953.38293819154001" type="curve" smooth="yes"/>
      <point x="481.02373863334373" y="1038.4233465348541"/>
      <point x="418.95788602701839" y="1105.0611546708667"/>
      <point x="332.45484170640418" y="1103.4179258444826" type="curve" smooth="yes"/>
      <point x="243.11646664572328" y="1101.720836518263"/>
      <point x="181.71878760800536" y="1029.6273180662031"/>
      <point x="182.51730641022118" y="942.29507110386737" type="curve" smooth="yes"/>
      <point x="183.2967848094558" y="857.04523118166799"/>
      <point x="244.79225521429845" y="790.20242427131996"/>
      <point x="331.70961279594638" y="791.83806943722391" type="curve" smooth="yes"/>
      <point x="421.36222703725622" y="793.525187743331"/>
      <point x="482.51115321006313" y="865.84011787009695"/>
    </contour>
    <contour>
      <point x="-44.925173496717662" y="-368.897283829613" type="line"/>
      <point x="248.80093142702219" y="-368.9542076096343" type="line"/>
      <point x="391.45421127310146" y="637.97341815230266" type="line"/>
      <point x="162.7391829110299" y="637.910238128267" type="line"/>
    </contour>
  </outline>
</glyph>
<glyph name="cent" format="1">
  <advance width="1011.7099999999999"/>
  <unicode hex="00A2"/>
  <outline>
    <contour>
      <point x="841.22385651806189" y="375.33511751053771" type="curve"/>
      <point x="583.96172948067806" y="374.18778934222968" type="line"/>
      <point x="571.16126748348518" y="298.69692264930075"/>
      <point x="534.88235248237697" y="210.78689478735589"/>
      <point x="443.77854881986991" y="213.21379152841297" type="curve" smooth="yes"/>
      <point x="309.21124296135889" y="216.79850416292234"/>
      <point x="351.64516562580252" y="444.2420982062248"/>
      <point x="359.39784404991406" y="525.54941937985404" type="curve" smooth="yes"/>
      <point x="361.99195183400695" y="553.23827971463913" type="line" smooth="yes"/>
      <point x="373.07127749650522" y="661.35897804158185"/>
      <point x="394.40958199925774" y="875.22254259760348"/>
      <point x="546.76644075205741" y="868.9359794488106" type="curve" smooth="yes"/>
      <point x="644.57064084498745" y="864.90037327305595"/>
      <point x="647.65908271324338" y="751.03410372598773"/>
      <point x="644.63552524868669" y="677.61564735321747" type="curve"/>
      <point x="903.73169847574275" y="677.319425874231" type="line"/>
      <point x="911.59944831111864" y="848.27063765571711"/>
      <point x="864.0424329061251" y="1032.0101287261352"/>
      <point x="683.75413038447789" y="1089.1777554682239" type="curve"/>
      <point x="730.39110672345089" y="1317.711146406328" type="line"/>
      <point x="543.40664867490023" y="1318.1003274029204" type="line"/>
      <point x="497.51517215351225" y="1092.4530048234935" type="line"/>
      <point x="234.68856933222816" y="1039.06493547947"/>
      <point x="117.35807420729347" y="801.14557545923844"/>
      <point x="86.602997317974697" y="553.41642389666367" type="curve" smooth="yes"/>
      <point x="83.227761139723398" y="524.40600560304711" type="line" smooth="yes"/>
      <point x="61.184035868465145" y="321.17437492178647"/>
      <point x="91.733332673224027" y="60.5723078429873"/>
      <point x="319.58255081399363" y="-7.7593853940309012" type="curve"/>
      <point x="271.57097289602916" y="-244.71912117846432" type="line"/>
      <point x="458.51281069647325" y="-245.10437480950989" type="line"/>
      <point x="506.07410499673972" y="-9.1966376993111396" type="line"/>
      <point x="698.56138315239173" y="35.374730947438835"/>
      <point x="823.83768477176852" y="177.89833301926447"/>
    </contour>
  </outline>
</glyph>
<glyph name="sterling" format="1">
  <advance width="1041.78"/>
  <unicode hex="00A3"/>
  <outline>
    <contour>
      <point x="6.581941661701407" y="0.0" type="line"/>
      <point x="878.58560418335185" y="0.0" type="line"/>
      <point x="922.45497647375396" y="243.92668943157616" type="line"/>
      <point x="398.71399263863844" y="240.63516848622649" type="line"/>
      <point x="453.07376469321213" y="298.58979194587454"/>
      <point x="482.07869629991848" y="360.78911206777946"/>
      <point x="493.2374264184391" y="439.74338728678936" type="curve" smooth="yes"/>
      <point x="509.97910577582172" y="575.88419974343856" type="line"/>
      <point x="744.65605885544653" y="576.09762787513557" type="line"/>
      <point x="786.16013750569573" y="812.90183652757059" type="line"/>
      <point x="542.77420444628808" y="813.07242160107671" type="line"/>
      <point x="569.52310286878685" y="1039.7112470303182" type="line" smooth="yes"/>
      <point x="578.40360076506647" y="1109.3174358973906"/>
      <point x="608.76054607066931" y="1234.8922538278432"/>
      <point x="700.60000059451568" y="1233.4114497699743" type="curve" smooth="yes"/>
      <point x="791.81069251430301" y="1231.9407837755375"/>
      <point x="792.22630617280504" y="1123.5983917697729"/>
      <point x="788.9052963072395" y="1057.787240425105" type="curve"/>
      <point x="1063.7496311844222" y="1057.2573686500546" type="line"/>
      <point x="1073.7103025689207" y="1282.9680140796672"/>
      <point x="970.84309974783491" y="1469.2413777478394"/>
      <point x="726.10710859277208" y="1475.4880604088212" type="curve" smooth="yes"/>
      <point x="468.08895877247181" y="1482.0737591247891"/>
      <point x="313.80168315888267" y="1277.7485100749018"/>
      <point x="285.42009393688727" y="1038.6184439182664" type="curve" smooth="yes"/>
      <point x="256.27630122163623" y="813.08006283127577" type="line"/>
      <point x="137.35066274354836" y="812.88310079878818" type="line"/>
      <point x="96.090164505754174" y="576.06162817684003" type="line"/>
      <point x="220.40811963887296" y="576.02242447145409" type="line"/>
      <point x="199.44801933906712" y="421.25887986172495" type="line" smooth="yes"/>
      <point x="189.24135204248893" y="351.63835057105013"/>
      <point x="177.74625313721583" y="273.9221102946218"/>
      <point x="109.26773371419542" y="240.30641970606374" type="curve"/>
      <point x="35.12732173303003" y="242.64810410780271" type="line"/>
    </contour>
  </outline>
</glyph>
<glyph name="currency" format="1">
  <advance width="1374.49"/>
  <unicode hex="00A4"/>
  <outline>
    <contour>
      <point x="1222.6917946582871" y="106.62588976452535" type="line"/>
      <point x="1111.278398972976" y="255.76697052270532" type="line"/>
      <point x="1197.8135690831491" y="359.59312562942756"/>
      <point x="1251.3664510012175" y="479.9972444242789"/>
      <point x="1268.0532276077483" y="614.56216268352443" type="curve" smooth="yes"/>
      <point x="1283.0238348604555" y="735.28760827158067"/>
      <point x="1266.090650623305" y="853.20122281581121"/>
      <point x="1227.0972950373732" y="967.72234676215544" type="curve"/>
      <point x="1395.7643491480483" y="1108.3514188251363" type="line"/>
      <point x="1274.3442707866216" y="1265.2226547906751" type="line"/>
      <point x="1104.7814012567767" y="1117.1451859443866" type="line"/>
      <point x="1014.9361315371493" y="1193.3624302002277"/>
      <point x="901.52506212926858" y="1231.9696137711733"/>
      <point x="784.03431870286317" y="1233.4810963719383" type="curve" smooth="yes"/>
      <point x="654.6392711069135" y="1235.1457242171859"/>
      <point x="536.50064737796686" y="1191.1634284053484"/>
      <point x="429.66915885677929" y="1120.6504598322235" type="curve"/>
      <point x="320.3865738153608" y="1264.3494365352858" type="line"/>
      <point x="169.7862629481744" y="1131.4855623178294" type="line"/>
      <point x="284.78942154426437" y="976.28648469896871" type="line"/>
      <point x="190.25007533010881" y="870.08278353123683"/>
      <point x="131.32866614251267" y="743.63533111011009"/>
      <point x="113.86697555620945" y="602.01304784574268" type="curve" smooth="yes"/>
      <point x="99.392118305559904" y="484.61534665346852"/>
      <point x="115.05010062473195" y="369.43775148996849"/>
      <point x="151.35076197460296" y="257.503151876978" type="curve"/>
      <point x="-3.2857989731300847" y="129.63208512042749" type="line"/>
      <point x="117.16081985418585" y="-26.287113940559216" type="line"/>
      <point x="269.64397795111381" y="106.03240970332776" type="line"/>
      <point x="360.17970144647586" y="24.099064334192789"/>
      <point x="478.41955188519074" y="-18.312916571050955"/>
      <point x="600.14597235037161" y="-20.037874634007508" type="curve" smooth="yes"/>
      <point x="736.53960373052439" y="-21.970678484527511"/>
      <point x="860.32830088312471" y="28.112741273457345"/>
      <point x="970.12382932280184" y="106.00858789526697" type="curve"/>
      <point x="1071.0633044021758" y="-27.314541091788126" type="line"/>
    </contour>
    <contour>
      <point x="295.28879288997621" y="598.76224974121419" type="curve" smooth="yes"/>
      <point x="327.29609960432742" y="833.72299142231134"/>
      <point x="527.25771122202866" y="1053.6222949382061"/>
      <point x="776.09398555513144" y="1046.1880642196893" type="curve" smooth="yes"/>
      <point x="1004.5212722550186" y="1039.3635722669667"/>
      <point x="1116.4130773410238" y="824.83371830805481"/>
      <point x="1088.065380370198" y="616.86224227274647" type="curve" smooth="yes"/>
      <point x="1056.1662537411728" y="382.83587829322909"/>
      <point x="856.5044863799119" y="161.02970364575984"/>
      <point x="608.14003261136565" y="168.39419881005625" type="curve" smooth="yes"/>
      <point x="378.81536534465749" y="175.19412680906623"/>
      <point x="266.84233598245919" y="389.9411617053147"/>
    </contour>
  </outline>
</glyph>
<glyph name="yen" format="1">
  <advance width="943.81"/>
  <unicode hex="00A5"/>
  <outline>
    <contour>
      <point x="773.46352066169118" y="278.08200096202211" type="line"/>
      <point x="804.15556212024194" y="451.90546280061153" type="line"/>
      <point x="586.35986713244597" y="452.07138258026851" type="line"/>
      <point x="606.78130371703435" y="566.90768523697909" type="line"/>
      <point x="823.60988005043168" y="567.0617002796007" type="line"/>
      <point x="854.29827975288413" y="741.84167237614781" type="line"/>
      <point x="695.56654120670362" y="742.22281408172341" type="line"/>
      <point x="1074.3715570253789" y="1455.706507856911" type="line"/>
      <point x="767.27607171261013" y="1455.7825740188714" type="line"/>
      <point x="531.49982546610227" y="962.40839154785408" type="line"/>
      <point x="467.02640356228471" y="1456.0292507167592" type="line"/>
      <point x="177.27710412238469" y="1456.0200316454163" type="line"/>
      <point x="310.59962812457917" y="741.99858211242463" type="line"/>
      <point x="114.5052859441772" y="741.93594313145661" type="line"/>
      <point x="83.658986591306487" y="567.08800817321514" type="line"/>
      <point x="319.89348579861536" y="566.92311884896947" type="line"/>
      <point x="299.42749662981032" y="452.08751428891782" type="line"/>
      <point x="64.276954151856117" y="451.91624879891526" type="line"/>
      <point x="33.541736542242191" y="278.09494247377376" type="line"/>
      <point x="269.7580209540198" y="277.91865521562551" type="line"/>
      <point x="221.10259478725555" y="0.0" type="line"/>
      <point x="508.01485741373551" y="0.0" type="line"/>
      <point x="556.6493581630931" y="277.90105786914506" type="line"/>
    </contour>
  </outline>
</glyph>
<glyph name="brokenbar" format="1">
  <advance width="501.49"/>
  <unicode hex="00A6"/>
  <outline>
    <contour>
      <point x="526.99628636406442" y="1455.9348861358822" type="line"/>
      <point x="272.09694233072378" y="1455.9477964944813" type="line"/>
      <point x="140.34024948626507" y="698.06251391273452" type="line"/>
      <point x="395.23959351961167" y="698.04960355415642" type="line"/>
    </contour>
    <contour>
      <point x="227.52641286823376" y="-269.94870326672401" type="line"/>
      <point x="365.70142653490046" y="524.93549607923774" type="line"/>
      <point x="110.80434048615642" y="524.94839547302104" type="line"/>
      <point x="-27.370673180509513" y="-269.93580387293582" type="line"/>
    </contour>
  </outline>
</glyph>
<glyph name="section" format="1">
  <advance width="1098.04"/>
  <unicode hex="00A7"/>
  <outline>
    <contour>
      <point x="861.54556490561765" y="-70.414951820585671" type="curve" smooth="yes"/>
      <point x="869.6581109175354" y="30.035244747848338"/>
      <point x="854.83642939210824" y="127.22372889008847"/>
      <point x="794.67696754833469" y="209.73739344099985" type="curve"/>
      <point x="900.44339339810483" y="275.28574574439358"/>
      <point x="964.82404750119326" y="364.54408503389186"/>
      <point x="975.0872457252251" y="491.03326033779479" type="curve" smooth="yes"/>
      <point x="994.05596899147235" y="724.81400880832302"/>
      <point x="839.94373801870688" y="829.35678789606334"/>
      <point x="642.47451171636749" y="904.6160427473443" type="curve" smooth="yes"/>
      <point x="551.21361211485043" y="939.39729666562312"/>
      <point x="452.02508381916084" y="974.97047152164464"/>
      <point x="469.41739203421889" y="1089.2764355466345" type="curve" smooth="yes"/>
      <point x="483.95805986637043" y="1184.8408099568251"/>
      <point x="560.85293974461717" y="1241.3268106105622"/>
      <point x="656.05671989509767" y="1239.7300340095453" type="curve" smooth="yes"/>
      <point x="764.98766811335099" y="1237.903022634928"/>
      <point x="789.91636860766778" y="1140.9893543142407"/>
      <point x="785.86892654383325" y="1049.5497184951971" type="curve"/>
      <point x="1061.2107087779361" y="1049.2825423715276" type="line"/>
      <point x="1071.6215594204891" y="1302.4405264145712"/>
      <point x="936.11954771547619" y="1470.8847306809319"/>
      <point x="676.00999257171418" y="1476.3167704489397" type="curve" smooth="yes"/>
      <point x="434.24815221710469" y="1481.3656427614819"/>
      <point x="215.38171264917577" y="1341.3028606510384"/>
      <point x="194.61681105554709" y="1087.1376869410242" type="curve" smooth="yes"/>
      <point x="186.41702461200222" y="986.77120379582743"/>
      <point x="202.86993634729333" y="890.88721405042224"/>
      <point x="262.99873825510991" y="808.80089473822318" type="curve"/>
      <point x="157.36950488956785" y="742.85687572315658"/>
      <point x="91.662187980009122" y="653.0228043598064"/>
      <point x="81.487660326605649" y="526.25109100606767" type="curve" smooth="yes"/>
      <point x="62.804673611754154" y="293.46640388453972"/>
      <point x="215.44089623182839" y="191.38282867739468"/>
      <point x="409.9967252477893" y="113.41441513087223" type="curve" smooth="yes"/>
      <point x="492.86711868935834" y="80.204034648850239"/>
      <point x="603.75906696737991" y="36.451791804490171"/>
      <point x="586.81443916433989" y="-71.260136757089299" type="curve" smooth="yes"/>
      <point x="571.86036547127537" y="-166.31870847992019"/>
      <point x="492.76562238798272" y="-215.27701235794214"/>
      <point x="400.75632554451215" y="-214.90499620169626" type="curve" smooth="yes"/>
      <point x="285.69768116535369" y="-214.43978587955226"/>
      <point x="248.38802663974528" y="-139.72927657878301"/>
      <point x="253.49720736202215" y="-33.788713820081441" type="curve"/>
      <point x="-22.082545626273884" y="-34.197677474746719" type="line"/>
      <point x="-32.44771815255546" y="-296.82154745793048"/>
      <point x="122.0768393886417" y="-447.82908040571829"/>
      <point x="381.63782750452657" y="-452.58484538346818" type="curve" smooth="yes"/>
      <point x="625.14770923302672" y="-457.04651651389008"/>
      <point x="840.69235944910224" y="-328.62101735311796"/>
    </contour>
    <contour>
      <point x="519.9123353824906" y="356.62317027369608" type="curve" smooth="yes"/>
      <point x="422.68027693544246" y="396.20086874490869"/>
      <point x="346.09578567381106" y="442.09659977349395"/>
      <point x="365.11382370597778" y="556.06826215045362" type="curve" smooth="yes"/>
      <point x="374.60651169059327" y="612.95622442093168"/>
      <point x="396.63978348834758" y="657.60870520247363"/>
      <point x="437.29387190173929" y="698.11780191483194" type="curve"/>
      <point x="469.00113256198625" y="684.56551326587919"/>
      <point x="501.47155246232688" y="672.93173939466203"/>
      <point x="533.2170039636826" y="659.55266467789852" type="curve" smooth="yes"/>
      <point x="622.11158474465503" y="622.08817191006972"/>
      <point x="714.35201113603637" y="571.6961473276948"/>
      <point x="695.21133097296638" y="462.12250865470349" type="curve" smooth="yes"/>
      <point x="685.09683656193249" y="404.22059782851784"/>
      <point x="658.37037471747226" y="359.95978596965108"/>
      <point x="615.98425243607278" y="320.33435641773679" type="curve"/>
      <point x="584.23812335698153" y="333.12744116620217"/>
      <point x="551.57479341242663" y="343.73516567129764"/>
    </contour>
  </outline>
</glyph>
<glyph name="dieresis" format="1">
  <advance width="930.23"/>
  <unicode hex="00A8"/>
  <outline>
    <contour>
      <point x="572.13222716291705" y="1290" type="move" name="_top"/>
    </contour>
    <contour>
      <point x="620.89773020928374" y="1603" type="move" name="mkmktop_acc"/>
    </contour>
    <contour>
      <point x="211.42728282121584" y="1362.3617788883946" type="curve" smooth="yes"/>
      <point x="212.17314755413076" y="1287.9429003554997"/>
      <point x="276.11270286551564" y="1236.6543591084412"/>
      <point x="347.96262559646362" y="1238.2103252097688" type="curve" smooth="yes"/>
      <point x="420.48313327415201" y="1239.780813351003"/>
      <point x="482.9865092889811" y="1294.8908501109081"/>
      <point x="482.14822751770669" y="1369.6505061525613" type="curve" smooth="yes"/>
      <point x="481.32141060036895" y="1443.3877034384068"/>
      <point x="416.77264043354421" y="1495.2703331635967"/>
      <point x="345.60216730611774" y="1493.7909626271567" type="curve" smooth="yes"/>
      <point x="273.00011438628013" y="1492.2818348490912"/>
      <point x="210.67851092607589" y="1437.0707204085211"/>
    </contour>
    <contour>
      <point x="685.64957073553626" y="1361.3201008724777" type="curve" smooth="yes"/>
      <point x="686.48686806744149" y="1287.3054290924347"/>
      <point x="750.69442944285038" y="1235.6497235097372"/>
      <point x="822.18543563773699" y="1237.2117342268527" type="curve" smooth="yes"/>
      <point x="894.45715816596999" y="1238.7908028557899"/>
      <point x="957.10193219406131" y="1294.2446315310854"/>
      <point x="956.366910154111" y="1368.660478082061" type="curve" smooth="yes"/>
      <point x="955.63540245278557" y="1442.7205223990588"/>
      <point x="891.65406373208646" y="1495.2940654550221"/>
      <point x="819.884514768999" y="1493.7973542290069" type="curve" smooth="yes"/>
      <point x="746.78958710521101" y="1492.2730030190612"/>
      <point x="684.8010320516737" y="1436.3284757777762"/>
    </contour>
  </outline>
</glyph>
